<?xml version="1.0" encoding="UTF-8"?>
<!DOCTYPE svg PUBLIC "-//W3C//DTD SVG 1.1//EN" "http://www.w3.org/Graphics/SVG/1.1/DTD/svg11.dtd">
<svg xmlns="http://www.w3.org/2000/svg" version="1.1" width="1280px" height="720px" style="shape-rendering:geometricPrecision; text-rendering:geometricPrecision; image-rendering:optimizeQuality; fill-rule:evenodd; clip-rule:evenodd" xmlns:xlink="http://www.w3.org/1999/xlink">
<g><path style="opacity:0.408" fill="#535353" d="M 441.5,276.5 C 435.5,277.833 429.5,277.833 423.5,276.5C 429.5,275.167 435.5,275.167 441.5,276.5 Z"/></g>
<g><path style="opacity:1" fill="#010100" d="M 146.5,276.5 C 164.973,276.286 182.306,280.786 198.5,290C 202.647,292.98 206.314,296.48 209.5,300.5C 228.349,344.545 245.682,389.211 261.5,434.5C 262.702,441.104 264.702,447.438 267.5,453.5C 269.523,459.241 271.523,464.907 273.5,470.5C 274.752,475.925 276.419,481.258 278.5,486.5C 278.145,487.522 277.478,488.189 276.5,488.5C 275.957,488.56 275.624,488.893 275.5,489.5C 276.689,490.429 278.022,490.762 279.5,490.5C 280.55,496.574 282.05,502.574 284,508.5C 290.007,535.491 279.507,546.325 252.5,541C 249.107,540.202 245.774,539.202 242.5,538C 228.405,522.62 218.405,505.12 212.5,485.5C 210.802,480.031 208.802,474.698 206.5,469.5C 201.527,454.631 196.694,439.631 192,424.5C 191.292,423.619 190.458,422.953 189.5,422.5C 183.082,400.263 173.748,379.43 161.5,360C 157.167,359.333 152.833,359.333 148.5,360C 142.751,368.68 137.417,377.514 132.5,386.5C 126.5,380.833 120.5,375.167 114.5,369.5C 113.243,366.573 111.243,364.239 108.5,362.5C 100.731,353.732 93.7306,344.399 87.5,334.5C 90.5172,321.949 95.0172,309.949 101,298.5C 112.026,287.904 125.193,281.404 140.5,279C 139.552,278.517 138.552,278.351 137.5,278.5C 140.273,277.343 143.273,276.676 146.5,276.5 Z"/></g>
<g><path style="opacity:1" fill="#000000" d="M 419.5,277.5 C 420.568,276.566 421.901,276.232 423.5,276.5C 429.5,277.833 435.5,277.833 441.5,276.5C 443.415,276.216 445.081,276.549 446.5,277.5C 445.127,277.343 443.793,277.51 442.5,278C 459.704,280.019 474.204,287.186 486,299.5C 493.909,316.219 501.242,333.219 508,350.5C 515.988,372.124 523.821,393.791 531.5,415.5C 530.876,415.917 530.543,416.584 530.5,417.5C 531.196,420.955 532.196,424.288 533.5,427.5C 533.345,430.716 534.345,433.383 536.5,435.5C 536.5,435.833 536.5,436.167 536.5,436.5C 536.935,439.157 537.935,441.491 539.5,443.5C 539.324,447.192 540.991,449.192 544.5,449.5C 552.754,472.93 558.754,496.93 562.5,521.5C 562.5,536.003 555.334,542.669 541,541.5C 533.446,542.195 526.279,540.861 519.5,537.5C 506.132,521.438 495.298,503.772 487,484.5C 483.234,471.995 479.401,459.662 475.5,447.5C 474.833,446.5 474.167,445.5 473.5,444.5C 471.029,436.421 468.363,428.421 465.5,420.5C 464.401,415.856 462.734,411.522 460.5,407.5C 460.5,407.167 460.5,406.833 460.5,406.5C 456.118,389.613 448.784,374.113 438.5,360C 434.5,359.333 430.5,359.333 426.5,360C 422.964,364.237 419.798,368.737 417,373.5C 410.292,386.13 404.459,399.13 399.5,412.5C 397.035,412.767 394.701,413.434 392.5,414.5C 385.73,414.86 379.064,415.86 372.5,417.5C 367.205,417.678 362.205,418.678 357.5,420.5C 356.833,420.5 356.167,420.5 355.5,420.5C 348.485,421.407 341.485,422.407 334.5,423.5C 345.568,381.901 359.735,340.901 377,300.5C 378.793,297.705 380.96,295.205 383.5,293C 395.491,285.51 408.491,280.51 422.5,278C 421.552,277.517 420.552,277.351 419.5,277.5 Z M 458.5,406.5 C 452.077,406.209 445.744,406.542 439.5,407.5C 433.611,407.45 427.944,408.116 422.5,409.5C 416.022,409.233 409.689,409.9 403.5,411.5C 409.508,394.284 417.508,378.118 427.5,363C 431.423,362.207 435.256,362.374 439,363.5C 447.666,376.833 454.166,391.166 458.5,406.5 Z"/></g>
<g><path style="opacity:0.416" fill="#4b4b4a" d="M 137.5,278.5 C 138.552,278.351 139.552,278.517 140.5,279C 125.193,281.404 112.026,287.904 101,298.5C 95.0172,309.949 90.5172,321.949 87.5,334.5C 86.8333,333.833 86.1667,333.167 85.5,332.5C 85.5,331.833 85.5,331.167 85.5,330.5C 88.3239,323.241 91.1573,315.908 94,308.5C 98.777,297.056 106.944,288.89 118.5,284C 124.581,281.25 130.914,279.417 137.5,278.5 Z"/></g>
<g><path style="opacity:0.694" fill="#817207" d="M 62.5,283.5 C 59.6824,283.657 57.6824,284.991 56.5,287.5C 56.5,286.833 56.5,286.167 56.5,285.5C 56.3284,284.508 56.6618,283.842 57.5,283.5C 59.2837,282.28 60.9504,282.28 62.5,283.5 Z"/></g>
<g><path style="opacity:1" fill="#fde302" d="M 62.5,283.5 C 63.7899,284.058 64.6232,285.058 65,286.5C 68.859,303.213 75.6923,318.546 85.5,332.5C 86.1667,333.167 86.8333,333.833 87.5,334.5C 93.7306,344.399 100.731,353.732 108.5,362.5C 109.757,365.427 111.757,367.761 114.5,369.5C 120.5,375.167 126.5,380.833 132.5,386.5C 132.5,387.167 132.833,387.5 133.5,387.5C 145.374,399.776 159.041,409.609 174.5,417C 175.793,417.49 177.127,417.657 178.5,417.5C 180.482,420.137 183.148,421.47 186.5,421.5C 187.391,422.11 188.391,422.443 189.5,422.5C 190.458,422.953 191.292,423.619 192,424.5C 196.694,439.631 201.527,454.631 206.5,469.5C 206.88,475.482 208.213,481.149 210.5,486.5C 208.833,486.5 207.167,486.5 205.5,486.5C 197.232,486.629 189.232,485.296 181.5,482.5C 177.319,481.34 172.985,480.34 168.5,479.5C 161.995,478.932 155.662,477.599 149.5,475.5C 147.898,473.926 145.898,473.259 143.5,473.5C 131.093,469.751 118.759,465.751 106.5,461.5C 106.167,461.5 105.833,461.5 105.5,461.5C 86.8526,454.297 68.8526,445.964 51.5,436.5C 51.5,436.167 51.5,435.833 51.5,435.5C 34.473,426.139 21.473,412.806 12.5,395.5C 12.5,394.5 12.5,393.5 12.5,392.5C 12.0403,382.386 12.707,372.386 14.5,362.5C 17.7286,353.144 21.7286,344.144 26.5,335.5C 26.5,335.167 26.5,334.833 26.5,334.5C 28.3947,333.027 30.0613,331.36 31.5,329.5C 35.7372,325.379 38.7372,320.379 40.5,314.5C 40.3284,313.508 40.6618,312.842 41.5,312.5C 46.334,305.504 50.6673,298.171 54.5,290.5C 55.9063,290.027 56.573,289.027 56.5,287.5C 57.6824,284.991 59.6824,283.657 62.5,283.5 Z"/></g>
<g><path style="opacity:0.325" fill="#4b4b4a" d="M 419.5,277.5 C 420.552,277.351 421.552,277.517 422.5,278C 408.491,280.51 395.491,285.51 383.5,293C 380.96,295.205 378.793,297.705 377,300.5C 359.735,340.901 345.568,381.901 334.5,423.5C 334.158,424.338 333.492,424.672 332.5,424.5C 332.167,424.5 331.833,424.5 331.5,424.5C 343.396,382.709 357.563,341.709 374,301.5C 382.33,290.738 393.163,283.572 406.5,280C 410.787,278.847 415.121,278.013 419.5,277.5 Z"/></g>
<g><path style="opacity:0.247" fill="#272102" d="M 56.5,285.5 C 56.5,286.167 56.5,286.833 56.5,287.5C 55.8333,287.833 55.1667,288.167 54.5,288.5C 54.427,286.973 55.0937,285.973 56.5,285.5 Z"/></g>
<g><path style="opacity:0.714" fill="#867903" d="M 56.5,287.5 C 56.573,289.027 55.9063,290.027 54.5,290.5C 54.5,289.833 54.5,289.167 54.5,288.5C 55.1667,288.167 55.8333,287.833 56.5,287.5 Z"/></g>
<g><path style="opacity:0.204" fill="#4c4106" d="M 85.5,330.5 C 85.5,331.167 85.5,331.833 85.5,332.5C 75.6923,318.546 68.859,303.213 65,286.5C 64.6232,285.058 63.7899,284.058 62.5,283.5C 60.9504,282.28 59.2837,282.28 57.5,283.5C 57.9704,282.307 58.9704,281.64 60.5,281.5C 62.4809,281.437 64.1476,282.104 65.5,283.5C 69.7015,300.234 76.3682,315.901 85.5,330.5 Z"/></g>
<g><path style="opacity:0.608" fill="#595007" d="M 54.5,288.5 C 54.5,289.167 54.5,289.833 54.5,290.5C 50.6673,298.171 46.334,305.504 41.5,312.5C 41.5,311.833 41.5,311.167 41.5,310.5C 45.0444,302.64 49.3777,295.307 54.5,288.5 Z"/></g>
<g><path style="opacity:0.314" fill="#312c04" d="M 41.5,310.5 C 41.5,311.167 41.5,311.833 41.5,312.5C 40.6618,312.842 40.3284,313.508 40.5,314.5C 39.5,315.167 38.5,315.833 37.5,316.5C 38.3403,314.147 39.6736,312.147 41.5,310.5 Z"/></g>
<g><path style="opacity:0.106" fill="#393208" d="M 37.5,316.5 C 37.7593,318.989 36.7593,320.656 34.5,321.5C 34.7497,319.326 35.7497,317.659 37.5,316.5 Z"/></g>
<g><path style="opacity:0.992" fill="#c4b106" d="M 40.5,314.5 C 38.7372,320.379 35.7372,325.379 31.5,329.5C 32.5515,326.807 33.5515,324.14 34.5,321.5C 36.7593,320.656 37.7593,318.989 37.5,316.5C 38.5,315.833 39.5,315.167 40.5,314.5 Z"/></g>
<g><path style="opacity:0.063" fill="#312d04" d="M 34.5,321.5 C 33.5515,324.14 32.5515,326.807 31.5,329.5C 30.0613,331.36 28.3947,333.027 26.5,334.5C 28.9191,329.991 31.5857,325.658 34.5,321.5 Z"/></g>
<g><path style="opacity:0.486" fill="#664831" d="M 1140.5,352.5 C 1142.02,355.069 1143.36,357.736 1144.5,360.5C 1144.5,361.167 1144.83,361.5 1145.5,361.5C 1145.86,364.689 1146.53,367.689 1147.5,370.5C 1147.17,371.167 1146.83,371.833 1146.5,372.5C 1146.17,373.5 1145.5,374.167 1144.5,374.5C 1145.02,362.52 1140.68,352.687 1131.5,345C 1126.9,342.202 1122.23,339.702 1117.5,337.5C 1118.5,337.53 1119.16,337.03 1119.5,336C 1116.9,331.011 1112.74,328.845 1107,329.5C 1102.55,328.798 1099.38,330.465 1097.5,334.5C 1097.83,335.167 1098.17,335.833 1098.5,336.5C 1104.72,335.006 1110.72,335.34 1116.5,337.5C 1114.59,337.216 1112.92,337.549 1111.5,338.5C 1108.83,338.5 1106.17,338.5 1103.5,338.5C 1101.74,337.539 1099.74,337.205 1097.5,337.5C 1096.22,337.218 1095.22,336.551 1094.5,335.5C 1095.63,332.401 1097.63,329.901 1100.5,328C 1111.24,324.615 1118.91,327.948 1123.5,338C 1130.88,340.88 1136.54,345.713 1140.5,352.5 Z"/></g>
<g><path style="opacity:1" fill="#ede912" d="M 1117.5,337.5 C 1117.17,337.5 1116.83,337.5 1116.5,337.5C 1110.72,335.34 1104.72,335.006 1098.5,336.5C 1098.17,335.833 1097.83,335.167 1097.5,334.5C 1099.38,330.465 1102.55,328.798 1107,329.5C 1112.74,328.845 1116.9,331.011 1119.5,336C 1119.16,337.03 1118.5,337.53 1117.5,337.5 Z"/></g>
<g><path style="opacity:1" fill="#563525" d="M 1103.5,338.5 C 1106.17,338.5 1108.83,338.5 1111.5,338.5C 1132.12,342.786 1142.45,355.452 1142.5,376.5C 1141.17,377.167 1139.83,377.833 1138.5,378.5C 1140.01,361.4 1132.68,349.9 1116.5,344C 1114.19,343.503 1111.86,343.337 1109.5,343.5C 1108.61,342.89 1107.61,342.557 1106.5,342.5C 1091.44,344.06 1081.61,352.06 1077,366.5C 1076.23,370.92 1076.4,375.253 1077.5,379.5C 1075.33,379.25 1073.66,378.25 1072.5,376.5C 1072.55,355.448 1082.89,342.781 1103.5,338.5 Z"/></g>
<g><path style="opacity:1" fill="#f1f3eb" d="M 1106.5,342.5 C 1098.06,354.369 1090.89,367.036 1085,380.5C 1082.26,381.917 1079.76,381.584 1077.5,379.5C 1076.4,375.253 1076.23,370.92 1077,366.5C 1081.61,352.06 1091.44,344.06 1106.5,342.5 Z"/></g>
<g><path style="opacity:1" fill="#a8978f" d="M 1111.5,338.5 C 1112.92,337.549 1114.59,337.216 1116.5,337.5C 1116.83,337.5 1117.17,337.5 1117.5,337.5C 1122.23,339.702 1126.9,342.202 1131.5,345C 1140.68,352.687 1145.02,362.52 1144.5,374.5C 1144.17,375.5 1143.5,376.167 1142.5,376.5C 1142.45,355.452 1132.12,342.786 1111.5,338.5 Z"/></g>
<g><path style="opacity:0.447" fill="#484108" d="M 26.5,335.5 C 21.7286,344.144 17.7286,353.144 14.5,362.5C 13.5,364.5 12.5,366.5 11.5,368.5C 13.6355,356.05 18.6355,345.05 26.5,335.5 Z"/></g>
<g><path style="opacity:0.733" fill="#5a3a2f" d="M 1094.5,335.5 C 1095.22,336.551 1096.22,337.218 1097.5,337.5C 1085.34,341.491 1076.84,349.491 1072,361.5C 1071.08,365.79 1070.58,370.123 1070.5,374.5C 1068.75,373.341 1067.75,371.674 1067.5,369.5C 1068.53,367.039 1069.2,364.373 1069.5,361.5C 1071.6,358.873 1072.93,355.873 1073.5,352.5C 1079.14,345.178 1086.14,339.511 1094.5,335.5 Z"/></g>
<g><path style="opacity:1" fill="#f3f4eb" d="M 1109.5,343.5 C 1111.86,343.337 1114.19,343.503 1116.5,344C 1132.68,349.9 1140.01,361.4 1138.5,378.5C 1135.88,380.485 1132.88,381.485 1129.5,381.5C 1129.38,378.312 1128.55,375.312 1127,372.5C 1121.34,362.685 1115.5,353.018 1109.5,343.5 Z"/></g>
<g><path style="opacity:1" fill="#f3f24f" d="M 1117.5,347.5 C 1119.91,347.694 1120.91,349.027 1120.5,351.5C 1118.28,351.725 1116.62,350.892 1115.5,349C 1116.42,348.722 1117.08,348.222 1117.5,347.5 Z"/></g>
<g><path style="opacity:1" fill="#f2f254" d="M 1092.5,348.5 C 1093.83,348.5 1095.17,348.5 1096.5,348.5C 1096.5,349.833 1096.5,351.167 1096.5,352.5C 1095.17,352.5 1093.83,352.5 1092.5,352.5C 1092.5,351.167 1092.5,349.833 1092.5,348.5 Z"/></g>
<g><path style="opacity:1" fill="#f3f34e" d="M 1122.5,354.5 C 1124.91,354.694 1125.91,356.027 1125.5,358.5C 1124.17,358.5 1122.83,358.5 1121.5,358.5C 1121.43,357.041 1121.77,355.708 1122.5,354.5 Z"/></g>
<g><path style="opacity:0.89" fill="#276d3c" d="M 1073.5,352.5 C 1072.93,355.873 1071.6,358.873 1069.5,361.5C 1068.73,362.694 1067.73,363.694 1066.5,364.5C 1065.99,360.18 1067.66,357.013 1071.5,355C 1070.94,354.617 1070.61,354.117 1070.5,353.5C 1071.61,353.443 1072.61,353.11 1073.5,352.5 Z"/></g>
<g><path style="opacity:1" fill="#a5938c" d="M 1097.5,337.5 C 1099.74,337.205 1101.74,337.539 1103.5,338.5C 1082.89,342.781 1072.55,355.448 1072.5,376.5C 1071.17,376.5 1070.5,375.833 1070.5,374.5C 1070.58,370.123 1071.08,365.79 1072,361.5C 1076.84,349.491 1085.34,341.491 1097.5,337.5 Z"/></g>
<g><path style="opacity:0.216" fill="#494949" d="M 446.5,277.5 C 463.672,279.168 477.838,286.502 489,299.5C 506.165,337.831 521.665,376.831 535.5,416.5C 534.833,416.5 534.167,416.5 533.5,416.5C 533.158,415.662 532.492,415.328 531.5,415.5C 523.821,393.791 515.988,372.124 508,350.5C 501.242,333.219 493.909,316.219 486,299.5C 474.204,287.186 459.704,280.019 442.5,278C 443.793,277.51 445.127,277.343 446.5,277.5 Z"/></g>
<g><path style="opacity:1" fill="#ada348" d="M 108.5,362.5 C 111.243,364.239 113.243,366.573 114.5,369.5C 111.757,367.761 109.757,365.427 108.5,362.5 Z"/></g>
<g><path style="opacity:0.298" fill="#207139" d="M 1140.5,352.5 C 1145.88,353.558 1150.21,356.224 1153.5,360.5C 1151.83,360.249 1150.33,359.582 1149,358.5C 1149.46,362.784 1149.46,367.118 1149,371.5C 1148.33,372.252 1147.5,372.586 1146.5,372.5C 1146.83,371.833 1147.17,371.167 1147.5,370.5C 1147.66,367.813 1147.5,365.146 1147,362.5C 1146.62,361.944 1146.12,361.611 1145.5,361.5C 1144.83,361.5 1144.5,361.167 1144.5,360.5C 1143.36,357.736 1142.02,355.069 1140.5,352.5 Z"/></g>
<g><path style="opacity:1" fill="#209240" d="M 1106.5,342.5 C 1107.61,342.557 1108.61,342.89 1109.5,343.5C 1115.5,353.018 1121.34,362.685 1127,372.5C 1128.55,375.312 1129.38,378.312 1129.5,381.5C 1132.88,381.485 1135.88,380.485 1138.5,378.5C 1139.83,377.833 1141.17,377.167 1142.5,376.5C 1143.5,376.167 1144.17,375.5 1144.5,374.5C 1145.5,374.167 1146.17,373.5 1146.5,372.5C 1147.5,372.586 1148.33,372.252 1149,371.5C 1149.46,367.118 1149.46,362.784 1149,358.5C 1150.33,359.582 1151.83,360.249 1153.5,360.5C 1154.97,361.347 1155.8,362.68 1156,364.5C 1157.81,371.23 1155.98,376.564 1150.5,380.5C 1149.21,380.263 1148.21,380.596 1147.5,381.5C 1145.94,381.733 1144.6,382.4 1143.5,383.5C 1142.83,383.833 1142.17,384.167 1141.5,384.5C 1140.83,384.833 1140.17,385.167 1139.5,385.5C 1137.24,386.219 1134.9,386.552 1132.5,386.5C 1132.5,390.175 1130.83,392.841 1127.5,394.5C 1127.82,390.828 1126.15,389.162 1122.5,389.5C 1123.09,392.127 1123.42,394.794 1123.5,397.5C 1121.97,399.245 1119.97,400.245 1117.5,400.5C 1117.17,397.167 1116.83,393.833 1116.5,390.5C 1110.49,390.334 1104.49,390.501 1098.5,391C 1097.55,394.057 1097.22,397.223 1097.5,400.5C 1094.79,400.312 1092.46,399.312 1090.5,397.5C 1091.37,394.888 1092.04,392.221 1092.5,389.5C 1091.17,389.5 1089.83,389.5 1088.5,389.5C 1088.37,391.216 1088.04,392.883 1087.5,394.5C 1085.98,394.489 1084.82,393.823 1084,392.5C 1082.8,388.134 1079.97,385.8 1075.5,385.5C 1074.29,384.766 1072.96,384.433 1071.5,384.5C 1070.34,382.75 1068.67,381.75 1066.5,381.5C 1065.83,381.5 1065.17,381.5 1064.5,381.5C 1058.19,376.602 1056.35,370.269 1059,362.5C 1062.41,358.888 1066.24,355.888 1070.5,353.5C 1070.61,354.117 1070.94,354.617 1071.5,355C 1067.66,357.013 1065.99,360.18 1066.5,364.5C 1066.37,366.292 1066.7,367.958 1067.5,369.5C 1067.75,371.674 1068.75,373.341 1070.5,374.5C 1070.5,375.833 1071.17,376.5 1072.5,376.5C 1073.66,378.25 1075.33,379.25 1077.5,379.5C 1079.76,381.584 1082.26,381.917 1085,380.5C 1090.89,367.036 1098.06,354.369 1106.5,342.5 Z M 1145.5,361.5 C 1146.12,361.611 1146.62,361.944 1147,362.5C 1147.5,365.146 1147.66,367.813 1147.5,370.5C 1146.53,367.689 1145.86,364.689 1145.5,361.5 Z M 1069.5,361.5 C 1069.2,364.373 1068.53,367.039 1067.5,369.5C 1066.7,367.958 1066.37,366.292 1066.5,364.5C 1067.73,363.694 1068.73,362.694 1069.5,361.5 Z"/></g>
<g><path style="opacity:1" fill="#f5f68e" d="M 1126.5,362.5 C 1127.25,366.31 1128.25,366.31 1129.5,362.5C 1130.43,363.568 1130.77,364.901 1130.5,366.5C 1128.83,366.5 1127.17,366.5 1125.5,366.5C 1125.23,364.901 1125.57,363.568 1126.5,362.5 Z"/></g>
<g><path style="opacity:1" fill="#f2f134" d="M 1126.5,362.5 C 1127.5,362.5 1128.5,362.5 1129.5,362.5C 1128.25,366.31 1127.25,366.31 1126.5,362.5 Z"/></g>
<g><path style="opacity:1" fill="#f2f14b" d="M 1084.5,362.5 C 1086.91,362.694 1087.91,364.027 1087.5,366.5C 1086.17,366.5 1084.83,366.5 1083.5,366.5C 1083.43,365.041 1083.77,363.708 1084.5,362.5 Z"/></g>
<g><path style="opacity:1" fill="#eff7ef" d="M 1113.5,360.5 C 1118.73,367.305 1122.07,374.971 1123.5,383.5C 1121.53,383.739 1119.7,383.406 1118,382.5C 1115.14,377.445 1112.31,372.445 1109.5,367.5C 1111.77,367.089 1112.11,365.922 1110.5,364C 1110.98,362.358 1111.98,361.191 1113.5,360.5 Z"/></g>
<g><path style="opacity:1" fill="#ebf5e9" d="M 1113.5,359.5 C 1110.76,360.035 1108.93,359.035 1108,356.5C 1106.65,358.432 1104.81,359.766 1102.5,360.5C 1103.91,362.76 1104.91,365.093 1105.5,367.5C 1103.27,371.612 1100.77,375.612 1098,379.5C 1096.99,381.025 1096.49,382.692 1096.5,384.5C 1094.83,384.5 1093.17,384.5 1091.5,384.5C 1094.58,372.531 1099.42,361.198 1106,350.5C 1107,349.167 1108,349.167 1109,350.5C 1111.04,353.243 1112.54,356.243 1113.5,359.5 Z"/></g>
<g><path style="opacity:1" fill="#f3f238" d="M 1113.5,359.5 C 1113.5,359.833 1113.5,360.167 1113.5,360.5C 1111.98,361.191 1110.98,362.358 1110.5,364C 1112.11,365.922 1111.77,367.089 1109.5,367.5C 1108.17,364.833 1106.83,364.833 1105.5,367.5C 1104.91,365.093 1103.91,362.76 1102.5,360.5C 1104.81,359.766 1106.65,358.432 1108,356.5C 1108.93,359.035 1110.76,360.035 1113.5,359.5 Z"/></g>
<g><path style="opacity:1" fill="#f1f24a" d="M 1088.5,354.5 C 1092.9,354.7 1093.4,356.033 1090,358.5C 1087.97,357.486 1087.47,356.153 1088.5,354.5 Z"/></g>
<g><path style="opacity:1" fill="#f2f252" d="M 1130.5,369.5 C 1132.91,369.694 1133.91,371.027 1133.5,373.5C 1130.05,373.733 1129.05,372.4 1130.5,369.5 Z"/></g>
<g><path style="opacity:1" fill="#f3f35f" d="M 1080.5,369.5 C 1083.62,369.588 1084.62,370.921 1083.5,373.5C 1082.31,374.429 1080.98,374.762 1079.5,374.5C 1079.63,372.784 1079.96,371.117 1080.5,369.5 Z"/></g>
<g><path style="opacity:1" fill="#f0f7f2" d="M 1112.5,382.5 C 1109.66,384.402 1106.33,385.069 1102.5,384.5C 1102.5,383.167 1102.5,381.833 1102.5,380.5C 1103.83,377.906 1105.16,375.239 1106.5,372.5C 1109.51,375.19 1111.51,378.523 1112.5,382.5 Z"/></g>
<g><path style="opacity:0.482" fill="#424141" d="M 189.5,422.5 C 188.391,422.443 187.391,422.11 186.5,421.5C 186.5,421.167 186.5,420.833 186.5,420.5C 180.693,400.42 172.36,381.42 161.5,363.5C 157.541,362.34 153.541,362.173 149.5,363C 144.442,370.95 139.775,379.116 135.5,387.5C 134.833,387.5 134.167,387.5 133.5,387.5C 132.833,387.5 132.5,387.167 132.5,386.5C 137.417,377.514 142.751,368.68 148.5,360C 152.833,359.333 157.167,359.333 161.5,360C 173.748,379.43 183.082,400.263 189.5,422.5 Z"/></g>
<g><path style="opacity:0.998" fill="#c0ad09" d="M 14.5,362.5 C 12.707,372.386 12.0403,382.386 12.5,392.5C 11.0872,389.618 10.4205,386.451 10.5,383C 11.0405,378.511 11.3738,374.011 11.5,369.5C 11.5,369.167 11.5,368.833 11.5,368.5C 12.5,366.5 13.5,364.5 14.5,362.5 Z"/></g>
<g><path style="opacity:1" fill="#010101" d="M 1054.5,505.5 C 1053.83,505.5 1053.17,505.5 1052.5,505.5C 1043.79,504.637 1035.13,503.303 1026.5,501.5C 1023.78,500.087 1020.78,499.42 1017.5,499.5C 1016.5,499.5 1015.5,499.5 1014.5,499.5C 1014.39,498.883 1014.06,498.383 1013.5,498C 1017.43,493.971 1019.6,489.137 1020,483.5C 1022.63,459.14 1011.8,447.307 987.5,448C 977.226,451.273 970.726,458.106 968,468.5C 966.808,476.537 967.641,484.204 970.5,491.5C 970.5,492.167 970.833,492.5 971.5,492.5C 971.273,494.933 972.273,496.599 974.5,497.5C 978.268,501.892 982.935,505.059 988.5,507C 996.172,506.843 1003.84,506.343 1011.5,505.5C 1023.44,507.826 1035.44,509.826 1047.5,511.5C 1049.61,512.468 1051.94,512.802 1054.5,512.5C 1054.5,519.833 1054.5,527.167 1054.5,534.5C 1043.17,534.5 1031.83,534.5 1020.5,534.5C 1020.83,529.456 1020.49,524.456 1019.5,519.5C 1001.98,538.127 981.645,541.627 958.5,530C 944.213,519.94 936.213,506.107 934.5,488.5C 935.878,486.03 935.545,483.696 933.5,481.5C 930.322,456.137 939.322,436.637 960.5,423C 982.94,413.03 1002.61,416.863 1019.5,434.5C 1020.5,416.846 1020.83,399.179 1020.5,381.5C 1031.75,380.523 1043.09,380.189 1054.5,380.5C 1054.5,422.167 1054.5,463.833 1054.5,505.5 Z M 1011.5,497.5 C 1004.52,496.085 997.516,494.752 990.5,493.5C 984.664,491.965 978.664,490.632 972.5,489.5C 967.639,476.076 970.306,464.242 980.5,454C 997.579,445.909 1009.75,450.409 1017,467.5C 1019.56,478.357 1017.73,488.357 1011.5,497.5 Z M 985.5,502.5 C 989.154,502.942 992.821,503.276 996.5,503.5C 996.189,504.478 995.522,505.145 994.5,505.5C 991.268,504.867 988.268,503.867 985.5,502.5 Z"/></g>
<g><path style="opacity:0.875" fill="#393939" d="M 1018.5,380.5 C 1031.32,379.505 1044.32,379.171 1057.5,379.5C 1057.5,421.5 1057.5,463.5 1057.5,505.5C 1056.5,505.5 1055.5,505.5 1054.5,505.5C 1054.5,463.833 1054.5,422.167 1054.5,380.5C 1043.09,380.189 1031.75,380.523 1020.5,381.5C 1020.16,380.662 1019.49,380.328 1018.5,380.5 Z"/></g>
<g><path style="opacity:0.124" fill="#342b04" d="M 11.5,369.5 C 11.3738,374.011 11.0405,378.511 10.5,383C 10.4205,386.451 11.0872,389.618 12.5,392.5C 12.5,393.5 12.5,394.5 12.5,395.5C 12.5,396.167 12.5,396.833 12.5,397.5C 10.2628,392.523 9.26279,387.189 9.5,381.5C 9.33666,377.223 10.0033,373.223 11.5,369.5 Z"/></g>
<g><path style="opacity:1" fill="#ece812" d="M 1066.5,381.5 C 1068.67,381.75 1070.34,382.75 1071.5,384.5C 1073.25,389.667 1076.25,394 1080.5,397.5C 1076.99,400.177 1073.49,399.843 1070,396.5C 1066.99,391.947 1065.83,386.947 1066.5,381.5 Z"/></g>
<g><path style="opacity:1" fill="#8cc79f" d="M 1102.5,380.5 C 1102.5,381.833 1102.5,383.167 1102.5,384.5C 1106.33,385.069 1109.66,384.402 1112.5,382.5C 1113.4,383.209 1113.74,384.209 1113.5,385.5C 1109.5,385.5 1105.5,385.5 1101.5,385.5C 1101.22,383.585 1101.55,381.919 1102.5,380.5 Z"/></g>
<g><path style="opacity:0.873" fill="#a38b32" d="M 1147.5,381.5 C 1149.03,382.492 1149.69,383.992 1149.5,386C 1149.49,387.385 1149.15,388.551 1148.5,389.5C 1148.6,386.763 1148.27,384.096 1147.5,381.5 Z"/></g>
<g><path style="opacity:1" fill="#ebe712" d="M 1147.5,381.5 C 1148.27,384.096 1148.6,386.763 1148.5,389.5C 1146.35,396.504 1141.68,399.67 1134.5,399C 1135.06,398.617 1135.39,398.117 1135.5,397.5C 1135.5,396.833 1135.83,396.5 1136.5,396.5C 1140.13,392.989 1142.47,388.656 1143.5,383.5C 1144.6,382.4 1145.94,381.733 1147.5,381.5 Z"/></g>
<g><path style="opacity:0.718" fill="#393939" d="M 1273.5,388.5 C 1272.83,393.167 1272.17,397.833 1271.5,402.5C 1271.5,398.167 1271.5,393.833 1271.5,389.5C 1234.5,389.5 1197.5,389.5 1160.5,389.5C 1160.5,393.833 1160.5,398.167 1160.5,402.5C 1159.66,402.842 1159.33,403.508 1159.5,404.5C 1158.51,399.025 1158.18,393.358 1158.5,387.5C 1197,387.168 1235.34,387.501 1273.5,388.5 Z"/></g>
<g><path style="opacity:0.333" fill="#626462" d="M 606.5,529.5 C 605.833,533.5 607.5,535.167 611.5,534.5C 609.721,536.344 607.388,537.01 604.5,536.5C 604.5,536.167 604.5,535.833 604.5,535.5C 604.333,486.832 604.5,438.166 605,389.5C 605.167,436.335 605.667,483.002 606.5,529.5 Z"/></g>
<g><path style="opacity:1" fill="#010101" d="M 688.5,490.5 C 680.178,493.83 671.845,497.164 663.5,500.5C 657.396,484.881 651.063,469.214 644.5,453.5C 643.208,451.745 642.208,449.745 641.5,447.5C 640.5,468.823 640.167,490.156 640.5,511.5C 628.877,516.978 617.544,522.978 606.5,529.5C 606.5,482.833 606.5,436.167 606.5,389.5C 620.183,389.167 633.85,389.501 647.5,390.5C 661.171,423.851 674.838,457.184 688.5,490.5 Z"/></g>
<g><path style="opacity:0.999" fill="#000100" d="M 771.5,470.5 C 771.5,472.833 771.5,475.167 771.5,477.5C 771.5,496.833 771.5,516.167 771.5,535.5C 760.086,535.811 748.752,535.477 737.5,534.5C 737.5,517.5 737.5,500.5 737.5,483.5C 738.833,481.167 738.833,478.833 737.5,476.5C 737.832,466.81 737.498,457.144 736.5,447.5C 734.854,448.779 733.687,450.445 733,452.5C 730.099,462.143 726.599,471.476 722.5,480.5C 721.167,480.833 719.833,481.167 718.5,481.5C 715.848,481.41 713.515,482.076 711.5,483.5C 704.376,485.097 697.376,487.097 690.5,489.5C 701.826,459.179 713.992,429.179 727,399.5C 728.143,396.223 728.977,392.89 729.5,389.5C 743.5,389.5 757.5,389.5 771.5,389.5C 771.5,416.5 771.5,443.5 771.5,470.5 Z M 734.5,476.5 C 732.139,476.674 729.806,477.007 727.5,477.5C 729.368,471.424 731.534,465.424 734,459.5C 734.499,465.157 734.666,470.824 734.5,476.5 Z"/></g>
<g><path style="opacity:0.998" fill="#000000" d="M 1271.5,402.5 C 1234.5,402.5 1197.5,402.5 1160.5,402.5C 1160.5,398.167 1160.5,393.833 1160.5,389.5C 1197.5,389.5 1234.5,389.5 1271.5,389.5C 1271.5,393.833 1271.5,398.167 1271.5,402.5 Z"/></g>
<g><path style="opacity:0.273" fill="#484847" d="M 269.5,433.5 C 267.052,434.473 264.385,434.806 261.5,434.5C 245.682,389.211 228.349,344.545 209.5,300.5C 206.314,296.48 202.647,292.98 198.5,290C 182.306,280.786 164.973,276.286 146.5,276.5C 172.245,273.4 194.078,281.067 212,299.5C 230.68,343.542 248.18,388.042 264.5,433C 266.134,433.494 267.801,433.66 269.5,433.5 Z"/></g>
<g><path style="opacity:1" fill="#91762b" d="M 1143.5,383.5 C 1142.47,388.656 1140.13,392.989 1136.5,396.5C 1138.93,392.881 1140.6,388.881 1141.5,384.5C 1142.17,384.167 1142.83,383.833 1143.5,383.5 Z"/></g>
<g><path style="opacity:0.118" fill="#5e452c" d="M 1147.5,381.5 C 1148.21,380.596 1149.21,380.263 1150.5,380.5C 1152.69,389.782 1149.69,396.782 1141.5,401.5C 1138.38,401.232 1135.72,400.232 1133.5,398.5C 1133.84,397.662 1134.51,397.328 1135.5,397.5C 1135.39,398.117 1135.06,398.617 1134.5,399C 1141.68,399.67 1146.35,396.504 1148.5,389.5C 1149.15,388.551 1149.49,387.385 1149.5,386C 1149.69,383.992 1149.03,382.492 1147.5,381.5 Z"/></g>
<g><path style="opacity:0.416" fill="#454544" d="M 460.5,406.5 C 459.833,406.5 459.167,406.5 458.5,406.5C 454.166,391.166 447.666,376.833 439,363.5C 435.256,362.374 431.423,362.207 427.5,363C 417.508,378.118 409.508,394.284 403.5,411.5C 402.833,411.5 402.5,411.833 402.5,412.5C 401.5,412.5 400.5,412.5 399.5,412.5C 404.459,399.13 410.292,386.13 417,373.5C 419.798,368.737 422.964,364.237 426.5,360C 430.5,359.333 434.5,359.333 438.5,360C 448.784,374.113 456.118,389.613 460.5,406.5 Z"/></g>
<g><path style="opacity:0.769" fill="#3f3f3f" d="M 789.5,387.5 C 860.833,387.5 932.167,387.5 1003.5,387.5C 1004.09,393.631 1003.43,399.464 1001.5,405C 931.167,405.667 860.833,405.667 790.5,405C 790,404.5 789.5,404 789,403.5C 788.219,398.083 788.385,392.75 789.5,387.5 Z"/></g>
<g><path style="opacity:0.998" fill="#000000" d="M 791.5,389.5 C 861.167,389.5 930.833,389.5 1000.5,389.5C 1000.5,393.833 1000.5,398.167 1000.5,402.5C 930.833,402.5 861.167,402.5 791.5,402.5C 791.5,398.167 791.5,393.833 791.5,389.5 Z"/></g>
<g><path style="opacity:0.499" fill="#3a3a3a" d="M 1273.5,388.5 C 1275.08,394.136 1274.75,399.636 1272.5,405C 1234.66,405.831 1197,405.664 1159.5,404.5C 1159.33,403.508 1159.66,402.842 1160.5,402.5C 1197.5,402.5 1234.5,402.5 1271.5,402.5C 1272.17,397.833 1272.83,393.167 1273.5,388.5 Z"/></g>
<g><path style="opacity:1" fill="#ab9a91" d="M 1071.5,384.5 C 1072.96,384.433 1074.29,384.766 1075.5,385.5C 1083.6,402.885 1097.27,409.718 1116.5,406C 1127.82,403.181 1135.48,396.347 1139.5,385.5C 1140.17,385.167 1140.83,384.833 1141.5,384.5C 1140.6,388.881 1138.93,392.881 1136.5,396.5C 1135.83,396.5 1135.5,396.833 1135.5,397.5C 1134.51,397.328 1133.84,397.662 1133.5,398.5C 1115.54,412.142 1097.87,411.809 1080.5,397.5C 1076.25,394 1073.25,389.667 1071.5,384.5 Z"/></g>
<g><path style="opacity:1" fill="#543624" d="M 1075.5,385.5 C 1079.97,385.8 1082.8,388.134 1084,392.5C 1084.82,393.823 1085.98,394.489 1087.5,394.5C 1088.17,395.833 1089.17,396.833 1090.5,397.5C 1092.46,399.312 1094.79,400.312 1097.5,400.5C 1104.05,403.074 1110.72,403.074 1117.5,400.5C 1119.97,400.245 1121.97,399.245 1123.5,397.5C 1125.4,397.262 1126.74,396.262 1127.5,394.5C 1130.83,392.841 1132.5,390.175 1132.5,386.5C 1134.9,386.552 1137.24,386.219 1139.5,385.5C 1135.48,396.347 1127.82,403.181 1116.5,406C 1097.27,409.718 1083.6,402.885 1075.5,385.5 Z"/></g>
<g><path style="opacity:1" fill="#edf0ec" d="M 1117.5,400.5 C 1110.72,403.074 1104.05,403.074 1097.5,400.5C 1097.22,397.223 1097.55,394.057 1098.5,391C 1104.49,390.501 1110.49,390.334 1116.5,390.5C 1116.83,393.833 1117.17,397.167 1117.5,400.5 Z"/></g>
<g><path style="opacity:1" fill="#976868" d="M 1113.5,395.5 C 1114.04,395.56 1114.38,395.893 1114.5,396.5C 1109.16,397.487 1103.82,397.987 1098.5,398C 1103.57,396.94 1108.57,396.107 1113.5,395.5 Z"/></g>
<g><path style="opacity:1" fill="#e5eee7" d="M 1127.5,394.5 C 1126.74,396.262 1125.4,397.262 1123.5,397.5C 1123.42,394.794 1123.09,392.127 1122.5,389.5C 1126.15,389.162 1127.82,390.828 1127.5,394.5 Z"/></g>
<g><path style="opacity:1" fill="#ddebe0" d="M 1090.5,397.5 C 1089.17,396.833 1088.17,395.833 1087.5,394.5C 1088.04,392.883 1088.37,391.216 1088.5,389.5C 1089.83,389.5 1091.17,389.5 1092.5,389.5C 1092.04,392.221 1091.37,394.888 1090.5,397.5 Z"/></g>
<g><path style="opacity:0.69" fill="#756910" d="M 458.5,406.5 C 459.167,406.5 459.833,406.5 460.5,406.5C 460.5,406.833 460.5,407.167 460.5,407.5C 453.496,407.773 446.496,408.106 439.5,408.5C 439.5,408.167 439.5,407.833 439.5,407.5C 445.744,406.542 452.077,406.209 458.5,406.5 Z"/></g>
<g><path style="opacity:0.551" fill="#523529" d="M 1064.5,381.5 C 1065.17,381.5 1065.83,381.5 1066.5,381.5C 1065.83,386.947 1066.99,391.947 1070,396.5C 1073.49,399.843 1076.99,400.177 1080.5,397.5C 1097.87,411.809 1115.54,412.142 1133.5,398.5C 1135.72,400.232 1138.38,401.232 1141.5,401.5C 1138.69,402.319 1135.69,402.819 1132.5,403C 1115.93,414.289 1099.26,414.289 1082.5,403C 1068.38,402.575 1062.38,395.409 1064.5,381.5 Z"/></g>
<g><path style="opacity:0.518" fill="#4c440a" d="M 439.5,407.5 C 439.5,407.833 439.5,408.167 439.5,408.5C 436.615,408.194 433.948,408.527 431.5,409.5C 428.5,409.5 425.5,409.5 422.5,409.5C 427.944,408.116 433.611,407.45 439.5,407.5 Z"/></g>
<g><path style="opacity:0.974" fill="#dac51d" d="M 460.5,407.5 C 462.734,411.522 464.401,415.856 465.5,420.5C 463.401,417.144 461.401,413.644 459.5,410C 450.173,409.5 440.839,409.334 431.5,409.5C 433.948,408.527 436.615,408.194 439.5,408.5C 446.496,408.106 453.496,407.773 460.5,407.5 Z"/></g>
<g><path style="opacity:0.282" fill="#615709" d="M 422.5,409.5 C 415.969,410.493 409.302,411.493 402.5,412.5C 402.5,411.833 402.833,411.5 403.5,411.5C 409.689,409.9 416.022,409.233 422.5,409.5 Z"/></g>
<g><path style="opacity:1" fill="#fde302" d="M 422.5,409.5 C 425.5,409.5 428.5,409.5 431.5,409.5C 440.839,409.334 450.173,409.5 459.5,410C 461.401,413.644 463.401,417.144 465.5,420.5C 468.363,428.421 471.029,436.421 473.5,444.5C 473.286,446.144 473.62,447.644 474.5,449C 473.584,449.278 472.918,449.778 472.5,450.5C 464.994,451.574 457.661,452.907 450.5,454.5C 446.64,454.808 442.974,455.475 439.5,456.5C 428.518,458.712 417.518,460.879 406.5,463C 396.017,465.912 385.683,468.745 375.5,471.5C 372.848,471.41 370.515,472.076 368.5,473.5C 362.031,474.327 355.698,475.66 349.5,477.5C 345.2,477.755 341.2,478.755 337.5,480.5C 333.833,481.167 330.167,481.833 326.5,482.5C 323.848,482.41 321.515,483.076 319.5,484.5C 317.708,484.366 316.042,484.699 314.5,485.5C 313.833,485.5 313.167,485.5 312.5,485.5C 305.604,485.294 298.937,485.961 292.5,487.5C 291.5,487.5 290.5,487.5 289.5,487.5C 286.5,487.5 283.5,487.5 280.5,487.5C 278.353,481.686 276.52,475.686 275,469.5C 274.617,470.056 274.117,470.389 273.5,470.5C 272.945,464.28 271.445,458.28 269,452.5C 268.617,453.056 268.117,453.389 267.5,453.5C 264.702,447.438 262.702,441.104 261.5,434.5C 264.385,434.806 267.052,434.473 269.5,433.5C 275.959,432.187 282.626,431.521 289.5,431.5C 292.609,431.736 295.609,431.403 298.5,430.5C 305.043,430.001 311.377,429.001 317.5,427.5C 322.463,426.574 327.463,425.908 332.5,425.5C 340.498,424.703 348.165,423.036 355.5,420.5C 356.167,420.5 356.833,420.5 357.5,420.5C 362.5,419.833 367.5,419.167 372.5,418.5C 375.187,418.664 377.854,418.497 380.5,418C 384.637,416.934 388.637,415.767 392.5,414.5C 394.701,413.434 397.035,412.767 399.5,412.5C 400.5,412.5 401.5,412.5 402.5,412.5C 409.302,411.493 415.969,410.493 422.5,409.5 Z"/></g>
<g><path style="opacity:0.427" fill="#60560b" d="M 133.5,387.5 C 134.167,387.5 134.833,387.5 135.5,387.5C 148.679,399.247 163.012,409.247 178.5,417.5C 177.127,417.657 175.793,417.49 174.5,417C 159.041,409.609 145.374,399.776 133.5,387.5 Z"/></g>
<g><path style="opacity:0.005" fill="#000000" d="M 1104.5,412.5 C 1106.98,412.747 1106.98,413.413 1104.5,414.5C 1103.54,414.03 1103.54,413.363 1104.5,412.5 Z"/></g>
<g><path style="opacity:0.395" fill="#3c3c3c" d="M 774.5,469.5 C 773.833,469.5 773.5,469.833 773.5,470.5C 773.167,470.5 772.833,470.5 772.5,470.5C 772.167,470.5 771.833,470.5 771.5,470.5C 771.5,443.5 771.5,416.5 771.5,389.5C 757.5,389.5 743.5,389.5 729.5,389.5C 728.977,392.89 728.143,396.223 727,399.5C 713.992,429.179 701.826,459.179 690.5,489.5C 690.158,490.338 689.492,490.672 688.5,490.5C 674.838,457.184 661.171,423.851 647.5,390.5C 633.85,389.501 620.183,389.167 606.5,389.5C 606.5,436.167 606.5,482.833 606.5,529.5C 605.667,483.002 605.167,436.335 605,389.5C 604.5,438.166 604.333,486.832 604.5,535.5C 603.168,486.431 603.168,437.264 604.5,388C 619.511,387.167 634.511,387.334 649.5,388.5C 662.943,420.386 676.11,452.386 689,484.5C 702.578,452.774 715.578,420.774 728,388.5C 743.092,387.343 758.259,387.176 773.5,388C 774.495,415.093 774.828,442.259 774.5,469.5 Z"/></g>
<g><path style="opacity:1" fill="#e4d237" d="M 392.5,414.5 C 388.637,415.767 384.637,416.934 380.5,418C 377.854,418.497 375.187,418.664 372.5,418.5C 372.5,418.167 372.5,417.833 372.5,417.5C 379.064,415.86 385.73,414.86 392.5,414.5 Z"/></g>
<g><path style="opacity:0.188" fill="#464646" d="M 916.5,477.5 C 915.5,477.5 914.5,477.5 913.5,477.5C 913.355,444.199 897.022,424.366 864.5,418C 831.048,414.782 809.215,428.949 799,460.5C 798.503,463.146 798.336,465.813 798.5,468.5C 797.833,468.5 797.167,468.5 796.5,468.5C 794.5,468.5 792.5,468.5 790.5,468.5C 791.919,467.549 793.585,467.216 795.5,467.5C 802.888,430.294 825.554,413.127 863.5,416C 886.766,418.282 902.933,430.116 912,451.5C 914.467,460.003 915.967,468.67 916.5,477.5 Z M 849.5,447.5 C 858.86,445.897 866.694,448.564 873,455.5C 874.908,458.206 875.741,461.206 875.5,464.5C 861.829,464.667 848.163,464.5 834.5,464C 836.579,455.758 841.579,450.258 849.5,447.5 Z"/></g>
<g><path style="opacity:1" fill="#aba147" d="M 372.5,417.5 C 372.5,417.833 372.5,418.167 372.5,418.5C 367.5,419.167 362.5,419.833 357.5,420.5C 362.205,418.678 367.205,417.678 372.5,417.5 Z"/></g>
<g><path style="opacity:1" fill="#f7de0b" d="M 531.5,415.5 C 532.492,415.328 533.158,415.662 533.5,416.5C 538.299,419.064 543.299,421.397 548.5,423.5C 551.941,425.612 554.275,428.612 555.5,432.5C 555.302,441.727 557.302,450.394 561.5,458.5C 561.333,458.833 561.167,459.167 561,459.5C 559.549,457.536 557.716,456.203 555.5,455.5C 552.991,454.079 550.657,452.412 548.5,450.5C 546.974,448.87 544.974,448.037 542.5,448C 541.167,447.333 541.167,446.667 542.5,446C 541.309,445.302 540.309,444.469 539.5,443.5C 539.448,440.654 538.448,438.32 536.5,436.5C 536.5,436.167 536.5,435.833 536.5,435.5C 535.871,432.603 534.871,429.936 533.5,427.5C 532.196,424.288 531.196,420.955 530.5,417.5C 530.543,416.584 530.876,415.917 531.5,415.5 Z"/></g>
<g><path style="opacity:1" fill="#020201" d="M 913.5,477.5 C 912.833,477.5 912.167,477.5 911.5,477.5C 874.164,470.199 836.497,467.199 798.5,468.5C 798.336,465.813 798.503,463.146 799,460.5C 809.215,428.949 831.048,414.782 864.5,418C 897.022,424.366 913.355,444.199 913.5,477.5 Z M 849.5,447.5 C 841.579,450.258 836.579,455.758 834.5,464C 848.163,464.5 861.829,464.667 875.5,464.5C 875.741,461.206 874.908,458.206 873,455.5C 866.694,448.564 858.86,445.897 849.5,447.5 Z"/></g>
<g><path style="opacity:1" fill="#010101" d="M 1268.5,419.5 C 1256.77,432.569 1244.1,444.569 1230.5,455.5C 1220.03,446.251 1208.7,445.085 1196.5,452C 1187.9,459.563 1184.07,469.063 1185,480.5C 1185.38,481.942 1186.21,482.942 1187.5,483.5C 1187.2,486.059 1187.53,488.393 1188.5,490.5C 1194.08,503.792 1204.08,508.959 1218.5,506C 1226.65,503.499 1232.48,498.332 1236,490.5C 1238.03,480.458 1237.86,470.458 1235.5,460.5C 1248.07,450.265 1260.07,439.265 1271.5,427.5C 1272.5,462.996 1272.83,498.663 1272.5,534.5C 1260.83,534.5 1249.17,534.5 1237.5,534.5C 1237.83,529.456 1237.49,524.456 1236.5,519.5C 1224.96,532.901 1210.29,538.401 1192.5,536C 1174.41,532.411 1162.41,521.911 1156.5,504.5C 1156.74,503.209 1156.4,502.209 1155.5,501.5C 1155.5,500.167 1155.5,498.833 1155.5,497.5C 1154.5,497.5 1153.5,497.5 1152.5,497.5C 1149.47,482.052 1149.97,466.719 1154,451.5C 1166.93,422.513 1188.76,412.347 1219.5,421C 1225.93,424.548 1231.6,429.048 1236.5,434.5C 1237.49,429.544 1237.83,424.544 1237.5,419.5C 1247.83,419.5 1258.17,419.5 1268.5,419.5 Z M 1227.5,456.5 C 1223.52,459.152 1219.85,462.152 1216.5,465.5C 1212.15,467.673 1208.15,470.34 1204.5,473.5C 1199.23,476.11 1194.23,479.11 1189.5,482.5C 1188.83,482.5 1188.17,482.5 1187.5,482.5C 1185.74,459.762 1196.07,449.262 1218.5,451C 1222.18,451.872 1225.18,453.706 1227.5,456.5 Z M 1233.5,464.5 C 1236.43,474.011 1235.93,483.344 1232,492.5C 1223.23,505.117 1212.07,507.951 1198.5,501C 1195.46,498.297 1192.8,495.297 1190.5,492C 1191.42,491.722 1192.08,491.222 1192.5,490.5C 1199.1,487.225 1205.43,483.558 1211.5,479.5C 1218.83,474.5 1226.17,469.5 1233.5,464.5 Z"/></g>
<g><path style="opacity:0.341" fill="#544a0d" d="M 178.5,417.5 C 181.38,417.94 184.046,418.94 186.5,420.5C 186.5,420.833 186.5,421.167 186.5,421.5C 183.148,421.47 180.482,420.137 178.5,417.5 Z"/></g>
<g><path style="opacity:0.161" fill="#544a09" d="M 533.5,416.5 C 534.167,416.5 534.833,416.5 535.5,416.5C 546.489,418.557 554.322,424.557 559,434.5C 559.027,444.434 561.527,453.6 566.5,462C 563.632,465.268 561.298,464.768 559.5,460.5C 560.967,461.292 562.3,461.292 563.5,460.5C 562.477,456.923 560.977,453.589 559,450.5C 558.597,445.133 557.93,439.799 557,434.5C 556.722,433.584 556.222,432.918 555.5,432.5C 554.275,428.612 551.941,425.612 548.5,423.5C 543.299,421.397 538.299,419.064 533.5,416.5 Z"/></g>
<g><path style="opacity:0.418" fill="#494949" d="M 1018.5,380.5 C 1019.49,380.328 1020.16,380.662 1020.5,381.5C 1020.83,399.179 1020.5,416.846 1019.5,434.5C 1002.61,416.863 982.94,413.03 960.5,423C 939.322,436.637 930.322,456.137 933.5,481.5C 932.391,481.443 931.391,481.11 930.5,480.5C 929.264,463.097 933.764,447.431 944,433.5C 964.941,413.081 988.108,410.248 1013.5,425C 1014.67,426.833 1016.17,428.333 1018,429.5C 1018.5,413.17 1018.67,396.837 1018.5,380.5 Z"/></g>
<g><path style="opacity:1" fill="#359c22" d="M 1268.5,419.5 C 1270.62,419.325 1272.62,419.659 1274.5,420.5C 1275.83,422.167 1275.83,423.833 1274.5,425.5C 1273.29,425.932 1272.29,426.599 1271.5,427.5C 1260.07,439.265 1248.07,450.265 1235.5,460.5C 1234.83,460.833 1234.17,461.167 1233.5,461.5C 1233.17,461.5 1232.83,461.5 1232.5,461.5C 1232.08,460.778 1231.42,460.278 1230.5,460C 1231.71,459.107 1231.71,458.274 1230.5,457.5C 1229.38,458.63 1228.04,459.297 1226.5,459.5C 1227.17,458.5 1227.83,457.5 1228.5,456.5C 1229.49,456.672 1230.16,456.338 1230.5,455.5C 1244.1,444.569 1256.77,432.569 1268.5,419.5 Z"/></g>
<g><path style="opacity:1" fill="#d4c541" d="M 355.5,420.5 C 348.165,423.036 340.498,424.703 332.5,425.5C 332.5,425.167 332.5,424.833 332.5,424.5C 333.492,424.672 334.158,424.338 334.5,423.5C 341.485,422.407 348.485,421.407 355.5,420.5 Z"/></g>
<g><path style="opacity:0.584" fill="#5c5c5c" d="M 1122.5,420.5 C 1111.5,421.167 1100.5,421.833 1089.5,422.5C 1089.5,450.833 1089.5,479.167 1089.5,507.5C 1088.83,507.5 1088.17,507.5 1087.5,507.5C 1087.5,506.833 1087.17,506.5 1086.5,506.5C 1086.33,478.165 1086.5,449.831 1087,421.5C 1098.75,420.512 1110.59,420.179 1122.5,420.5 Z"/></g>
<g><path style="opacity:1" fill="#010101" d="M 1089.5,422.5 C 1100.83,422.5 1112.17,422.5 1123.5,422.5C 1123.5,449.833 1123.5,477.167 1123.5,504.5C 1123.5,505.167 1123.17,505.5 1122.5,505.5C 1111.54,506.755 1100.54,507.421 1089.5,507.5C 1089.5,479.167 1089.5,450.833 1089.5,422.5 Z"/></g>
<g><path style="opacity:0.102" fill="#515251" d="M 1122.5,420.5 C 1123.5,420.414 1124.33,420.748 1125,421.5C 1125.5,448.831 1125.67,476.165 1125.5,503.5C 1125.5,503.833 1125.5,504.167 1125.5,504.5C 1124.83,504.5 1124.17,504.5 1123.5,504.5C 1123.5,477.167 1123.5,449.833 1123.5,422.5C 1112.17,422.5 1100.83,422.5 1089.5,422.5C 1100.5,421.833 1111.5,421.167 1122.5,420.5 Z"/></g>
<g><path style="opacity:0.518" fill="#665a0d" d="M 331.5,424.5 C 331.833,424.5 332.167,424.5 332.5,424.5C 332.5,424.833 332.5,425.167 332.5,425.5C 327.463,425.908 322.463,426.574 317.5,427.5C 316.167,427.5 314.833,427.5 313.5,427.5C 319.209,425.495 325.209,424.495 331.5,424.5 Z"/></g>
<g><path style="opacity:0.012" fill="#605608" d="M 12.5,395.5 C 21.473,412.806 34.473,426.139 51.5,435.5C 50.8333,435.5 50.1667,435.5 49.5,435.5C 33.0874,426.755 20.7541,414.088 12.5,397.5C 12.5,396.833 12.5,396.167 12.5,395.5 Z"/></g>
<g><path style="opacity:0.463" fill="#75690e" d="M 313.5,427.5 C 314.833,427.5 316.167,427.5 317.5,427.5C 311.377,429.001 305.043,430.001 298.5,430.5C 298.5,430.167 298.5,429.833 298.5,429.5C 303.467,428.689 308.467,428.022 313.5,427.5 Z"/></g>
<g><path style="opacity:0.69" fill="#554e0d" d="M 298.5,429.5 C 298.5,429.833 298.5,430.167 298.5,430.5C 295.609,431.403 292.609,431.736 289.5,431.5C 292.273,430.343 295.273,429.676 298.5,429.5 Z"/></g>
<g><path style="opacity:1" fill="#534f2e" d="M 533.5,427.5 C 534.871,429.936 535.871,432.603 536.5,435.5C 534.345,433.383 533.345,430.716 533.5,427.5 Z"/></g>
<g><path style="opacity:1" fill="#010100" d="M 51.5,436.5 C 68.8526,445.964 86.8526,454.297 105.5,461.5C 97.3741,488.041 85.8741,513.041 71,536.5C 65.7355,539.945 59.9022,541.778 53.5,542C 48.0958,542.772 42.7625,542.439 37.5,541C 34.5665,538.736 32.3999,535.902 31,532.5C 30.3333,525.167 30.3333,517.833 31,510.5C 37.2176,485.626 44.0509,460.959 51.5,436.5 Z"/></g>
<g><path style="opacity:1" fill="#9f9644" d="M 536.5,436.5 C 538.448,438.32 539.448,440.654 539.5,443.5C 537.935,441.491 536.935,439.157 536.5,436.5 Z"/></g>
<g><path style="opacity:0.439" fill="#474847" d="M 1274.5,420.5 C 1272.62,419.659 1270.62,419.325 1268.5,419.5C 1258.17,419.5 1247.83,419.5 1237.5,419.5C 1237.83,424.544 1237.49,429.544 1236.5,434.5C 1231.6,429.048 1225.93,424.548 1219.5,421C 1188.76,412.347 1166.93,422.513 1154,451.5C 1149.97,466.719 1149.47,482.052 1152.5,497.5C 1153.5,497.5 1154.5,497.5 1155.5,497.5C 1155.5,498.833 1155.5,500.167 1155.5,501.5C 1155.17,501.5 1154.83,501.5 1154.5,501.5C 1154.5,500.5 1154.5,499.5 1154.5,498.5C 1153.5,498.5 1152.5,498.5 1151.5,498.5C 1151.17,498.5 1150.83,498.5 1150.5,498.5C 1142.46,469.808 1149.13,445.308 1170.5,425C 1188.6,413.634 1207.27,412.634 1226.5,422C 1229.63,424.128 1232.46,426.628 1235,429.5C 1235.5,425.514 1235.67,421.514 1235.5,417.5C 1248.5,417.5 1261.5,417.5 1274.5,417.5C 1274.5,418.5 1274.5,419.5 1274.5,420.5 Z"/></g>
<g><path style="opacity:1" fill="#c4b640" d="M 473.5,444.5 C 474.167,445.5 474.833,446.5 475.5,447.5C 475.737,448.791 475.404,449.791 474.5,450.5C 473.833,450.5 473.167,450.5 472.5,450.5C 472.918,449.778 473.584,449.278 474.5,449C 473.62,447.644 473.286,446.144 473.5,444.5 Z"/></g>
<g><path style="opacity:0.714" fill="#ad9f2c" d="M 539.5,443.5 C 540.309,444.469 541.309,445.302 542.5,446C 541.167,446.667 541.167,447.333 542.5,448C 544.974,448.037 546.974,448.87 548.5,450.5C 548.167,450.5 547.833,450.5 547.5,450.5C 546.609,449.89 545.609,449.557 544.5,449.5C 540.991,449.192 539.324,447.192 539.5,443.5 Z"/></g>
<g><path style="opacity:0.294" fill="#414141" d="M 850.5,444.5 C 862.821,443.243 871.987,447.909 878,458.5C 878.497,461.146 878.664,463.813 878.5,466.5C 862.833,466.5 847.167,466.5 831.5,466.5C 832.837,454.831 839.171,447.497 850.5,444.5 Z M 849.5,447.5 C 841.579,450.258 836.579,455.758 834.5,464C 848.163,464.5 861.829,464.667 875.5,464.5C 875.741,461.206 874.908,458.206 873,455.5C 866.694,448.564 858.86,445.897 849.5,447.5 Z"/></g>
<g><path style="opacity:0.992" fill="#bdaa08" d="M 555.5,432.5 C 556.222,432.918 556.722,433.584 557,434.5C 557.93,439.799 558.597,445.133 559,450.5C 560.977,453.589 562.477,456.923 563.5,460.5C 562.3,461.292 560.967,461.292 559.5,460.5C 558.167,458.833 556.833,457.167 555.5,455.5C 557.716,456.203 559.549,457.536 561,459.5C 561.167,459.167 561.333,458.833 561.5,458.5C 557.302,450.394 555.302,441.727 555.5,432.5 Z"/></g>
<g><path style="opacity:0.22" fill="#72670a" d="M 472.5,450.5 C 473.167,450.5 473.833,450.5 474.5,450.5C 474.5,451.167 474.5,451.833 474.5,452.5C 468.875,453.493 463.208,454.16 457.5,454.5C 455.167,454.5 452.833,454.5 450.5,454.5C 457.661,452.907 464.994,451.574 472.5,450.5 Z"/></g>
<g><path style="opacity:0.165" fill="#453908" d="M 450.5,454.5 C 452.833,454.5 455.167,454.5 457.5,454.5C 454.727,455.657 451.727,456.324 448.5,456.5C 449.167,455.833 449.833,455.167 450.5,454.5 Z"/></g>
<g><path style="opacity:0.071" fill="#4c4407" d="M 547.5,450.5 C 547.833,450.5 548.167,450.5 548.5,450.5C 550.657,452.412 552.991,454.079 555.5,455.5C 556.833,457.167 558.167,458.833 559.5,460.5C 555.852,457.858 552.185,455.191 548.5,452.5C 548.167,451.833 547.833,451.167 547.5,450.5 Z"/></g>
<g><path style="opacity:0.819" fill="#565756" d="M 644.5,453.5 C 644.672,454.492 644.338,455.158 643.5,455.5C 642.501,472.756 642.168,490.756 642.5,509.5C 642.167,510.167 641.833,510.833 641.5,511.5C 641.167,511.5 640.833,511.5 640.5,511.5C 640.167,490.156 640.5,468.823 641.5,447.5C 642.208,449.745 643.208,451.745 644.5,453.5 Z"/></g>
<g><path style="opacity:0.184" fill="#8d7f0e" d="M 450.5,454.5 C 449.833,455.167 449.167,455.833 448.5,456.5C 445.5,456.5 442.5,456.5 439.5,456.5C 442.974,455.475 446.64,454.808 450.5,454.5 Z"/></g>
<g><path style="opacity:0.008" fill="#000000" d="M 643.5,455.5 C 643.557,456.609 643.89,457.609 644.5,458.5C 643.503,474.992 643.17,491.658 643.5,508.5C 643.5,509.167 643.167,509.5 642.5,509.5C 642.168,490.756 642.501,472.756 643.5,455.5 Z"/></g>
<g><path style="opacity:0.999" fill="#239b0c" d="M 1232.5,461.5 C 1226.26,466.966 1219.59,471.966 1212.5,476.5C 1211.61,477.325 1211.28,478.325 1211.5,479.5C 1209.8,479.34 1208.13,479.506 1206.5,480C 1200.74,483.538 1195.07,487.038 1189.5,490.5C 1189.17,490.5 1188.83,490.5 1188.5,490.5C 1188.28,487.721 1188.61,485.054 1189.5,482.5C 1195.4,480.781 1200.4,477.781 1204.5,473.5C 1209.2,471.822 1213.2,469.156 1216.5,465.5C 1217.87,465.657 1219.21,465.49 1220.5,465C 1222.2,462.668 1224.2,460.835 1226.5,459.5C 1228.04,459.297 1229.38,458.63 1230.5,457.5C 1231.71,458.274 1231.71,459.107 1230.5,460C 1231.42,460.278 1232.08,460.778 1232.5,461.5 Z"/></g>
<g><path style="opacity:1" fill="#e5d235" d="M 273.5,470.5 C 271.523,464.907 269.523,459.241 267.5,453.5C 268.117,453.389 268.617,453.056 269,452.5C 271.445,458.28 272.945,464.28 273.5,470.5 Z"/></g>
<g><path style="opacity:0.682" fill="#404040" d="M 644.5,453.5 C 651.063,469.214 657.396,484.881 663.5,500.5C 662.791,501.404 661.791,501.737 660.5,501.5C 660.167,501.5 659.833,501.5 659.5,501.5C 654.652,487.106 649.652,472.773 644.5,458.5C 643.89,457.609 643.557,456.609 643.5,455.5C 644.338,455.158 644.672,454.492 644.5,453.5 Z"/></g>
<g><path style="opacity:0.153" fill="#444444" d="M 737.5,476.5 C 736.5,476.5 735.5,476.5 734.5,476.5C 734.666,470.824 734.499,465.157 734,459.5C 731.534,465.424 729.368,471.424 727.5,477.5C 726.306,478.272 725.306,479.272 724.5,480.5C 723.833,480.5 723.167,480.5 722.5,480.5C 726.599,471.476 730.099,462.143 733,452.5C 733.687,450.445 734.854,448.779 736.5,447.5C 737.498,457.144 737.832,466.81 737.5,476.5 Z"/></g>
<g><path style="opacity:0.504" fill="#434343" d="M 1230.5,455.5 C 1230.16,456.338 1229.49,456.672 1228.5,456.5C 1228.17,456.5 1227.83,456.5 1227.5,456.5C 1225.18,453.706 1222.18,451.872 1218.5,451C 1196.07,449.262 1185.74,459.762 1187.5,482.5C 1187.5,482.833 1187.5,483.167 1187.5,483.5C 1186.21,482.942 1185.38,481.942 1185,480.5C 1184.07,469.063 1187.9,459.563 1196.5,452C 1208.7,445.085 1220.03,446.251 1230.5,455.5 Z"/></g>
<g><path style="opacity:0.953" fill="#146706" d="M 1227.5,456.5 C 1227.83,456.5 1228.17,456.5 1228.5,456.5C 1227.83,457.5 1227.17,458.5 1226.5,459.5C 1224.2,460.835 1222.2,462.668 1220.5,465C 1219.21,465.49 1217.87,465.657 1216.5,465.5C 1219.85,462.152 1223.52,459.152 1227.5,456.5 Z"/></g>
<g><path style="opacity:0.251" fill="#115706" d="M 1232.5,461.5 C 1232.83,461.5 1233.17,461.5 1233.5,461.5C 1233.5,462.5 1233.5,463.5 1233.5,464.5C 1226.17,469.5 1218.83,474.5 1211.5,479.5C 1211.28,478.325 1211.61,477.325 1212.5,476.5C 1219.59,471.966 1226.26,466.966 1232.5,461.5 Z"/></g>
<g><path style="opacity:0.349" fill="#424342" d="M 1014.5,499.5 C 1013.39,499.443 1012.39,499.11 1011.5,498.5C 1011.5,498.167 1011.5,497.833 1011.5,497.5C 1017.73,488.357 1019.56,478.357 1017,467.5C 1009.75,450.409 997.579,445.909 980.5,454C 970.306,464.242 967.639,476.076 972.5,489.5C 971.167,489.5 970.5,490.167 970.5,491.5C 967.641,484.204 966.808,476.537 968,468.5C 970.726,458.106 977.226,451.273 987.5,448C 1011.8,447.307 1022.63,459.14 1020,483.5C 1019.6,489.137 1017.43,493.971 1013.5,498C 1014.06,498.383 1014.39,498.883 1014.5,499.5 Z"/></g>
<g><path style="opacity:0.318" fill="#6f630f" d="M 439.5,456.5 C 442.5,456.5 445.5,456.5 448.5,456.5C 426.603,461.472 404.603,466.472 382.5,471.5C 381.5,471.5 380.5,471.5 379.5,471.5C 378.167,471.5 376.833,471.5 375.5,471.5C 385.683,468.745 396.017,465.912 406.5,463C 417.518,460.879 428.518,458.712 439.5,456.5 Z"/></g>
<g><path style="opacity:0.318" fill="#0d5902" d="M 790.5,468.5 C 792.5,468.5 794.5,468.5 796.5,468.5C 789.031,469.762 781.365,470.429 773.5,470.5C 773.5,469.833 773.833,469.5 774.5,469.5C 779.813,468.902 785.146,468.569 790.5,468.5 Z"/></g>
<g><path style="opacity:0.22" fill="#095701" d="M 1216.5,465.5 C 1213.2,469.156 1209.2,471.822 1204.5,473.5C 1208.15,470.34 1212.15,467.673 1216.5,465.5 Z"/></g>
<g><path style="opacity:1" fill="#35a020" d="M 911.5,477.5 C 917.326,478.78 923.326,479.78 929.5,480.5C 929.833,480.5 930.167,480.5 930.5,480.5C 931.391,481.11 932.391,481.443 933.5,481.5C 935.545,483.696 935.878,486.03 934.5,488.5C 933.833,488.5 933.167,488.5 932.5,488.5C 926.669,487.271 920.669,486.271 914.5,485.5C 914.158,484.662 913.492,484.328 912.5,484.5C 889.058,479.855 865.392,476.855 841.5,475.5C 826.676,474.504 811.676,474.171 796.5,474.5C 788.482,474.986 780.482,475.653 772.5,476.5C 772.5,474.5 772.5,472.5 772.5,470.5C 772.833,470.5 773.167,470.5 773.5,470.5C 781.365,470.429 789.031,469.762 796.5,468.5C 797.167,468.5 797.833,468.5 798.5,468.5C 836.497,467.199 874.164,470.199 911.5,477.5 Z"/></g>
<g><path style="opacity:1" fill="#52502e" d="M 375.5,471.5 C 373.485,472.924 371.152,473.59 368.5,473.5C 370.515,472.076 372.848,471.41 375.5,471.5 Z"/></g>
<g><path style="opacity:1" fill="#010101" d="M 375.5,471.5 C 376.833,471.5 378.167,471.5 379.5,471.5C 372.15,494.732 361.65,516.398 348,536.5C 342.691,539.756 336.857,541.589 330.5,542C 325.096,542.772 319.762,542.439 314.5,541C 312.291,539.127 310.458,536.96 309,534.5C 307.485,527.233 307.152,519.899 308,512.5C 309.724,503.379 311.89,494.379 314.5,485.5C 316.042,484.699 317.708,484.366 319.5,484.5C 322.152,484.59 324.485,483.924 326.5,482.5C 330.167,481.833 333.833,481.167 337.5,480.5C 341.163,480.048 344.83,479.548 348.5,479C 349.056,478.617 349.389,478.117 349.5,477.5C 355.698,475.66 362.031,474.327 368.5,473.5C 371.152,473.59 373.485,472.924 375.5,471.5 Z"/></g>
<g><path style="opacity:0.761" fill="#ac9b10" d="M 143.5,473.5 C 145.898,473.259 147.898,473.926 149.5,475.5C 147.102,475.741 145.102,475.074 143.5,473.5 Z"/></g>
<g><path style="opacity:0.21" fill="#136805" d="M 771.5,470.5 C 771.833,470.5 772.167,470.5 772.5,470.5C 772.5,472.5 772.5,474.5 772.5,476.5C 780.482,475.653 788.482,474.986 796.5,474.5C 796.167,475.167 795.833,475.833 795.5,476.5C 793.585,476.216 791.919,476.549 790.5,477.5C 785.155,477.687 779.822,478.02 774.5,478.5C 773.609,477.89 772.609,477.557 771.5,477.5C 771.5,475.167 771.5,472.833 771.5,470.5 Z"/></g>
<g><path style="opacity:1" fill="#020202" d="M 841.5,475.5 C 865.392,476.855 889.058,479.855 912.5,484.5C 885.672,485.498 858.672,485.831 831.5,485.5C 832.646,501.818 841.312,509.318 857.5,508C 855.292,507.809 853.292,507.309 851.5,506.5C 853.833,506.5 856.167,506.5 858.5,506.5C 865.267,507.437 870.267,504.604 873.5,498C 885.495,497.5 897.495,497.333 909.5,497.5C 903.142,519.684 888.475,532.518 865.5,536C 832.394,540.058 810.561,526.558 800,495.5C 799.002,488.846 798.168,482.179 797.5,475.5C 812.167,475.5 826.833,475.5 841.5,475.5 Z"/></g>
<g><path style="opacity:0.005" fill="#000000" d="M 790.5,477.5 C 791.919,476.549 793.585,476.216 795.5,476.5C 795.5,477.833 795.5,479.167 795.5,480.5C 794.596,479.791 794.263,478.791 794.5,477.5C 793.167,477.5 791.833,477.5 790.5,477.5 Z"/></g>
<g><path style="opacity:0.271" fill="#246318" d="M 734.5,476.5 C 735.5,476.5 736.5,476.5 737.5,476.5C 738.833,478.833 738.833,481.167 737.5,483.5C 737.5,481.5 737.5,479.5 737.5,477.5C 732.957,477.606 728.624,478.606 724.5,480.5C 725.306,479.272 726.306,478.272 727.5,477.5C 729.806,477.007 732.139,476.674 734.5,476.5 Z"/></g>
<g><path style="opacity:0.871" fill="#136005" d="M 1204.5,473.5 C 1200.4,477.781 1195.4,480.781 1189.5,482.5C 1194.23,479.11 1199.23,476.11 1204.5,473.5 Z"/></g>
<g><path style="opacity:0.361" fill="#14510b" d="M 911.5,477.5 C 912.167,477.5 912.833,477.5 913.5,477.5C 914.5,477.5 915.5,477.5 916.5,477.5C 921.092,477.882 925.425,478.882 929.5,480.5C 923.326,479.78 917.326,478.78 911.5,477.5 Z"/></g>
<g><path style="opacity:0.043" fill="#625708" d="M 106.5,461.5 C 118.759,465.751 131.093,469.751 143.5,473.5C 145.102,475.074 147.102,475.741 149.5,475.5C 155.662,477.599 161.995,478.932 168.5,479.5C 172.355,482.035 176.688,483.035 181.5,482.5C 189.232,485.296 197.232,486.629 205.5,486.5C 207.167,487.167 208.833,487.833 210.5,488.5C 210.5,489.167 210.167,489.5 209.5,489.5C 175.202,484.926 141.869,476.592 109.5,464.5C 108.306,463.728 107.306,462.728 106.5,461.5 Z"/></g>
<g><path style="opacity:1" fill="#444125" d="M 349.5,477.5 C 349.389,478.117 349.056,478.617 348.5,479C 344.83,479.548 341.163,480.048 337.5,480.5C 341.2,478.755 345.2,477.755 349.5,477.5 Z"/></g>
<g><path style="opacity:0.922" fill="#c3af11" d="M 168.5,479.5 C 172.985,480.34 177.319,481.34 181.5,482.5C 176.688,483.035 172.355,482.035 168.5,479.5 Z"/></g>
<g><path style="opacity:1" fill="#329f1d" d="M 737.5,483.5 C 737.167,483.5 736.833,483.5 736.5,483.5C 730.292,484.797 724.292,486.464 718.5,488.5C 700.883,493.142 683.883,499.142 667.5,506.5C 665.847,506.66 664.514,507.326 663.5,508.5C 660.521,509.654 657.521,510.82 654.5,512C 655.056,512.383 655.389,512.883 655.5,513.5C 649.263,513.292 643.93,515.292 639.5,519.5C 638.508,519.328 637.842,519.662 637.5,520.5C 629.173,524.328 621.173,528.662 613.5,533.5C 612.833,533.833 612.167,534.167 611.5,534.5C 607.5,535.167 605.833,533.5 606.5,529.5C 617.544,522.978 628.877,516.978 640.5,511.5C 640.833,511.5 641.167,511.5 641.5,511.5C 648.271,508.916 654.605,505.583 660.5,501.5C 661.791,501.737 662.791,501.404 663.5,500.5C 671.845,497.164 680.178,493.83 688.5,490.5C 689.492,490.672 690.158,490.338 690.5,489.5C 697.376,487.097 704.376,485.097 711.5,483.5C 714.152,483.59 716.485,482.924 718.5,481.5C 719.833,481.167 721.167,480.833 722.5,480.5C 723.167,480.5 723.833,480.5 724.5,480.5C 728.624,478.606 732.957,477.606 737.5,477.5C 737.5,479.5 737.5,481.5 737.5,483.5 Z"/></g>
<g><path style="opacity:1" fill="#4c8040" d="M 718.5,481.5 C 716.485,482.924 714.152,483.59 711.5,483.5C 713.515,482.076 715.848,481.41 718.5,481.5 Z"/></g>
<g><path style="opacity:1" fill="#55512d" d="M 326.5,482.5 C 324.485,483.924 322.152,484.59 319.5,484.5C 321.515,483.076 323.848,482.41 326.5,482.5 Z"/></g>
<g><path style="opacity:1" fill="#d5c32c" d="M 289.5,487.5 C 286.689,488.475 283.689,489.142 280.5,489.5C 278.901,489.768 277.568,489.434 276.5,488.5C 277.478,488.189 278.145,487.522 278.5,486.5C 276.419,481.258 274.752,475.925 273.5,470.5C 274.117,470.389 274.617,470.056 275,469.5C 276.52,475.686 278.353,481.686 280.5,487.5C 283.5,487.5 286.5,487.5 289.5,487.5 Z"/></g>
<g><path style="opacity:0.286" fill="#7a6b0c" d="M 312.5,485.5 C 312.5,485.833 312.5,486.167 312.5,486.5C 311.833,486.5 311.5,486.833 311.5,487.5C 306.833,487.833 302.167,488.167 297.5,488.5C 296.081,487.549 294.415,487.216 292.5,487.5C 298.937,485.961 305.604,485.294 312.5,485.5 Z"/></g>
<g><path style="opacity:0.031" fill="#1f1f1f" d="M 733.5,486.5 C 733.842,485.662 734.508,485.328 735.5,485.5C 735.5,502.167 735.5,518.833 735.5,535.5C 734.833,519.167 734.167,502.833 733.5,486.5 Z"/></g>
<g><path style="opacity:0.353" fill="#595a59" d="M 736.5,483.5 C 736.833,483.5 737.167,483.5 737.5,483.5C 737.5,500.5 737.5,517.5 737.5,534.5C 737.158,535.338 736.492,535.672 735.5,535.5C 735.5,518.833 735.5,502.167 735.5,485.5C 735.833,484.833 736.167,484.167 736.5,483.5 Z"/></g>
<g><path style="opacity:0.996" fill="#38702d" d="M 1187.5,482.5 C 1188.17,482.5 1188.83,482.5 1189.5,482.5C 1188.61,485.054 1188.28,487.721 1188.5,490.5C 1187.53,488.393 1187.2,486.059 1187.5,483.5C 1187.5,483.167 1187.5,482.833 1187.5,482.5 Z"/></g>
<g><path style="opacity:1" fill="#dfcc36" d="M 206.5,469.5 C 208.802,474.698 210.802,480.031 212.5,485.5C 212.715,487.179 212.048,488.179 210.5,488.5C 208.833,487.833 207.167,487.167 205.5,486.5C 207.167,486.5 208.833,486.5 210.5,486.5C 208.213,481.149 206.88,475.482 206.5,469.5 Z"/></g>
<g><path style="opacity:0.024" fill="#535353" d="M 912.5,484.5 C 913.492,484.328 914.158,484.662 914.5,485.5C 914.5,485.833 914.5,486.167 914.5,486.5C 888.005,487.498 861.339,487.831 834.5,487.5C 835.678,498.004 841.345,504.338 851.5,506.5C 853.292,507.309 855.292,507.809 857.5,508C 841.312,509.318 832.646,501.818 831.5,485.5C 858.672,485.831 885.672,485.498 912.5,484.5 Z"/></g>
<g><path style="opacity:0.02" fill="#1f6313" d="M 736.5,483.5 C 736.167,484.167 735.833,484.833 735.5,485.5C 734.508,485.328 733.842,485.662 733.5,486.5C 730.167,487.167 726.833,487.833 723.5,488.5C 722.167,488.5 720.833,488.5 719.5,488.5C 719.167,488.5 718.833,488.5 718.5,488.5C 724.292,486.464 730.292,484.797 736.5,483.5 Z"/></g>
<g><path style="opacity:0.098" fill="#0b4f04" d="M 914.5,486.5 C 914.5,486.167 914.5,485.833 914.5,485.5C 920.669,486.271 926.669,487.271 932.5,488.5C 931.833,488.5 931.5,488.833 931.5,489.5C 925.807,488.607 920.14,487.607 914.5,486.5 Z"/></g>
<g><path style="opacity:0.012" fill="#0f5e04" d="M 1211.5,479.5 C 1205.43,483.558 1199.1,487.225 1192.5,490.5C 1191.5,490.5 1190.5,490.5 1189.5,490.5C 1195.07,487.038 1200.74,483.538 1206.5,480C 1208.13,479.506 1209.8,479.34 1211.5,479.5 Z"/></g>
<g><path style="opacity:0.024" fill="#5a5207" d="M 289.5,487.5 C 290.5,487.5 291.5,487.5 292.5,487.5C 294.415,487.216 296.081,487.549 297.5,488.5C 292.289,489.815 286.956,490.482 281.5,490.5C 280.833,490.5 280.5,490.167 280.5,489.5C 283.689,489.142 286.689,488.475 289.5,487.5 Z"/></g>
<g><path style="opacity:1" fill="#020302" d="M 718.5,488.5 C 718.833,488.5 719.167,488.5 719.5,488.5C 713.97,503.725 708.303,518.892 702.5,534C 693.167,534.667 683.833,534.667 674.5,534C 671.382,526.527 668.715,518.86 666.5,511C 666.605,509.408 666.939,507.908 667.5,506.5C 683.883,499.142 700.883,493.142 718.5,488.5 Z"/></g>
<g><path style="opacity:0.69" fill="#146407" d="M 972.5,489.5 C 978.664,490.632 984.664,491.965 990.5,493.5C 984.373,494.081 978.539,493.081 973,490.5C 971.97,490.836 971.47,491.503 971.5,492.5C 970.833,492.5 970.5,492.167 970.5,491.5C 970.5,490.167 971.167,489.5 972.5,489.5 Z"/></g>
<g><path style="opacity:0.204" fill="#454645" d="M 1235.5,460.5 C 1237.86,470.458 1238.03,480.458 1236,490.5C 1232.48,498.332 1226.65,503.499 1218.5,506C 1204.08,508.959 1194.08,503.792 1188.5,490.5C 1188.83,490.5 1189.17,490.5 1189.5,490.5C 1190.5,490.5 1191.5,490.5 1192.5,490.5C 1192.08,491.222 1191.42,491.722 1190.5,492C 1192.8,495.297 1195.46,498.297 1198.5,501C 1212.07,507.951 1223.23,505.117 1232,492.5C 1235.93,483.344 1236.43,474.011 1233.5,464.5C 1233.5,463.5 1233.5,462.5 1233.5,461.5C 1234.17,461.167 1234.83,460.833 1235.5,460.5 Z"/></g>
<g><path style="opacity:0.573" fill="#105b05" d="M 990.5,493.5 C 997.516,494.752 1004.52,496.085 1011.5,497.5C 1011.5,497.833 1011.5,498.167 1011.5,498.5C 1005.81,497.885 1000.14,497.052 994.5,496C 992.68,495.8 991.347,494.966 990.5,493.5 Z"/></g>
<g><path style="opacity:0.192" fill="#125d06" d="M 977.5,498.5 C 987.143,499.657 996.477,501.657 1005.5,504.5C 1002.39,504.736 999.391,504.403 996.5,503.5C 992.821,503.276 989.154,502.942 985.5,502.5C 985.158,501.662 984.492,501.328 983.5,501.5C 981.371,500.797 979.371,499.797 977.5,498.5 Z"/></g>
<g><path style="opacity:0.137" fill="#106004" d="M 659.5,501.5 C 659.833,501.5 660.167,501.5 660.5,501.5C 654.605,505.583 648.271,508.916 641.5,511.5C 641.833,510.833 642.167,510.167 642.5,509.5C 643.167,509.5 643.5,509.167 643.5,508.5C 648.833,506.167 654.167,503.833 659.5,501.5 Z"/></g>
<g><path style="opacity:0.952" fill="#343734" d="M 974.5,497.5 C 975.609,497.557 976.609,497.89 977.5,498.5C 979.371,499.797 981.371,500.797 983.5,501.5C 983.842,502.338 984.508,502.672 985.5,502.5C 988.268,503.867 991.268,504.867 994.5,505.5C 995.522,505.145 996.189,504.478 996.5,503.5C 999.391,504.403 1002.39,504.736 1005.5,504.5C 1007.74,504.205 1009.74,504.539 1011.5,505.5C 1003.84,506.343 996.172,506.843 988.5,507C 982.935,505.059 978.268,501.892 974.5,497.5 Z"/></g>
<g><path style="opacity:1" fill="#2ca016" d="M 990.5,493.5 C 991.347,494.966 992.68,495.8 994.5,496C 1000.14,497.052 1005.81,497.885 1011.5,498.5C 1012.39,499.11 1013.39,499.443 1014.5,499.5C 1015.5,499.5 1016.5,499.5 1017.5,499.5C 1020.22,500.913 1023.22,501.58 1026.5,501.5C 1035.13,503.303 1043.79,504.637 1052.5,505.5C 1063.93,507.447 1075.6,508.447 1087.5,508.5C 1096.51,508.666 1105.51,508.5 1114.5,508C 1117.31,507.218 1119.98,506.384 1122.5,505.5C 1123.17,505.5 1123.5,505.167 1123.5,504.5C 1124.17,504.5 1124.83,504.5 1125.5,504.5C 1134.79,504.594 1143.45,502.594 1151.5,498.5C 1152.5,498.5 1153.5,498.5 1154.5,498.5C 1154.5,499.5 1154.5,500.5 1154.5,501.5C 1153.88,503.335 1152.54,504.502 1150.5,505C 1143.99,506.628 1137.65,508.461 1131.5,510.5C 1124.97,511.103 1118.64,512.103 1112.5,513.5C 1104.85,514.07 1097.18,514.404 1089.5,514.5C 1089.17,514.5 1088.83,514.5 1088.5,514.5C 1074.96,513.74 1061.29,512.74 1047.5,511.5C 1035.44,509.826 1023.44,507.826 1011.5,505.5C 1009.74,504.539 1007.74,504.205 1005.5,504.5C 996.477,501.657 987.143,499.657 977.5,498.5C 976.609,497.89 975.609,497.557 974.5,497.5C 972.273,496.599 971.273,494.933 971.5,492.5C 971.47,491.503 971.97,490.836 973,490.5C 978.539,493.081 984.373,494.081 990.5,493.5 Z"/></g>
<g><path style="opacity:0.645" fill="#186e08" d="M 1052.5,505.5 C 1053.17,505.5 1053.83,505.5 1054.5,505.5C 1055.5,505.5 1056.5,505.5 1057.5,505.5C 1067.15,506.245 1076.81,506.578 1086.5,506.5C 1087.17,506.5 1087.5,506.833 1087.5,507.5C 1087.5,507.833 1087.5,508.167 1087.5,508.5C 1075.6,508.447 1063.93,507.447 1052.5,505.5 Z"/></g>
<g><path style="opacity:0.824" fill="#116504" d="M 1150.5,498.5 C 1150.83,498.5 1151.17,498.5 1151.5,498.5C 1143.45,502.594 1134.79,504.594 1125.5,504.5C 1125.5,504.167 1125.5,503.833 1125.5,503.5C 1133.94,502.307 1142.27,500.64 1150.5,498.5 Z"/></g>
<g><path style="opacity:1" fill="#3a5434" d="M 1017.5,499.5 C 1020.78,499.42 1023.78,500.087 1026.5,501.5C 1023.22,501.58 1020.22,500.913 1017.5,499.5 Z"/></g>
<g><path style="opacity:0.435" fill="#1b720b" d="M 1154.5,501.5 C 1154.83,501.5 1155.17,501.5 1155.5,501.5C 1156.4,502.209 1156.74,503.209 1156.5,504.5C 1154.6,504.738 1153.26,505.738 1152.5,507.5C 1147.68,509.288 1142.68,510.288 1137.5,510.5C 1135.5,510.5 1133.5,510.5 1131.5,510.5C 1137.65,508.461 1143.99,506.628 1150.5,505C 1152.54,504.502 1153.88,503.335 1154.5,501.5 Z"/></g>
<g><path style="opacity:0.544" fill="#444444" d="M 379.5,471.5 C 380.5,471.5 381.5,471.5 382.5,471.5C 374.733,496.201 363.399,519.034 348.5,540C 337.884,544.803 326.884,546.136 315.5,544C 312,541.833 309.167,539 307,535.5C 305.432,527.579 305.099,519.579 306,511.5C 308.147,503.561 309.981,495.561 311.5,487.5C 312.167,487.5 312.5,487.167 312.5,486.5C 312.5,486.167 312.5,485.833 312.5,485.5C 313.167,485.5 313.833,485.5 314.5,485.5C 311.89,494.379 309.724,503.379 308,512.5C 307.152,519.899 307.485,527.233 309,534.5C 310.458,536.96 312.291,539.127 314.5,541C 319.762,542.439 325.096,542.772 330.5,542C 336.857,541.589 342.691,539.756 348,536.5C 361.65,516.398 372.15,494.732 379.5,471.5 Z"/></g>
<g><path style="opacity:0.382" fill="#464646" d="M 475.5,447.5 C 479.401,459.662 483.234,471.995 487,484.5C 495.298,503.772 506.132,521.438 519.5,537.5C 526.279,540.861 533.446,542.195 541,541.5C 555.334,542.669 562.5,536.003 562.5,521.5C 558.754,496.93 552.754,472.93 544.5,449.5C 545.609,449.557 546.609,449.89 547.5,450.5C 547.833,451.167 548.167,451.833 548.5,452.5C 556.211,475.011 561.878,498.011 565.5,521.5C 565.319,537.348 557.319,545.014 541.5,544.5C 533.51,544.602 525.844,543.102 518.5,540C 506.288,526.419 496.455,511.252 489,494.5C 483.556,480.73 478.723,466.73 474.5,452.5C 474.5,451.833 474.5,451.167 474.5,450.5C 475.404,449.791 475.737,448.791 475.5,447.5 Z"/></g>
<g><path style="opacity:1" fill="#4d9e3c" d="M 1122.5,505.5 C 1119.98,506.384 1117.31,507.218 1114.5,508C 1105.51,508.5 1096.51,508.666 1087.5,508.5C 1087.5,508.167 1087.5,507.833 1087.5,507.5C 1088.17,507.5 1088.83,507.5 1089.5,507.5C 1100.54,507.421 1111.54,506.755 1122.5,505.5 Z"/></g>
<g><path style="opacity:0.118" fill="#0f4c05" d="M 663.5,508.5 C 663.5,509.167 663.5,509.833 663.5,510.5C 660.833,511.5 658.167,512.5 655.5,513.5C 655.389,512.883 655.056,512.383 654.5,512C 657.521,510.82 660.521,509.654 663.5,508.5 Z"/></g>
<g><path style="opacity:0.282" fill="#215417" d="M 1131.5,510.5 C 1133.5,510.5 1135.5,510.5 1137.5,510.5C 1133.76,512.102 1129.76,513.102 1125.5,513.5C 1125.16,512.662 1124.49,512.328 1123.5,512.5C 1119.88,513.244 1116.21,513.577 1112.5,513.5C 1118.64,512.103 1124.97,511.103 1131.5,510.5 Z"/></g>
<g><path style="opacity:0.369" fill="#18650c" d="M 1047.5,511.5 C 1061.29,512.74 1074.96,513.74 1088.5,514.5C 1085.61,515.403 1082.61,515.736 1079.5,515.5C 1072.15,515.521 1064.81,515.187 1057.5,514.5C 1056.78,513.449 1055.78,512.782 1054.5,512.5C 1051.94,512.802 1049.61,512.468 1047.5,511.5 Z"/></g>
<g><path style="opacity:1" fill="#020302" d="M 1123.5,512.5 C 1123.5,519.833 1123.5,527.167 1123.5,534.5C 1112.17,534.5 1100.83,534.5 1089.5,534.5C 1089.5,527.833 1089.5,521.167 1089.5,514.5C 1097.18,514.404 1104.85,514.07 1112.5,513.5C 1116.21,513.577 1119.88,513.244 1123.5,512.5 Z"/></g>
<g><path style="opacity:0.165" fill="#165e0a" d="M 655.5,513.5 C 651.565,515.467 647.565,517.467 643.5,519.5C 642.167,519.5 640.833,519.5 639.5,519.5C 643.93,515.292 649.263,513.292 655.5,513.5 Z"/></g>
<g><path style="opacity:1" fill="#0b0e0a" d="M 637.5,520.5 C 638.5,520.5 639.5,520.5 640.5,520.5C 640.5,525.167 640.5,529.833 640.5,534.5C 631.318,534.827 622.318,534.493 613.5,533.5C 621.173,528.662 629.173,524.328 637.5,520.5 Z"/></g>
<g><path style="opacity:0.441" fill="#464845" d="M 796.5,474.5 C 811.676,474.171 826.676,474.504 841.5,475.5C 826.833,475.5 812.167,475.5 797.5,475.5C 798.168,482.179 799.002,488.846 800,495.5C 810.561,526.558 832.394,540.058 865.5,536C 888.475,532.518 903.142,519.684 909.5,497.5C 897.495,497.333 885.495,497.5 873.5,498C 870.267,504.604 865.267,507.437 858.5,506.5C 864.784,505.188 869.451,501.688 872.5,496C 885.833,495.333 899.167,495.333 912.5,496C 911.716,504.31 908.55,511.81 903,518.5C 890.513,532.447 874.846,539.447 856,539.5C 818.521,537.521 798.355,517.854 795.5,480.5C 795.5,479.167 795.5,477.833 795.5,476.5C 795.833,475.833 796.167,475.167 796.5,474.5 Z"/></g>
<g><path style="opacity:0.316" fill="#424242" d="M 1274.5,425.5 C 1274.83,462.739 1274.5,499.906 1273.5,537C 1261.17,537.667 1248.83,537.667 1236.5,537C 1235.7,532.92 1235.2,528.753 1235,524.5C 1226.01,534.659 1214.68,539.659 1201,539.5C 1185.2,539.43 1172.2,533.43 1162,521.5C 1158.58,516.929 1155.41,512.263 1152.5,507.5C 1153.26,505.738 1154.6,504.738 1156.5,504.5C 1162.41,521.911 1174.41,532.411 1192.5,536C 1210.29,538.401 1224.96,532.901 1236.5,519.5C 1237.49,524.456 1237.83,529.456 1237.5,534.5C 1249.17,534.5 1260.83,534.5 1272.5,534.5C 1272.83,498.663 1272.5,462.996 1271.5,427.5C 1272.29,426.599 1273.29,425.932 1274.5,425.5 Z"/></g>
<g><path style="opacity:0.35" fill="#444444" d="M 932.5,488.5 C 933.167,488.5 933.833,488.5 934.5,488.5C 936.213,506.107 944.213,519.94 958.5,530C 981.645,541.627 1001.98,538.127 1019.5,519.5C 1020.49,524.456 1020.83,529.456 1020.5,534.5C 1031.83,534.5 1043.17,534.5 1054.5,534.5C 1054.5,527.167 1054.5,519.833 1054.5,512.5C 1055.78,512.782 1056.78,513.449 1057.5,514.5C 1057.81,522.087 1057.48,529.587 1056.5,537C 1044.17,537.667 1031.83,537.667 1019.5,537C 1018.7,532.92 1018.2,528.753 1018,524.5C 1006.97,535.974 993.466,540.808 977.5,539C 950.68,533.342 935.347,516.842 931.5,489.5C 931.5,488.833 931.833,488.5 932.5,488.5 Z"/></g>
<g><path style="opacity:0.355" fill="#424242" d="M 719.5,488.5 C 720.833,488.5 722.167,488.5 723.5,488.5C 717.069,504.626 710.736,520.793 704.5,537C 694.167,537.667 683.833,537.667 673.5,537C 669.733,528.305 666.4,519.472 663.5,510.5C 663.5,509.833 663.5,509.167 663.5,508.5C 664.514,507.326 665.847,506.66 667.5,506.5C 666.939,507.908 666.605,509.408 666.5,511C 668.715,518.86 671.382,526.527 674.5,534C 683.833,534.667 693.167,534.667 702.5,534C 708.303,518.892 713.97,503.725 719.5,488.5 Z"/></g>
<g><path style="opacity:0.384" fill="#464746" d="M 1123.5,512.5 C 1124.49,512.328 1125.16,512.662 1125.5,513.5C 1125.82,521.42 1125.48,529.253 1124.5,537C 1112.17,537.667 1099.83,537.667 1087.5,537C 1086.52,530.256 1086.19,523.422 1086.5,516.5C 1083.94,516.802 1081.61,516.468 1079.5,515.5C 1082.61,515.736 1085.61,515.403 1088.5,514.5C 1088.83,514.5 1089.17,514.5 1089.5,514.5C 1089.5,521.167 1089.5,527.833 1089.5,534.5C 1100.83,534.5 1112.17,534.5 1123.5,534.5C 1123.5,527.167 1123.5,519.833 1123.5,512.5 Z"/></g>
<g><path style="opacity:0.037" fill="#3d3d3d" d="M 637.5,520.5 C 637.842,519.662 638.508,519.328 639.5,519.5C 640.833,519.5 642.167,519.5 643.5,519.5C 643.666,524.844 643.499,530.177 643,535.5C 642.5,536 642,536.5 641.5,537C 628.993,537.827 616.66,537.66 604.5,536.5C 607.388,537.01 609.721,536.344 611.5,534.5C 612.167,534.167 612.833,533.833 613.5,533.5C 622.318,534.493 631.318,534.827 640.5,534.5C 640.5,529.833 640.5,525.167 640.5,520.5C 639.5,520.5 638.5,520.5 637.5,520.5 Z"/></g>
<g><path style="opacity:0.035" fill="#333333" d="M 771.5,477.5 C 772.609,477.557 773.609,477.89 774.5,478.5C 774.667,497.503 774.5,516.503 774,535.5C 773.5,536 773,536.5 772.5,537C 766.333,537.167 760.167,537.333 754,537.5C 747.462,537.496 741.295,536.83 735.5,535.5C 736.492,535.672 737.158,535.338 737.5,534.5C 748.752,535.477 760.086,535.811 771.5,535.5C 771.5,516.167 771.5,496.833 771.5,477.5 Z"/></g>
<g><path style="opacity:0.408" fill="#454545" d="M 212.5,485.5 C 218.405,505.12 228.405,522.62 242.5,538C 245.774,539.202 249.107,540.202 252.5,541C 279.507,546.325 290.007,535.491 284,508.5C 282.05,502.574 280.55,496.574 279.5,490.5C 278.022,490.762 276.689,490.429 275.5,489.5C 275.624,488.893 275.957,488.56 276.5,488.5C 277.568,489.434 278.901,489.768 280.5,489.5C 280.5,490.167 280.833,490.5 281.5,490.5C 287.023,503.712 288.856,517.379 287,531.5C 282.796,541.357 275.296,545.69 264.5,544.5C 256.51,544.602 248.844,543.102 241.5,540C 228.177,524.845 217.51,508.012 209.5,489.5C 210.167,489.5 210.5,489.167 210.5,488.5C 212.048,488.179 212.715,487.179 212.5,485.5 Z"/></g>
<g><path style="opacity:0.203" fill="#434343" d="M 49.5,435.5 C 50.1667,435.5 50.8333,435.5 51.5,435.5C 51.5,435.833 51.5,436.167 51.5,436.5C 44.0509,460.959 37.2176,485.626 31,510.5C 30.3333,517.833 30.3333,525.167 31,532.5C 32.3999,535.902 34.5665,538.736 37.5,541C 42.7625,542.439 48.0958,542.772 53.5,542C 59.9022,541.778 65.7355,539.945 71,536.5C 85.8741,513.041 97.3741,488.041 105.5,461.5C 105.833,461.5 106.167,461.5 106.5,461.5C 107.306,462.728 108.306,463.728 109.5,464.5C 108.25,464.577 107.417,465.244 107,466.5C 99.1145,491.934 87.7812,515.6 73,537.5C 68.9786,541.399 64.1453,543.566 58.5,544C 51.8096,545.783 45.1429,545.783 38.5,544C 33.1622,541.993 29.9956,538.159 29,532.5C 28.3333,525.833 28.3333,519.167 29,512.5C 34.9246,486.565 41.7579,460.898 49.5,435.5 Z"/></g>
</svg>
