<?xml version="1.0" standalone="no"?>
<!DOCTYPE svg PUBLIC "-//W3C//DTD SVG 20010904//EN"
 "http://www.w3.org/TR/2001/REC-SVG-20010904/DTD/svg10.dtd">
<svg version="1.0" xmlns="http://www.w3.org/2000/svg"
 width="3264.000000pt" height="1836.000000pt" viewBox="0 0 3264.000000 1836.000000"
 preserveAspectRatio="xMidYMid meet">

<g transform="translate(0.000000,1836.000000) scale(0.100000,-0.100000)"
fill="#000000" stroke="none">
<path d="M27969 9925 c-89 -33 -158 -99 -188 -182 -15 -41 -21 -46 -92 -77
-323 -140 -548 -463 -549 -788 0 -42 -4 -79 -9 -82 -12 -8 -75 64 -101 113
-28 55 -27 150 1 209 12 24 45 67 73 95 l51 51 -44 -24 c-70 -40 -167 -135
-195 -192 -20 -40 -26 -67 -26 -117 0 -86 26 -139 108 -220 l64 -63 -16 -50
c-51 -159 37 -353 193 -426 47 -21 63 -24 135 -20 l81 5 60 -42 c234 -166 532
-224 800 -155 96 25 260 104 332 159 51 39 54 40 100 32 157 -30 320 96 363
281 14 63 12 106 -9 167 l-19 54 55 51 c31 27 67 68 82 91 23 36 26 49 26 136
0 96 0 97 -40 155 -22 32 -67 78 -100 102 -89 65 -105 70 -57 18 53 -57 92
-138 92 -188 0 -21 -8 -60 -19 -87 -19 -49 -89 -144 -101 -136 -4 2 -10 46
-13 97 -17 233 -113 438 -284 600 -71 67 -189 146 -266 177 -48 20 -56 27 -61
55 -15 79 -101 168 -197 201 -51 18 -181 18 -230 0z m249 -35 c58 -25 125 -90
147 -142 18 -45 17 -46 -82 -21 -94 23 -313 23 -407 0 -38 -10 -71 -15 -74
-13 -21 22 66 134 129 167 86 44 198 47 287 9z m60 -196 c167 -34 317 -118
447 -248 95 -97 136 -157 190 -283 67 -153 89 -423 36 -423 -4 0 -6 46 -7 103
-5 488 -411 868 -903 844 -137 -6 -216 -25 -329 -78 -313 -145 -502 -439 -502
-780 0 -83 -2 -97 -15 -93 -12 5 -15 26 -15 105 0 228 77 422 234 586 123 131
277 222 442 262 102 25 312 28 422 5z m-320 -291 c-196 -298 -305 -489 -383
-674 -26 -63 -50 -117 -54 -121 -7 -8 -68 9 -138 37 l-41 16 -12 87 c-46 320
149 647 461 771 95 38 243 66 263 50 5 -4 -39 -79 -96 -166z m295 151 c212
-47 406 -201 505 -399 52 -106 65 -167 66 -310 1 -177 1 -177 -84 -209 -39
-14 -79 -26 -89 -26 -12 0 -27 23 -51 83 -43 106 -107 236 -182 365 -61 106
-237 384 -289 455 -16 22 -29 44 -29 49 0 13 75 9 153 -8z m-89 -252 c126
-226 259 -508 316 -670 18 -50 18 -52 0 -62 -10 -5 -42 -12 -71 -16 l-54 -6
-44 78 c-45 82 -227 364 -234 364 -6 0 -119 -175 -194 -300 -94 -158 -80 -145
-149 -134 -56 9 -59 10 -57 37 5 72 197 502 323 723 57 98 75 122 85 114 7 -6
43 -64 79 -128z m-38 -519 c67 -139 105 -234 98 -244 -7 -12 -301 -12 -309 1
-11 18 135 340 155 340 5 0 30 -44 56 -97z m964 -227 c35 -169 -104 -368 -269
-383 -95 -9 -101 -2 -47 58 86 96 196 288 196 343 0 8 19 25 43 39 51 29 60
22 77 -57z m-1944 48 c24 -14 44 -33 44 -41 0 -48 116 -246 194 -331 49 -54
39 -65 -51 -59 -148 11 -274 157 -276 322 0 63 18 135 34 135 6 0 30 -12 55
-26z m150 -132 c118 -227 295 -374 541 -448 78 -24 105 -27 238 -28 163 0 211
9 343 63 198 82 365 243 453 437 17 37 35 64 44 64 22 0 19 -13 -21 -93 -74
-148 -185 -273 -319 -360 -389 -251 -910 -171 -1201 185 -55 66 -144 224 -144
254 0 33 25 5 66 -74z m162 12 c15 -4 22 -14 22 -30 0 -34 -16 -38 -39 -8 -32
41 -29 50 17 38z m1265 -24 c-21 -36 -43 -39 -43 -7 0 30 7 37 37 37 24 0 24
0 6 -30z m-184 -28 c5 -9 15 -46 22 -81 l13 -63 -34 -29 c-55 -45 -62 -40 -94
66 -16 53 -27 97 -25 99 3 3 76 21 101 25 4 1 12 -7 17 -17z m-801 -6 c1 -2
-9 -41 -24 -87 -14 -46 -27 -90 -30 -96 -6 -21 -32 -15 -64 15 l-31 27 16 70
c9 38 19 73 22 78 5 8 102 1 111 -7z m555 -63 c43 -138 47 -196 15 -217 -83
-52 -370 -51 -472 1 -27 14 -28 17 -22 61 3 26 16 81 27 124 l21 78 208 0 208
0 15 -47z"/>
<path d="M28160 8255 c-7 -9 -19 -14 -27 -11 -7 3 -13 1 -13 -4 0 -6 25 -10
55 -10 50 0 55 2 55 23 -1 20 -1 21 -11 4 -10 -17 -12 -17 -28 -2 -17 14 -19
14 -31 0z"/>
<path d="M27944 8249 c-3 -6 -14 -9 -23 -7 -9 2 -24 -4 -33 -14 -17 -17 -17
-18 1 -18 11 0 23 5 26 10 3 6 46 10 96 10 54 0 89 4 89 10 0 7 -23 9 -60 7
-33 -3 -63 -1 -66 4 -7 12 -21 11 -30 -2z"/>
<path d="M32145 7641 c-11 -5 -88 -78 -170 -162 -238 -243 -486 -473 -715
-662 -79 -66 -141 -115 -164 -132 -16 -11 -33 -25 -40 -30 -43 -40 -248 -187
-391 -282 -44 -29 -84 -56 -90 -61 -16 -13 -347 -213 -364 -220 -57 -24 -101
-57 -101 -77 0 -19 18 -83 25 -93 2 -2 20 7 41 19 22 12 64 35 94 51 30 17 80
45 111 64 31 19 60 34 64 34 4 0 25 13 48 29 41 28 200 132 283 184 22 14 47
31 55 39 8 7 47 35 86 61 40 26 78 53 85 60 7 7 69 55 138 107 69 52 127 97
130 100 3 3 57 48 120 100 63 52 122 102 130 110 18 17 168 153 209 188 14 13
133 130 264 260 253 253 266 271 215 306 -25 18 -34 19 -63 7z"/>
<path d="M20749 6436 c-2 -2 -103 -6 -224 -10 -340 -11 -689 -36 -837 -62
l-38 -6 0 -55 0 -55 108 7 c59 3 118 10 132 15 14 5 68 11 120 14 52 3 154 10
226 16 132 12 1156 8 1219 -4 17 -3 89 -8 160 -12 72 -3 137 -8 145 -12 8 -3
83 -12 165 -19 83 -7 202 -19 265 -27 266 -35 520 -71 580 -81 151 -25 217
-38 231 -45 8 -4 50 -11 92 -15 43 -4 80 -11 82 -15 3 -5 39 -11 80 -15 42 -4
77 -11 80 -15 3 -4 36 -11 75 -15 39 -4 72 -11 75 -15 3 -4 36 -11 75 -15 39
-4 73 -11 76 -16 3 -5 21 -9 40 -9 31 0 34 2 34 31 0 18 -9 47 -21 65 -17 28
-27 34 -54 34 -19 0 -36 4 -39 9 -3 5 -36 12 -73 16 -38 4 -72 10 -78 14 -5 3
-41 11 -80 18 -63 10 -161 29 -285 54 -25 4 -81 14 -125 20 -44 6 -87 15 -95
19 -9 4 -49 11 -90 15 -41 4 -79 10 -85 14 -5 3 -55 11 -110 18 -55 7 -147 19
-205 28 -108 16 -304 36 -515 54 -66 5 -163 15 -215 20 -150 16 -880 47 -891
37z"/>
<path d="M18720 6201 c-8 -6 -37 -13 -65 -16 -27 -4 -54 -11 -60 -15 -5 -4
-35 -11 -65 -15 -30 -4 -59 -11 -65 -15 -5 -4 -30 -11 -55 -15 -25 -4 -49 -11
-55 -15 -5 -4 -30 -11 -55 -15 -25 -4 -49 -11 -55 -15 -5 -4 -29 -10 -53 -14
-24 -3 -51 -10 -60 -15 -9 -5 -44 -16 -77 -26 -136 -40 -161 -48 -175 -55 -9
-4 -31 -11 -50 -15 -19 -4 -39 -11 -45 -15 -5 -4 -26 -11 -45 -15 -19 -4 -39
-11 -45 -15 -5 -4 -26 -11 -45 -15 -19 -4 -41 -11 -50 -15 -8 -4 -53 -22 -100
-39 -47 -18 -102 -39 -122 -47 -21 -8 -57 -21 -80 -30 -24 -9 -50 -20 -58 -24
-9 -4 -30 -11 -48 -15 -18 -3 -32 -11 -32 -16 0 -5 -7 -9 -16 -9 -9 0 -30 -6
-47 -14 -97 -44 -148 -66 -153 -66 -3 0 -26 -9 -52 -21 -26 -11 -63 -27 -82
-36 -19 -8 -57 -25 -85 -38 -104 -49 -187 -85 -196 -85 -5 0 -9 -4 -9 -10 0
-5 -5 -10 -11 -10 -6 0 -57 -22 -114 -50 -57 -27 -107 -50 -113 -50 -6 0 -12
-3 -14 -7 -1 -5 -50 -32 -108 -62 -189 -96 -310 -161 -350 -186 -22 -14 -42
-25 -45 -25 -2 0 -33 -17 -67 -38 -35 -21 -84 -49 -111 -62 -82 -41 -102 -73
-77 -121 15 -28 53 -24 124 14 33 17 63 34 66 37 3 3 21 13 40 24 19 10 58 31
85 46 108 60 347 185 590 308 61 31 195 95 320 152 74 34 82 37 160 70 28 12
59 25 70 30 11 5 43 18 70 30 28 12 61 26 75 32 14 6 34 14 45 19 11 4 41 17
67 28 26 12 54 21 62 21 8 0 17 4 21 9 3 5 19 12 36 16 17 4 42 13 57 21 15 8
34 14 42 14 9 0 20 4 25 9 6 4 53 23 105 40 52 18 102 36 110 40 9 5 31 12 50
16 19 4 40 11 45 15 6 4 26 11 45 15 19 4 40 11 45 15 6 4 26 11 45 15 19 4
40 11 45 15 6 4 27 11 49 14 21 4 46 11 55 15 9 5 41 16 71 25 30 8 77 22 103
31 26 8 56 15 67 15 10 0 21 4 24 9 4 5 29 12 56 16 27 4 52 11 55 15 3 5 30
12 60 15 31 4 57 11 60 15 3 5 32 11 65 15 33 4 63 11 66 16 3 5 16 9 29 9 48
0 55 9 55 71 0 50 -3 59 -17 59 -10 0 -25 -4 -33 -9z"/>
<path d="M24670 5862 c0 -5 11 -34 24 -65 20 -43 30 -56 53 -60 100 -21 149
-33 158 -38 6 -4 39 -10 75 -14 36 -4 67 -11 70 -14 3 -4 34 -12 70 -18 36 -7
99 -19 140 -27 41 -9 109 -23 150 -31 41 -9 93 -20 115 -25 22 -5 72 -15 110
-22 39 -7 75 -16 80 -19 6 -4 43 -10 83 -14 39 -4 74 -11 77 -15 3 -4 40 -11
82 -15 43 -4 83 -10 88 -14 6 -3 48 -12 95 -19 47 -7 128 -19 180 -27 191 -30
535 -71 730 -86 174 -14 961 -15 1108 -1 102 10 191 21 292 37 161 26 355 61
355 65 0 1 29 8 65 15 134 28 185 40 195 46 6 4 29 10 52 14 24 4 45 10 48 15
3 4 25 11 50 15 54 8 63 23 41 69 -9 19 -16 39 -16 46 0 13 -57 7 -89 -10 -9
-5 -43 -16 -76 -24 -33 -9 -73 -21 -90 -26 -16 -5 -50 -12 -75 -16 -25 -4 -49
-10 -55 -14 -5 -5 -37 -11 -70 -15 -33 -4 -64 -11 -70 -15 -5 -5 -41 -11 -80
-15 -38 -4 -74 -11 -80 -15 -5 -4 -57 -11 -115 -15 -58 -4 -109 -11 -115 -15
-5 -4 -53 -10 -105 -14 -52 -3 -108 -9 -125 -12 -16 -3 -203 -8 -415 -11 -306
-4 -420 -2 -558 11 -95 9 -199 16 -231 16 -32 0 -61 3 -65 8 -4 4 -60 12 -124
19 -238 23 -470 58 -792 118 -47 8 -105 19 -130 24 -122 22 -176 34 -190 41
-9 4 -45 11 -80 15 -36 4 -69 11 -75 15 -5 4 -39 11 -75 15 -36 4 -69 10 -75
14 -5 3 -39 11 -75 18 -36 6 -96 19 -135 28 -38 9 -97 20 -130 26 -33 5 -69
14 -80 18 -18 8 -89 24 -167 38 -16 3 -28 1 -28 -5z"/>
</g>
</svg>
