<?xml version="1.0" standalone="no"?>
<!DOCTYPE svg PUBLIC "-//W3C//DTD SVG 20010904//EN"
 "http://www.w3.org/TR/2001/REC-SVG-20010904/DTD/svg10.dtd">
<svg version="1.0" xmlns="http://www.w3.org/2000/svg"
 width="3264.000000pt" height="3264.000000pt" viewBox="0 0 3264.000000 3264.000000"
 preserveAspectRatio="xMidYMid meet">

<g transform="translate(0.000000,3264.000000) scale(0.100000,-0.100000)"
fill="#000000" stroke="none">
<path d="M16535 32180 c-60 -3 -115 -9 -120 -12 -13 -8 -164 -24 -353 -38 -88
-6 -166 -18 -200 -29 -31 -11 -100 -24 -152 -31 -107 -13 -182 -32 -218 -56
-13 -9 -53 -20 -89 -25 -36 -5 -86 -18 -112 -30 -25 -11 -90 -31 -146 -46 -55
-14 -111 -31 -125 -38 -14 -8 -52 -22 -84 -34 -31 -11 -78 -34 -103 -50 -26
-17 -52 -31 -60 -31 -7 0 -30 -11 -51 -24 -21 -13 -53 -27 -72 -31 -42 -9 -84
-29 -126 -61 -17 -13 -36 -24 -42 -24 -6 0 -23 -11 -39 -24 -31 -26 -113 -74
-182 -107 -24 -12 -76 -47 -115 -79 -39 -31 -87 -65 -106 -75 -19 -10 -51 -31
-70 -46 -19 -16 -80 -65 -135 -110 -182 -146 -441 -413 -509 -524 -21 -34 -45
-62 -95 -108 -18 -18 -42 -52 -53 -77 -10 -24 -26 -51 -34 -60 -28 -29 -104
-138 -104 -148 0 -6 -11 -24 -25 -41 -34 -40 -111 -188 -120 -231 -4 -19 -16
-47 -27 -63 -11 -15 -30 -55 -44 -89 -13 -33 -31 -73 -40 -87 -19 -28 -57
-151 -108 -346 -19 -71 -39 -142 -45 -157 -5 -15 -13 -62 -17 -105 -4 -43 -12
-86 -19 -95 -26 -38 -96 -78 -165 -94 -39 -8 -95 -29 -125 -45 -30 -16 -64
-29 -75 -29 -11 0 -53 -16 -93 -35 -39 -19 -98 -41 -129 -49 -31 -8 -65 -19
-75 -24 -10 -6 -47 -20 -83 -32 -35 -12 -77 -31 -92 -42 -16 -11 -54 -29 -86
-40 -31 -11 -64 -26 -72 -33 -8 -7 -33 -18 -55 -25 -22 -7 -76 -30 -120 -51
-44 -22 -85 -39 -92 -39 -6 0 -52 -20 -102 -45 -50 -25 -93 -45 -97 -45 -3 0
-18 -8 -32 -19 -15 -10 -45 -24 -67 -31 -22 -7 -53 -23 -70 -35 -16 -12 -56
-32 -87 -44 -32 -13 -62 -29 -69 -37 -6 -8 -18 -14 -26 -14 -15 0 -184 -92
-213 -116 -8 -7 -35 -20 -60 -30 -25 -10 -68 -32 -96 -50 -28 -18 -63 -36 -77
-39 -14 -4 -33 -15 -43 -26 -9 -10 -22 -19 -28 -19 -6 0 -35 -19 -65 -41 -30
-23 -73 -50 -95 -60 -58 -27 -148 -80 -182 -107 -27 -22 -113 -78 -195 -127
-80 -48 -100 -62 -208 -143 -63 -47 -135 -97 -161 -111 -47 -26 -75 -46 -156
-113 -25 -21 -51 -38 -58 -38 -6 0 -51 -33 -98 -72 -47 -40 -132 -107 -188
-148 -107 -79 -152 -116 -258 -215 -35 -33 -71 -64 -80 -69 -9 -5 -46 -34 -82
-65 -36 -31 -87 -74 -115 -96 -27 -22 -101 -91 -165 -154 -63 -62 -141 -133
-172 -158 -32 -25 -70 -61 -84 -80 -15 -19 -41 -48 -58 -63 -17 -16 -59 -55
-93 -86 -35 -31 -63 -61 -63 -66 0 -5 -30 -40 -67 -77 -38 -37 -91 -92 -120
-124 -28 -31 -56 -57 -62 -57 -7 0 -17 -11 -23 -25 -6 -14 -15 -25 -19 -25 -4
0 -30 -28 -57 -62 -126 -158 -168 -207 -220 -263 -32 -33 -64 -69 -72 -81 -24
-35 -232 -294 -262 -327 -16 -16 -28 -34 -28 -39 0 -5 -28 -45 -62 -90 -35
-44 -73 -94 -85 -112 -12 -17 -29 -40 -37 -50 -9 -11 -35 -51 -58 -89 -24 -39
-59 -89 -78 -111 -36 -41 -130 -179 -130 -190 0 -5 -51 -77 -79 -112 -5 -6
-24 -38 -42 -70 -18 -33 -37 -63 -43 -69 -7 -5 -27 -39 -45 -75 -18 -36 -40
-72 -47 -81 -8 -8 -14 -20 -14 -26 0 -5 -11 -22 -24 -36 -13 -13 -49 -74 -81
-133 -31 -60 -63 -116 -70 -124 -7 -8 -38 -67 -69 -130 -32 -63 -61 -122 -66
-130 -5 -8 -24 -40 -41 -70 -18 -30 -40 -64 -49 -75 -9 -11 -22 -40 -29 -65
-7 -25 -26 -71 -42 -102 -16 -31 -38 -79 -48 -105 -11 -26 -40 -86 -66 -133
-25 -47 -55 -112 -66 -145 -19 -58 -54 -137 -106 -240 -14 -27 -32 -72 -40
-100 -8 -27 -25 -70 -38 -95 -12 -25 -25 -63 -29 -85 -4 -22 -20 -65 -35 -95
-15 -30 -31 -68 -35 -83 -3 -15 -22 -61 -41 -101 -18 -40 -37 -85 -41 -102 -4
-16 -17 -54 -30 -85 -12 -30 -30 -95 -39 -145 -9 -49 -29 -120 -44 -159 -16
-38 -32 -88 -36 -110 -4 -22 -17 -62 -30 -90 -13 -27 -29 -86 -35 -130 -7 -44
-25 -118 -41 -165 -15 -47 -33 -119 -39 -160 -6 -41 -20 -102 -30 -135 -10
-33 -26 -109 -35 -170 -9 -60 -25 -137 -36 -170 -11 -33 -24 -103 -31 -155
-12 -112 -29 -209 -57 -340 -11 -52 -27 -171 -36 -265 -9 -93 -23 -213 -31
-265 -22 -153 -46 -871 -42 -1315 3 -443 2 -448 -61 -475 -55 -22 -79 -8 -182
106 -14 16 -42 40 -61 53 -19 14 -45 40 -59 59 -28 39 -21 33 -172 181 -64 62
-121 126 -127 141 -6 15 -22 33 -35 40 -14 7 -27 21 -30 31 -3 9 -21 29 -40
44 -19 14 -35 32 -35 40 0 8 -11 22 -25 31 -13 9 -27 24 -30 33 -3 10 -21 35
-41 57 -20 21 -43 54 -51 73 -8 19 -26 43 -39 53 -13 11 -24 25 -24 31 0 6
-15 27 -33 47 -19 19 -40 51 -47 70 -7 19 -21 44 -30 55 -10 11 -25 36 -35 55
-10 19 -28 50 -42 68 -13 17 -29 46 -35 62 -5 17 -23 43 -38 59 -19 18 -31 43
-35 73 -5 30 -15 53 -30 67 -13 11 -29 39 -35 63 -6 24 -15 50 -20 58 -31 48
-49 93 -61 153 -8 43 -19 72 -30 77 -19 11 -35 48 -44 105 -3 22 -17 72 -31
112 -15 45 -30 124 -39 213 -10 91 -21 152 -32 173 -16 28 -18 64 -18 322 0
244 3 299 17 345 9 30 22 113 28 184 8 89 20 158 40 220 16 50 34 118 40 151
6 33 22 76 34 95 13 19 29 61 35 92 7 31 24 74 38 95 14 21 33 67 41 102 10
45 19 65 32 68 13 3 21 18 25 46 7 46 28 85 56 104 9 7 19 27 23 45 3 18 18
46 32 61 14 15 32 44 41 65 8 20 28 53 43 72 15 19 30 45 34 57 4 12 20 33 35
46 16 13 36 37 44 54 28 52 94 147 121 172 14 14 26 30 26 37 0 7 9 18 20 24
11 6 32 30 47 53 14 23 48 65 74 92 25 28 75 85 109 128 34 42 66 77 70 77 9
0 67 56 155 151 59 63 142 138 215 194 28 22 67 54 85 70 19 17 54 48 79 70
25 22 61 55 80 73 20 17 39 32 43 32 4 0 28 18 53 40 25 22 50 40 56 40 5 0
27 16 48 35 21 19 43 35 49 35 5 0 26 14 46 31 110 94 227 179 245 179 23 1
56 22 56 37 0 5 24 21 52 36 29 14 58 36 63 48 6 14 23 26 43 31 42 11 41 28
-3 28 -23 0 -42 -8 -57 -23 -13 -13 -50 -31 -83 -41 -33 -10 -74 -29 -91 -42
-17 -13 -38 -24 -46 -24 -8 0 -35 -14 -61 -31 -25 -16 -68 -38 -94 -47 -27 -9
-59 -27 -73 -40 -13 -12 -29 -22 -35 -22 -7 0 -31 -14 -54 -30 -23 -17 -58
-38 -79 -47 -20 -10 -48 -27 -62 -39 -14 -12 -46 -29 -71 -37 -26 -9 -67 -30
-92 -46 -25 -17 -50 -31 -56 -31 -7 0 -22 -10 -35 -23 -13 -13 -38 -29 -55
-37 -17 -7 -51 -28 -74 -46 -23 -19 -51 -34 -63 -34 -11 0 -31 -11 -43 -24
-12 -13 -49 -36 -82 -51 -32 -14 -59 -31 -59 -36 0 -6 -15 -16 -33 -24 -17 -7
-50 -30 -72 -49 -22 -20 -49 -39 -60 -42 -11 -4 -32 -19 -47 -35 -15 -16 -35
-29 -46 -29 -10 0 -28 -9 -39 -19 -11 -11 -44 -32 -72 -46 -28 -15 -57 -35
-64 -45 -6 -9 -23 -23 -37 -30 -14 -7 -41 -26 -60 -42 -89 -74 -137 -109 -158
-114 -12 -4 -29 -19 -38 -35 -8 -16 -23 -29 -33 -29 -10 0 -31 -15 -47 -33
-16 -19 -39 -39 -50 -45 -28 -15 -66 -46 -127 -104 -28 -27 -51 -48 -52 -48
-1 0 -19 -16 -39 -35 -21 -19 -44 -35 -51 -35 -8 0 -22 -11 -31 -26 -9 -14
-29 -31 -44 -39 -15 -8 -30 -25 -34 -38 -5 -23 -92 -97 -129 -110 -9 -4 -20
-13 -23 -21 -3 -8 -23 -34 -45 -58 -45 -49 -40 -44 -119 -121 -33 -32 -60 -62
-60 -67 0 -5 -9 -12 -20 -15 -11 -4 -27 -20 -36 -36 -8 -16 -26 -35 -39 -41
-14 -6 -27 -19 -30 -29 -6 -17 -138 -186 -189 -242 -14 -16 -26 -32 -26 -37 0
-5 -18 -30 -40 -55 -22 -25 -40 -49 -40 -53 0 -4 -10 -18 -23 -32 -13 -14 -33
-46 -45 -71 -12 -25 -33 -51 -46 -57 -15 -6 -26 -22 -30 -43 -8 -43 -81 -166
-106 -179 -10 -5 -26 -33 -36 -62 -9 -29 -27 -71 -39 -93 -13 -22 -28 -58 -35
-80 -7 -22 -23 -50 -36 -63 -13 -12 -28 -41 -35 -65 -6 -23 -21 -58 -32 -77
-32 -51 -87 -205 -101 -285 -7 -38 -25 -99 -40 -135 -18 -45 -32 -110 -46
-210 -10 -80 -29 -172 -41 -205 -21 -56 -22 -77 -23 -345 -1 -187 3 -316 12
-375 23 -160 71 -381 102 -474 16 -50 30 -101 30 -112 0 -11 13 -51 29 -87 16
-37 32 -87 36 -111 7 -43 79 -197 108 -229 8 -9 22 -44 32 -77 9 -32 30 -77
45 -100 16 -22 31 -54 35 -71 3 -17 17 -42 32 -55 14 -13 36 -45 49 -71 13
-26 28 -49 34 -53 6 -3 17 -22 25 -42 8 -20 22 -41 30 -47 7 -6 24 -32 37 -57
23 -45 30 -55 108 -154 22 -27 45 -64 50 -81 6 -18 19 -34 28 -36 9 -3 24 -18
32 -34 8 -16 43 -58 77 -94 35 -35 63 -68 63 -73 0 -12 177 -206 218 -239 59
-47 150 -151 163 -185 6 -15 17 -23 33 -23 24 0 51 -22 128 -105 53 -58 114
-112 140 -126 12 -6 36 -27 54 -45 17 -19 35 -34 40 -34 5 0 17 -14 26 -30 9
-17 24 -30 32 -30 8 0 24 -12 35 -26 11 -15 40 -39 63 -55 24 -16 61 -41 83
-55 43 -29 104 -79 145 -118 14 -13 35 -27 48 -31 12 -3 49 -32 82 -63 54 -52
60 -62 60 -98 0 -22 -11 -63 -25 -91 -13 -28 -27 -64 -31 -80 -3 -15 -17 -46
-29 -68 -13 -22 -31 -67 -40 -100 -9 -33 -26 -75 -36 -94 -11 -18 -26 -62 -35
-97 -8 -34 -23 -82 -33 -106 -10 -24 -26 -77 -35 -117 -9 -41 -28 -105 -41
-143 -15 -42 -31 -125 -40 -211 -9 -78 -23 -162 -31 -187 -22 -71 -34 -271
-35 -565 -1 -312 12 -494 46 -682 14 -74 25 -144 25 -157 0 -12 9 -58 20 -102
10 -43 30 -126 44 -184 14 -58 34 -125 45 -150 11 -25 25 -83 32 -130 7 -52
23 -107 39 -140 15 -30 36 -79 45 -109 10 -30 26 -68 35 -85 10 -17 23 -53 30
-81 6 -27 20 -63 30 -80 10 -16 28 -58 40 -92 13 -35 26 -63 30 -63 4 0 18
-26 31 -58 13 -31 33 -72 45 -90 13 -18 28 -49 35 -69 6 -20 25 -57 40 -82 16
-25 29 -50 29 -56 0 -6 18 -36 40 -65 22 -29 40 -59 40 -65 0 -16 130 -211
185 -278 14 -17 47 -63 72 -102 26 -38 72 -99 103 -135 31 -36 68 -81 83 -101
44 -61 445 -469 460 -469 4 0 25 -17 46 -37 47 -48 86 -80 132 -108 19 -13 49
-37 66 -54 18 -17 36 -31 42 -31 6 0 15 -9 21 -20 6 -11 29 -30 52 -41 38 -20
92 -53 173 -109 94 -65 169 -109 195 -115 17 -4 33 -11 36 -17 4 -5 37 -25 75
-43 37 -18 75 -39 84 -48 9 -9 35 -21 58 -28 23 -6 53 -18 67 -27 24 -16 179
-85 230 -102 152 -52 313 -100 335 -100 14 0 45 -10 68 -21 26 -14 97 -30 197
-45 85 -13 196 -30 246 -38 215 -34 577 -29 809 10 50 9 142 24 205 34 63 10
139 28 168 39 29 12 62 21 73 21 12 0 53 15 92 34 97 45 214 70 296 62 62 -5
66 -8 140 -74 42 -37 119 -103 171 -145 52 -43 133 -109 180 -147 99 -81 168
-133 201 -151 13 -7 58 -40 99 -73 41 -34 92 -70 113 -81 20 -11 37 -22 37
-25 0 -4 19 -17 43 -30 23 -13 56 -35 74 -49 54 -45 150 -111 160 -111 6 0 18
-9 28 -19 9 -11 45 -33 79 -50 34 -16 70 -39 80 -50 11 -12 23 -21 28 -21 5 0
37 -19 71 -43 85 -58 96 -65 143 -87 22 -11 51 -28 65 -38 13 -11 47 -31 75
-45 27 -14 56 -33 64 -42 7 -9 29 -23 48 -30 18 -8 47 -26 63 -40 17 -13 52
-31 80 -39 27 -8 62 -25 77 -36 48 -38 146 -96 181 -108 19 -7 42 -19 50 -26
9 -8 40 -24 70 -36 90 -35 199 -91 217 -111 9 -10 23 -19 29 -19 17 0 123 -49
130 -60 3 -5 27 -16 53 -24 50 -14 190 -82 252 -121 19 -12 51 -26 70 -30 19
-4 60 -20 90 -35 30 -15 73 -33 95 -40 22 -7 60 -23 85 -36 56 -29 276 -114
297 -114 8 0 36 -11 62 -24 25 -14 78 -34 116 -46 39 -12 98 -32 132 -46 34
-13 76 -24 94 -24 18 0 59 -13 93 -29 34 -15 86 -36 116 -45 30 -9 64 -22 75
-28 20 -12 110 -37 362 -102 72 -19 142 -42 155 -50 13 -9 60 -22 104 -30 45
-8 119 -25 165 -39 46 -15 126 -33 177 -42 51 -9 108 -23 128 -31 20 -8 93
-22 163 -29 69 -8 159 -24 199 -35 40 -11 143 -29 230 -41 86 -11 182 -26 212
-34 30 -7 105 -18 165 -24 61 -6 151 -16 200 -21 50 -5 142 -14 205 -20 63 -6
144 -15 180 -20 327 -45 1904 -35 2205 14 17 3 109 12 205 21 231 21 322 33
395 50 33 8 139 23 235 35 96 11 202 29 235 40 33 11 103 25 155 31 52 6 124
18 160 26 36 8 100 21 143 29 43 7 120 27 170 43 51 16 129 36 174 45 46 9
100 24 120 34 21 10 71 25 112 32 41 7 107 23 145 37 39 13 102 30 139 38 38
8 78 20 90 27 26 14 255 94 312 110 47 12 100 29 215 69 47 16 91 29 98 29 8
0 26 8 40 19 15 10 56 26 92 35 35 9 83 27 105 40 22 13 64 31 94 40 30 9 65
23 79 32 13 8 47 22 75 31 29 8 77 28 107 43 30 16 74 33 96 39 23 6 52 19 65
30 13 10 35 22 49 26 14 4 59 25 100 46 41 21 120 59 175 84 55 25 111 53 125
61 14 8 41 22 60 31 19 8 46 23 60 33 14 9 78 41 144 69 65 29 136 65 157 80
21 16 53 34 71 41 18 8 46 23 63 34 35 25 167 101 210 122 30 15 113 69 150
100 11 8 43 27 70 40 28 14 59 30 70 37 56 34 81 53 92 68 12 16 176 119 189
119 4 0 21 12 39 28 37 30 78 60 145 103 25 16 70 47 100 70 30 22 73 52 95
66 22 14 70 52 108 84 37 32 83 66 102 75 19 9 35 20 35 25 0 5 12 15 28 23
15 8 38 25 53 37 14 13 43 37 65 53 48 37 304 255 361 310 41 38 46 40 107 40
51 0 76 -6 127 -32 35 -17 85 -36 111 -41 26 -6 64 -20 85 -30 21 -11 83 -29
138 -41 55 -12 143 -32 195 -44 89 -20 120 -21 520 -20 461 1 423 -3 710 64
47 11 99 20 115 20 17 0 44 9 61 19 17 11 71 30 120 44 120 34 238 75 299 103
28 13 68 28 90 35 22 7 58 24 80 39 22 15 55 32 74 39 19 6 42 17 50 25 9 8
45 26 80 41 36 15 81 38 100 51 20 13 40 24 46 24 6 0 34 17 62 37 82 60 116
81 151 98 32 15 128 83 167 118 29 26 125 100 144 112 26 15 125 98 133 111 5
7 28 24 52 38 24 14 57 43 73 64 15 21 65 71 111 111 45 40 82 76 82 80 0 4
36 45 81 91 44 47 91 101 103 120 13 19 54 69 91 110 37 41 88 105 112 143 25
37 49 67 54 67 5 0 18 19 30 41 11 23 25 47 30 53 48 58 109 143 109 152 0 6
10 24 22 40 35 44 85 128 150 254 33 63 69 126 78 140 21 29 58 109 101 220
33 83 49 120 102 230 19 41 52 131 72 200 20 69 52 172 72 230 19 58 43 148
53 200 11 52 28 123 39 158 12 35 28 118 37 185 9 67 22 151 31 187 37 165 39
982 3 1105 -5 17 -17 77 -26 135 -8 58 -22 130 -29 160 -28 116 -86 324 -94
334 -4 6 -18 47 -31 91 -12 44 -33 100 -45 125 -12 25 -26 65 -30 90 -6 38
-78 191 -105 225 -61 76 -78 179 -39 242 20 31 64 63 89 63 6 0 26 15 45 33
81 78 112 105 133 111 12 4 22 11 22 16 0 4 21 20 47 36 26 15 63 42 82 61 20
18 52 47 71 63 19 17 52 46 73 65 21 19 41 35 45 35 5 0 51 41 103 91 52 50
114 105 137 123 24 17 55 49 68 72 14 23 42 54 63 68 22 15 73 64 114 109 41
45 100 109 131 142 31 33 63 72 71 87 8 15 24 29 35 33 11 4 27 21 34 39 8 19
38 58 67 87 30 30 59 66 66 80 6 15 25 42 41 60 16 19 37 51 45 71 9 21 21 38
26 38 6 0 19 17 30 37 10 21 33 55 50 77 17 21 31 47 31 56 0 10 16 38 36 62
20 23 43 57 50 74 7 17 20 36 28 43 8 7 22 34 31 61 9 26 26 60 38 74 13 14
29 47 36 73 8 27 24 59 36 73 13 14 26 45 30 70 4 25 18 66 30 91 13 25 31 74
40 110 9 35 27 80 40 99 18 25 29 64 40 140 9 58 26 146 38 195 21 87 22 106
22 645 l0 555 -27 110 c-15 61 -32 139 -39 175 -6 36 -19 79 -29 95 -9 17 -25
62 -33 102 -9 39 -29 96 -46 125 -16 29 -32 71 -36 93 -4 21 -17 52 -30 67
-13 15 -31 52 -39 82 -9 29 -23 59 -32 66 -20 17 -44 64 -44 86 0 9 -18 43
-40 76 -22 33 -40 67 -40 74 0 8 -11 19 -24 25 -18 8 -28 27 -40 68 -11 41
-24 63 -46 79 -16 13 -30 29 -30 37 0 8 -9 19 -21 25 -11 6 -28 30 -38 53 -10
23 -30 56 -44 73 -15 17 -31 43 -37 58 -5 14 -20 31 -32 37 -21 10 -65 62 -94
111 -7 11 -25 34 -41 51 -15 18 -39 47 -51 65 -24 33 -154 173 -288 306 -39
39 -76 81 -83 94 -6 12 -17 22 -23 22 -15 0 -89 68 -116 107 -12 18 -28 33
-33 33 -6 0 -27 15 -48 34 -20 19 -62 58 -95 88 -32 29 -68 63 -79 75 -10 12
-32 27 -48 33 -15 7 -35 23 -44 36 -9 14 -31 32 -50 41 -19 9 -37 24 -40 34
-3 9 -16 20 -29 23 -12 3 -35 17 -49 30 -15 14 -46 37 -70 50 -23 14 -48 34
-55 46 -7 11 -19 20 -27 20 -9 0 -30 14 -48 30 -46 44 -116 96 -159 120 -20
11 -43 28 -50 39 -7 10 -31 26 -53 35 -22 9 -49 25 -60 34 -11 10 -32 24 -47
31 -15 8 -43 29 -62 47 -20 19 -42 34 -49 34 -7 0 -24 11 -38 24 -15 13 -49
36 -76 50 -28 14 -53 32 -56 40 -3 8 -20 17 -38 21 -36 8 -63 21 -94 46 -11 9
-41 23 -67 33 -25 9 -53 28 -62 41 -8 13 -29 26 -46 30 -17 4 -43 17 -58 30
-15 12 -51 31 -81 41 -30 11 -65 29 -77 42 -13 12 -32 22 -42 22 -11 0 -39 17
-63 39 -24 21 -54 41 -67 45 -12 4 -35 18 -50 31 -15 13 -54 31 -86 40 -32 9
-67 26 -78 37 -10 10 -39 28 -63 38 -24 10 -47 25 -52 33 -4 7 -35 24 -68 37
-33 13 -65 30 -72 38 -13 16 -79 33 -99 25 -23 -9 -16 -21 21 -34 22 -8 38
-22 41 -35 3 -12 19 -28 35 -34 16 -7 46 -26 67 -42 20 -16 49 -32 65 -35 16
-3 38 -19 50 -34 11 -16 27 -29 34 -29 7 0 29 -15 49 -32 20 -18 52 -42 69
-53 46 -28 115 -80 148 -109 15 -15 36 -26 45 -26 9 0 31 -13 47 -28 17 -15
45 -37 63 -47 17 -11 34 -27 37 -35 3 -9 22 -26 43 -37 20 -12 47 -33 59 -47
13 -14 28 -26 35 -26 6 0 43 -32 82 -71 39 -38 95 -94 124 -122 28 -29 54 -59
57 -68 3 -9 14 -20 24 -25 35 -16 251 -227 257 -250 3 -12 14 -24 24 -27 11
-3 28 -19 38 -37 11 -18 34 -40 51 -51 17 -10 31 -25 31 -34 0 -8 9 -19 19
-25 11 -5 30 -28 42 -50 12 -22 31 -42 40 -45 10 -3 21 -15 24 -26 4 -12 28
-44 54 -72 60 -67 87 -106 94 -138 4 -14 22 -42 41 -61 19 -20 38 -49 42 -65
4 -15 18 -41 31 -58 36 -44 100 -149 108 -176 4 -13 17 -40 30 -59 13 -19 29
-53 36 -75 7 -22 25 -53 40 -70 16 -17 33 -51 39 -78 5 -26 23 -71 39 -100 16
-29 33 -74 36 -102 4 -27 20 -73 36 -100 15 -28 31 -71 34 -95 9 -66 27 -144
35 -155 19 -26 32 -92 46 -224 8 -80 19 -161 25 -180 16 -53 23 -404 10 -471
-17 -84 -29 -165 -40 -276 -6 -62 -19 -120 -32 -150 -12 -27 -28 -87 -36 -134
-8 -50 -25 -108 -42 -140 -15 -30 -34 -84 -40 -120 -7 -36 -24 -85 -37 -110
-13 -25 -32 -65 -43 -90 -11 -25 -29 -61 -41 -80 -11 -19 -27 -51 -35 -70 -8
-19 -33 -66 -54 -105 -22 -38 -54 -98 -71 -132 -17 -33 -37 -63 -45 -66 -7 -3
-23 -27 -34 -52 -11 -26 -32 -60 -46 -77 -14 -16 -25 -34 -25 -40 0 -10 -35
-53 -95 -120 -34 -36 -122 -154 -136 -181 -21 -39 -72 -96 -90 -102 -10 -4
-24 -18 -31 -33 -7 -15 -28 -36 -45 -47 -18 -11 -32 -26 -33 -32 0 -7 -15 -23
-33 -35 -19 -12 -41 -35 -50 -51 -10 -16 -26 -31 -37 -34 -11 -3 -20 -11 -20
-18 0 -7 -18 -27 -39 -45 -22 -17 -43 -40 -46 -50 -4 -11 -11 -20 -16 -20 -13
0 -114 -102 -122 -123 -3 -9 -18 -22 -32 -29 -14 -6 -25 -17 -25 -24 0 -18
-40 -44 -66 -44 -31 0 -80 50 -92 92 -7 25 -6 54 2 95 9 43 10 173 5 508 -11
640 -31 1038 -59 1165 -6 25 -21 129 -34 232 -14 103 -34 224 -45 270 -10 46
-27 153 -35 238 -9 86 -25 187 -36 225 -11 39 -29 125 -40 193 -11 68 -29 142
-39 165 -10 23 -24 74 -31 112 -6 39 -24 111 -40 160 -16 50 -32 115 -35 145
-4 30 -17 87 -30 125 -13 39 -44 140 -70 225 -25 85 -55 178 -65 205 -11 28
-33 94 -49 147 -17 54 -35 106 -40 116 -6 11 -20 55 -31 98 -12 43 -30 93 -41
111 -11 18 -29 61 -39 95 -21 70 -64 176 -102 253 -14 28 -31 68 -38 90 -7 22
-21 55 -32 73 -11 18 -26 54 -32 80 -7 26 -27 69 -45 96 -17 28 -31 55 -31 60
0 6 -13 38 -30 71 -16 33 -52 114 -80 179 -28 66 -66 143 -85 172 -19 29 -35
55 -35 58 0 4 -10 23 -23 44 -13 20 -31 62 -41 92 -10 30 -30 70 -45 90 -59
77 -132 200 -162 271 -12 30 -30 63 -40 74 -10 11 -45 67 -80 125 -34 58 -67
109 -74 115 -7 5 -33 51 -60 100 -26 50 -57 101 -69 115 -12 14 -32 45 -46 70
-13 25 -34 56 -47 69 -13 13 -23 29 -23 36 0 6 -10 20 -21 31 -12 10 -38 44
-57 74 -20 30 -41 60 -46 67 -6 7 -27 35 -46 64 -19 28 -60 85 -91 127 -31 43
-69 97 -85 122 -16 25 -38 52 -49 61 -11 9 -42 50 -70 90 -27 41 -89 120 -138
175 -49 56 -100 119 -115 140 -14 22 -31 44 -38 49 -6 6 -52 57 -102 115 -113
130 -207 232 -342 372 -58 59 -152 158 -210 219 -58 62 -113 119 -124 128 -10
9 -44 40 -75 70 -31 30 -87 81 -125 113 -37 33 -96 86 -130 118 -102 99 -139
131 -178 156 -21 14 -38 28 -38 34 0 5 -39 42 -87 82 -49 40 -111 93 -139 118
-28 25 -79 65 -113 90 -34 25 -77 57 -95 73 -19 15 -37 27 -41 27 -4 0 -25 18
-47 40 -22 21 -48 42 -59 45 -10 4 -19 10 -19 15 0 5 -17 19 -37 31 -21 12
-59 40 -84 61 -26 21 -50 38 -54 38 -4 0 -13 7 -19 16 -6 8 -28 25 -48 37 -68
42 -234 156 -258 179 -25 23 -92 66 -163 103 -21 11 -46 27 -55 36 -28 26
-274 179 -287 179 -6 0 -51 28 -169 106 -65 42 -125 76 -196 110 -41 20 -77
39 -80 43 -7 10 -160 97 -213 121 -23 11 -49 24 -57 30 -8 5 -44 23 -80 40
-36 17 -76 37 -90 44 -14 7 -50 25 -80 39 -30 14 -97 46 -149 71 -51 25 -98
46 -104 46 -6 0 -45 17 -86 39 -42 21 -94 44 -116 51 -22 7 -89 37 -150 67
-60 30 -132 62 -160 70 -27 8 -63 23 -80 32 -16 10 -59 26 -94 35 -92 25 -204
79 -228 109 -20 26 -73 214 -73 261 0 14 -5 35 -10 48 -6 13 -19 68 -29 123
-11 55 -26 120 -34 145 -8 25 -23 72 -32 105 -10 33 -26 72 -37 87 -10 15 -27
51 -37 80 -28 78 -95 234 -108 249 -6 8 -21 39 -32 70 -12 31 -31 65 -42 75
-12 11 -33 42 -46 69 -14 28 -53 91 -87 140 -34 50 -76 113 -93 140 -17 28
-46 67 -65 87 -18 21 -46 55 -63 77 -34 46 -396 412 -505 511 -39 35 -83 69
-99 76 -15 6 -43 25 -62 41 -19 17 -44 35 -56 42 -13 6 -33 21 -45 32 -73 64
-110 90 -150 108 -25 11 -49 25 -53 31 -4 7 -33 23 -64 37 -31 14 -70 36 -88
49 -17 13 -34 24 -36 24 -3 0 -28 16 -57 35 -28 19 -74 41 -102 50 -28 8 -61
21 -73 29 -12 8 -39 19 -61 25 -21 6 -63 26 -93 45 -30 19 -68 38 -85 42 -17
3 -52 17 -78 30 -26 13 -54 24 -63 24 -21 0 -134 37 -165 54 -14 8 -54 19 -90
26 -62 11 -109 24 -191 55 -20 8 -80 21 -134 30 -53 8 -124 25 -157 36 -48 16
-113 23 -292 34 -127 8 -267 21 -311 29 -99 18 -217 23 -360 16z m451 -345
c115 -9 223 -20 239 -25 17 -5 102 -20 190 -34 88 -14 189 -32 225 -40 36 -8
90 -19 120 -26 30 -6 75 -17 100 -25 156 -46 257 -80 284 -95 17 -10 60 -26
96 -34 36 -9 90 -29 120 -45 30 -16 71 -31 91 -35 21 -4 43 -13 49 -21 7 -9
33 -24 59 -36 25 -11 67 -33 92 -50 25 -16 52 -29 59 -29 20 0 163 -86 190
-115 13 -14 27 -25 32 -25 4 0 37 -20 72 -45 36 -25 69 -45 74 -45 5 0 19 -11
32 -25 13 -14 28 -25 34 -25 11 0 133 -101 271 -223 87 -77 324 -318 325 -329
0 -4 35 -49 78 -101 42 -52 99 -128 125 -168 26 -41 58 -89 70 -106 59 -86 98
-152 108 -183 7 -19 17 -42 24 -50 7 -8 25 -46 40 -85 15 -38 38 -88 50 -110
13 -22 28 -64 34 -93 6 -29 18 -67 27 -84 9 -18 27 -73 40 -122 14 -50 31
-106 40 -124 8 -18 20 -59 25 -92 8 -49 7 -66 -6 -91 -16 -30 -18 -31 -73 -26
-31 2 -113 23 -182 46 -185 62 -278 90 -340 102 -74 15 -189 45 -221 57 -14 6
-68 18 -120 27 -51 9 -112 25 -135 36 -22 10 -102 28 -176 39 -75 11 -155 27
-179 36 -44 15 -162 36 -274 49 -33 3 -110 17 -170 31 -61 13 -156 28 -210 34
-173 16 -269 28 -315 39 -25 6 -166 20 -315 31 -148 11 -340 25 -425 31 -308
23 -1482 2 -1800 -32 -52 -5 -138 -12 -190 -15 -52 -3 -122 -11 -155 -19 -33
-8 -107 -19 -165 -25 -58 -7 -145 -18 -195 -27 -49 -8 -142 -23 -205 -33 -240
-38 -482 -84 -580 -110 -41 -11 -135 -34 -209 -51 -74 -16 -150 -37 -169 -44
-18 -8 -73 -22 -120 -30 -48 -9 -139 -31 -202 -49 -212 -62 -269 -76 -283 -71
-7 3 -19 20 -25 39 -21 56 -20 62 55 331 20 72 65 179 134 320 21 44 39 85 39
91 0 5 12 26 26 45 14 19 33 49 40 67 8 18 36 65 62 104 26 39 57 87 69 107
32 52 43 68 88 124 22 27 59 77 81 111 47 69 405 426 453 450 17 9 31 20 31
25 0 21 326 261 355 261 7 0 20 9 30 20 18 20 117 80 200 122 108 54 202 105
225 121 14 9 34 17 45 17 11 0 47 13 80 30 33 16 65 30 72 30 17 0 98 28 163
55 72 31 303 104 360 115 25 5 88 17 140 28 52 11 154 29 225 41 72 12 166 29
210 37 177 32 549 40 841 19z m274 -2640 c118 -8 289 -19 380 -25 153 -10 347
-29 664 -66 71 -8 165 -23 210 -34 104 -23 205 -39 334 -50 57 -5 126 -16 155
-25 29 -8 113 -26 187 -41 74 -14 139 -29 145 -34 5 -4 56 -17 112 -29 56 -11
118 -27 138 -35 20 -9 90 -27 156 -41 66 -14 133 -32 149 -40 16 -8 62 -22
102 -30 40 -9 109 -31 153 -49 44 -19 96 -37 115 -41 19 -4 46 -14 59 -23 14
-8 63 -23 109 -34 46 -10 100 -27 121 -37 20 -11 63 -26 96 -35 33 -9 78 -25
100 -36 56 -26 188 -78 260 -102 33 -12 80 -31 105 -43 25 -13 76 -33 115 -44
38 -12 79 -28 90 -35 11 -7 76 -38 145 -70 69 -32 132 -64 141 -72 8 -7 35
-20 60 -28 62 -20 237 -101 258 -120 10 -9 22 -16 27 -16 5 0 40 -18 77 -39
37 -22 84 -45 105 -52 20 -7 44 -19 52 -26 9 -7 36 -23 60 -36 144 -76 187
-100 200 -112 8 -7 45 -28 81 -47 112 -56 162 -86 224 -133 33 -24 79 -54 103
-65 23 -11 62 -34 86 -52 24 -18 59 -42 77 -53 95 -57 118 -72 150 -96 19 -14
42 -29 52 -32 9 -4 17 -11 17 -17 0 -6 19 -19 43 -29 23 -10 62 -35 85 -55 24
-20 47 -36 51 -36 3 0 20 -12 37 -27 17 -16 51 -40 75 -56 48 -30 73 -48 211
-154 184 -142 306 -243 357 -294 15 -15 44 -36 66 -47 22 -11 83 -61 135 -112
52 -50 125 -114 162 -143 36 -29 70 -59 75 -68 4 -9 53 -56 108 -104 54 -47
120 -110 145 -139 25 -29 71 -75 102 -103 66 -60 269 -266 318 -324 42 -50 89
-101 177 -194 37 -38 90 -100 119 -138 28 -37 80 -98 115 -136 35 -38 81 -91
102 -117 139 -180 176 -229 212 -280 22 -32 54 -72 70 -90 47 -49 88 -105 120
-159 15 -27 31 -52 35 -55 4 -3 19 -25 34 -50 15 -25 49 -74 77 -110 27 -36
56 -80 64 -98 9 -18 24 -41 34 -51 10 -10 29 -39 41 -64 13 -26 34 -57 47 -69
13 -12 23 -27 23 -34 0 -7 6 -19 13 -26 24 -24 112 -162 126 -198 8 -19 27
-52 42 -72 16 -20 34 -49 41 -65 7 -15 41 -72 75 -126 34 -54 67 -115 74 -135
6 -21 17 -44 24 -52 7 -8 24 -37 37 -65 38 -77 107 -207 117 -219 4 -6 18 -41
30 -78 12 -36 28 -72 36 -78 8 -6 22 -33 31 -58 10 -26 26 -59 37 -75 10 -15
29 -55 43 -89 13 -34 30 -69 39 -78 8 -9 25 -47 39 -86 29 -84 80 -207 105
-254 11 -19 24 -55 31 -79 6 -25 22 -59 35 -76 14 -17 33 -67 44 -110 22 -88
76 -243 110 -317 12 -26 30 -78 41 -115 10 -38 28 -97 40 -133 54 -163 89
-279 100 -331 6 -31 19 -78 30 -106 10 -27 28 -101 40 -163 12 -63 28 -126 35
-141 8 -15 24 -80 35 -145 11 -66 29 -153 40 -194 11 -41 28 -129 39 -195 11
-66 26 -136 34 -155 8 -19 19 -89 25 -156 6 -66 22 -181 36 -255 14 -74 32
-232 41 -354 9 -121 26 -299 38 -395 20 -163 21 -218 21 -790 0 -518 -3 -633
-16 -730 -10 -63 -20 -143 -23 -178 -7 -74 -21 -109 -46 -117 -10 -3 -21 -15
-24 -26 -4 -11 -24 -31 -46 -45 -21 -13 -39 -29 -39 -34 0 -6 -21 -20 -46 -31
-26 -10 -60 -31 -77 -45 -44 -37 -70 -44 -112 -33 -29 8 -40 18 -52 47 -17 39
-12 111 22 362 7 58 19 231 25 385 22 594 7 1093 -49 1552 -11 89 -25 228 -31
308 -6 80 -16 158 -21 173 -6 15 -21 108 -34 207 -21 167 -49 307 -96 495 -11
41 -33 146 -50 232 -16 86 -48 217 -70 290 -22 73 -52 173 -65 221 -13 48 -35
114 -48 145 -13 31 -27 82 -31 112 -4 30 -20 84 -35 120 -15 36 -37 95 -49
132 -11 37 -29 85 -40 107 -12 22 -21 45 -21 52 0 6 -17 53 -39 103 -21 50
-44 121 -51 158 -7 37 -18 72 -26 78 -7 7 -18 28 -25 48 -6 20 -29 75 -51 122
-22 47 -53 112 -68 145 -16 33 -31 73 -34 88 -4 16 -40 98 -81 182 -41 84 -75
158 -75 165 0 6 -11 26 -24 43 -13 18 -29 48 -35 67 -6 19 -22 51 -35 70 -12
19 -31 56 -41 82 -9 26 -28 62 -41 80 -13 17 -24 35 -24 40 0 7 -73 131 -117
199 -13 19 -23 40 -23 46 0 5 -20 41 -45 79 -25 37 -45 74 -45 81 0 7 -15 30
-34 50 -33 38 -106 166 -106 188 0 6 -15 29 -33 51 -18 21 -44 55 -57 74 -13
19 -27 37 -30 40 -9 7 -100 158 -100 166 0 7 -48 74 -91 127 -14 18 -36 48
-49 67 -13 19 -28 40 -34 45 -7 6 -23 28 -36 50 -13 22 -35 54 -49 71 -14 17
-37 46 -51 64 -14 19 -44 54 -67 80 -24 26 -50 63 -58 83 -8 21 -19 37 -25 37
-5 0 -33 30 -62 66 -29 36 -80 98 -114 138 -33 39 -86 103 -119 141 -102 122
-177 206 -275 305 -52 53 -106 113 -120 133 -14 20 -28 37 -32 37 -7 0 -151
142 -189 186 -9 11 -54 53 -100 94 -46 41 -99 91 -119 110 -31 30 -102 97
-320 301 -25 23 -70 59 -100 78 -31 20 -76 56 -100 80 -25 24 -94 80 -155 126
-99 75 -165 129 -263 216 -18 16 -39 29 -47 29 -8 0 -49 28 -92 63 -79 64
-203 149 -245 167 -22 10 -44 24 -132 87 -42 30 -83 57 -135 88 -18 11 -53 34
-78 50 -25 17 -57 37 -72 45 -14 8 -65 41 -112 73 -48 31 -112 71 -143 87 -31
17 -82 44 -113 60 -31 17 -64 37 -73 44 -8 7 -30 19 -48 26 -18 7 -50 25 -71
41 -31 22 -261 139 -274 139 -2 0 -46 23 -98 51 -52 28 -116 59 -144 69 -27 9
-66 27 -85 39 -19 11 -42 21 -50 21 -8 0 -77 31 -153 70 -76 38 -166 78 -200
89 -34 10 -96 33 -137 51 -41 18 -84 36 -95 41 -11 5 -27 13 -35 18 -34 21
-209 90 -255 102 -27 6 -63 19 -79 27 -17 8 -70 25 -118 38 -49 13 -113 35
-142 49 -29 14 -64 25 -77 25 -13 1 -49 10 -79 21 -30 11 -93 31 -140 43 -47
13 -120 35 -162 50 -42 14 -91 26 -109 26 -17 0 -77 16 -133 35 -56 19 -146
42 -201 50 -55 9 -122 24 -150 34 -27 10 -88 24 -135 30 -47 7 -113 23 -147
37 -66 25 -75 27 -243 45 -58 6 -134 19 -170 29 -36 10 -101 21 -145 24 -77 6
-142 16 -305 49 -41 9 -127 20 -190 26 -63 6 -225 21 -360 33 -220 21 -301 23
-785 23 -353 0 -582 -4 -660 -12 -66 -7 -190 -17 -275 -23 -170 -12 -425 -43
-535 -66 -38 -7 -133 -21 -210 -29 -77 -8 -160 -21 -185 -29 -25 -7 -119 -23
-209 -35 -91 -12 -195 -32 -235 -46 -39 -13 -100 -29 -136 -35 -36 -6 -85 -17
-110 -25 -25 -8 -83 -21 -130 -30 -92 -17 -287 -68 -440 -115 -52 -16 -122
-36 -155 -44 -33 -9 -85 -25 -115 -37 -30 -11 -80 -25 -111 -29 -31 -4 -82
-20 -114 -35 -32 -14 -90 -34 -129 -43 -39 -10 -82 -25 -96 -34 -14 -9 -62
-25 -108 -37 -46 -11 -95 -29 -110 -39 -15 -11 -45 -25 -67 -33 -22 -7 -51
-21 -65 -30 -14 -9 -46 -21 -72 -27 -25 -7 -79 -27 -120 -46 -40 -18 -88 -37
-107 -41 -36 -8 -151 -62 -212 -101 -20 -12 -60 -29 -89 -38 -29 -9 -63 -22
-74 -29 -12 -7 -51 -25 -88 -41 -36 -15 -74 -36 -84 -47 -9 -10 -25 -19 -34
-19 -10 0 -33 -10 -52 -22 -55 -37 -90 -55 -133 -68 -22 -7 -47 -18 -55 -25
-8 -7 -33 -20 -55 -29 -41 -17 -167 -90 -195 -112 -8 -6 -40 -22 -70 -35 -30
-12 -68 -32 -85 -44 -16 -12 -48 -32 -70 -44 -45 -25 -126 -77 -212 -137 -32
-22 -73 -46 -91 -52 -18 -6 -50 -24 -70 -40 -20 -16 -82 -57 -137 -92 -55 -34
-127 -82 -160 -106 -33 -24 -76 -55 -95 -69 -19 -14 -62 -45 -95 -70 -33 -25
-81 -59 -107 -76 -27 -17 -48 -35 -48 -39 0 -5 -9 -12 -21 -15 -11 -4 -36 -20
-54 -37 -36 -31 -59 -48 -142 -107 -53 -37 -68 -50 -132 -110 -48 -45 -108
-93 -197 -156 -48 -34 -139 -114 -233 -205 -14 -13 -53 -47 -86 -74 -33 -28
-62 -55 -64 -61 -2 -5 -31 -35 -64 -65 -156 -142 -546 -546 -697 -721 -19 -22
-66 -74 -105 -114 -38 -40 -88 -99 -110 -130 -22 -31 -74 -96 -115 -145 -41
-49 -96 -117 -122 -152 -26 -34 -59 -76 -73 -92 -14 -16 -25 -35 -25 -41 0 -7
-7 -19 -16 -26 -9 -7 -31 -36 -50 -64 -40 -60 -87 -122 -113 -150 -19 -21 -58
-78 -104 -154 -16 -25 -39 -57 -52 -71 -21 -23 -30 -37 -75 -120 -8 -15 -34
-52 -58 -82 -23 -30 -42 -60 -42 -65 0 -6 -7 -16 -16 -24 -9 -7 -31 -43 -50
-80 -18 -37 -38 -71 -44 -74 -6 -4 -22 -32 -36 -63 -14 -31 -28 -59 -32 -62
-5 -3 -19 -23 -32 -45 -13 -22 -32 -48 -41 -58 -9 -10 -22 -37 -29 -60 -6 -23
-30 -68 -51 -101 -21 -32 -39 -63 -39 -69 0 -6 -6 -18 -14 -26 -18 -20 -116
-211 -116 -226 0 -6 -13 -31 -29 -56 -16 -24 -37 -64 -47 -89 -10 -25 -28 -61
-41 -80 -13 -19 -23 -41 -23 -49 0 -13 -67 -162 -114 -251 -13 -25 -29 -63
-36 -85 -7 -22 -20 -53 -30 -70 -10 -16 -28 -59 -41 -95 -12 -36 -28 -74 -35
-85 -7 -11 -24 -54 -38 -95 -49 -148 -96 -272 -111 -293 -8 -12 -15 -29 -15
-39 0 -27 -98 -326 -126 -384 -14 -28 -32 -86 -40 -130 -9 -43 -22 -89 -30
-100 -7 -12 -20 -59 -29 -105 -9 -46 -28 -112 -41 -146 -14 -35 -34 -109 -45
-165 -12 -57 -26 -111 -31 -121 -5 -10 -18 -80 -29 -154 -10 -75 -28 -168 -39
-207 -29 -103 -40 -168 -50 -287 -5 -59 -16 -124 -25 -145 -16 -39 -28 -128
-45 -339 -5 -66 -16 -152 -24 -192 -9 -39 -20 -129 -26 -200 -13 -159 -28
-991 -23 -1253 5 -301 30 -754 49 -912 9 -76 0 -103 -43 -133 -36 -24 -38 -24
-58 -6 -11 10 -34 26 -51 34 -17 9 -37 23 -44 32 -8 10 -37 27 -65 40 -27 12
-72 42 -98 66 -44 41 -49 50 -57 109 -5 36 -10 102 -10 147 0 45 -7 112 -16
150 -11 46 -18 149 -23 318 -9 307 4 1208 18 1290 6 33 16 116 21 185 12 144
39 388 45 410 9 31 63 338 70 400 4 36 12 76 17 89 5 14 18 91 29 172 11 81
26 171 34 200 8 30 26 105 40 168 14 62 29 121 34 130 5 9 21 71 36 139 14 68
33 138 40 156 8 18 21 75 30 127 15 90 83 314 112 372 14 27 32 85 99 307 18
63 40 129 48 145 32 66 89 203 106 257 10 32 27 72 38 90 11 18 22 46 26 61 4
15 22 60 40 100 18 40 36 85 40 100 4 16 18 45 31 65 13 20 34 64 46 97 12 33
29 71 39 85 9 14 22 41 30 60 7 19 21 49 31 65 9 17 27 54 39 84 11 30 30 67
41 82 11 16 25 43 31 61 6 18 23 53 38 78 80 135 98 169 108 206 7 23 25 57
41 77 15 20 34 50 41 67 7 16 16 30 21 30 4 0 17 21 29 47 11 26 31 61 44 78
13 17 31 47 39 66 13 31 33 63 149 238 21 31 46 72 57 92 11 20 58 92 104 160
117 174 133 196 162 232 14 18 35 46 45 62 11 17 40 57 65 90 25 33 57 78 72
100 14 22 32 45 39 52 6 7 22 28 34 48 12 19 25 35 29 35 4 0 14 12 23 28 10
15 28 39 41 54 13 15 32 39 43 54 10 15 28 37 40 48 11 12 31 37 44 56 14 19
32 42 40 51 8 9 35 42 60 73 25 31 48 56 52 56 3 0 23 24 43 53 21 28 65 79
99 112 33 33 79 83 101 110 112 138 792 815 877 873 13 9 62 52 109 96 47 45
105 94 130 111 36 24 142 113 234 197 43 40 151 118 162 118 6 0 18 9 26 20
15 22 80 73 133 106 19 11 44 30 56 41 13 11 55 41 93 66 39 26 97 67 131 92
33 25 66 45 72 45 6 0 17 8 24 19 7 10 27 25 44 34 17 9 36 23 44 32 7 9 37
27 66 40 29 13 55 29 59 35 9 14 170 120 184 120 6 0 47 27 91 60 44 34 99 68
122 76 23 8 49 21 58 28 8 7 67 42 130 77 63 35 134 78 158 96 24 18 48 33 54
33 5 0 22 8 36 19 15 10 41 22 58 25 18 4 53 21 79 37 26 17 68 40 94 53 25
12 55 27 66 34 28 16 240 112 248 112 3 0 56 27 117 60 61 33 136 67 168 76
31 9 67 24 79 34 12 9 51 27 85 40 35 12 79 30 98 40 19 9 50 20 69 24 18 3
60 19 92 36 32 16 84 37 116 46 32 9 69 25 82 35 13 11 30 19 38 19 8 0 83 22
166 49 84 27 168 53 187 59 19 6 87 29 150 52 63 23 147 51 185 62 39 11 93
29 120 39 28 11 88 27 135 36 47 8 120 27 163 40 43 13 106 29 140 34 34 6 94
21 132 35 39 13 108 31 155 40 47 8 130 25 185 38 55 13 154 29 220 35 66 7
185 25 265 41 134 27 223 41 450 69 47 6 236 20 420 31 184 12 385 25 445 29
200 15 1052 12 1285 -4z m-973 -1795 c24 -10 54 -30 68 -44 21 -22 23 -29 14
-53 -5 -15 -16 -32 -23 -38 -7 -5 -25 -32 -41 -60 -15 -27 -38 -61 -51 -75
-12 -14 -25 -35 -29 -48 -3 -12 -15 -27 -26 -33 -11 -5 -31 -34 -44 -62 -13
-29 -33 -61 -44 -71 -12 -11 -21 -25 -21 -33 0 -8 -10 -24 -22 -37 -13 -13
-35 -46 -49 -72 -14 -27 -35 -53 -47 -59 -12 -5 -27 -24 -33 -42 -6 -18 -21
-41 -33 -50 -13 -11 -25 -34 -29 -58 -4 -27 -18 -50 -44 -76 -21 -20 -51 -54
-66 -75 -41 -57 -117 -177 -117 -185 0 -3 -16 -26 -35 -50 -19 -24 -35 -49
-35 -54 0 -6 -14 -25 -30 -44 -17 -18 -37 -45 -44 -60 -8 -15 -22 -34 -31 -41
-10 -8 -27 -37 -40 -65 -12 -27 -34 -61 -49 -74 -14 -14 -26 -30 -26 -36 0 -6
-13 -24 -30 -38 -16 -15 -30 -33 -30 -40 0 -6 -20 -43 -45 -82 -25 -38 -45
-73 -45 -78 0 -9 -9 -22 -84 -118 -25 -30 -51 -72 -60 -92 -8 -20 -19 -37 -25
-37 -5 0 -23 -28 -40 -62 -36 -73 -80 -136 -105 -150 -9 -5 -28 -33 -42 -61
-30 -63 -63 -111 -104 -154 -16 -18 -30 -39 -30 -46 0 -8 -15 -34 -32 -58 -18
-24 -37 -57 -43 -74 -5 -16 -20 -34 -33 -40 -15 -7 -30 -30 -44 -68 -12 -32
-28 -63 -38 -70 -9 -7 -22 -27 -30 -46 -8 -19 -29 -54 -47 -78 -18 -24 -33
-47 -33 -51 0 -5 -12 -19 -26 -33 -25 -23 -70 -94 -108 -167 -10 -20 -31 -52
-47 -70 -16 -18 -29 -36 -29 -41 0 -4 -12 -21 -26 -37 -14 -16 -32 -43 -40
-61 -8 -18 -27 -47 -43 -65 -15 -18 -31 -43 -35 -55 -4 -11 -22 -41 -41 -65
-19 -23 -35 -48 -35 -53 0 -6 -13 -25 -29 -42 -16 -18 -35 -49 -42 -70 -6 -21
-26 -55 -43 -75 -72 -86 -118 -156 -162 -248 -9 -19 -29 -51 -44 -70 -15 -19
-30 -45 -34 -58 -4 -12 -19 -36 -33 -53 -15 -17 -39 -57 -54 -90 -16 -32 -33
-59 -38 -59 -6 0 -13 -11 -17 -25 -3 -14 -19 -36 -34 -49 -16 -13 -38 -46 -50
-75 -13 -28 -26 -51 -31 -51 -5 0 -20 -21 -33 -47 -30 -62 -90 -160 -113 -185
-25 -27 -58 -83 -93 -155 -16 -34 -38 -67 -48 -75 -11 -7 -23 -24 -27 -38 -8
-27 -39 -74 -67 -102 -10 -10 -18 -25 -18 -34 0 -9 -11 -29 -25 -46 -13 -16
-33 -52 -42 -80 -11 -31 -26 -54 -40 -60 -13 -6 -24 -23 -27 -42 -4 -18 -20
-46 -37 -62 -17 -16 -40 -49 -51 -73 -10 -24 -25 -49 -33 -55 -8 -6 -23 -35
-34 -64 -12 -29 -27 -63 -35 -75 -8 -12 -19 -39 -25 -59 -7 -21 -27 -48 -47
-63 -24 -18 -34 -34 -34 -53 0 -31 -33 -90 -55 -98 -8 -4 -15 -13 -15 -20 0
-8 -15 -30 -33 -48 -18 -18 -39 -48 -47 -67 -7 -19 -23 -47 -34 -64 -12 -16
-31 -47 -42 -70 -12 -22 -36 -67 -53 -100 -18 -33 -40 -69 -50 -80 -10 -11
-24 -37 -31 -58 -6 -21 -22 -50 -34 -65 -13 -15 -33 -46 -45 -70 -12 -24 -31
-52 -41 -62 -11 -11 -20 -25 -20 -31 0 -17 -42 -99 -51 -99 -3 0 -16 -22 -28
-49 -11 -28 -26 -53 -32 -56 -5 -4 -21 -30 -33 -59 -13 -29 -33 -62 -45 -72
-11 -11 -28 -40 -36 -64 -9 -25 -27 -61 -40 -80 -13 -19 -27 -47 -30 -62 -4
-14 -20 -41 -35 -58 -16 -18 -32 -45 -35 -61 -4 -16 -17 -37 -31 -48 -15 -12
-28 -37 -35 -71 -7 -32 -21 -63 -36 -78 -14 -14 -34 -45 -44 -69 -11 -25 -28
-57 -39 -71 -11 -14 -29 -44 -39 -68 -11 -23 -28 -51 -40 -63 -12 -12 -21 -28
-21 -37 0 -9 -15 -44 -34 -77 -18 -34 -37 -73 -41 -87 -4 -13 -23 -47 -41 -73
-19 -27 -34 -53 -34 -58 0 -4 -18 -36 -40 -70 -22 -34 -40 -68 -40 -74 0 -7
-9 -24 -20 -38 -11 -14 -32 -56 -46 -94 -14 -37 -32 -72 -40 -76 -7 -4 -20
-30 -28 -58 -8 -27 -24 -62 -34 -77 -10 -15 -27 -49 -37 -75 -10 -26 -28 -56
-41 -66 -12 -10 -26 -34 -29 -54 -4 -20 -20 -56 -35 -79 -16 -24 -34 -64 -41
-91 -6 -27 -21 -55 -35 -66 -13 -10 -31 -40 -40 -67 -9 -27 -25 -58 -35 -70
-10 -11 -26 -42 -35 -70 -10 -27 -25 -60 -34 -74 -10 -14 -22 -48 -28 -76 -6
-28 -27 -74 -47 -103 -19 -29 -35 -59 -35 -66 0 -8 -13 -23 -29 -34 -23 -16
-32 -36 -46 -91 -10 -39 -28 -87 -42 -107 -14 -20 -27 -53 -30 -72 -7 -42 -30
-91 -43 -91 -5 0 -19 -27 -31 -60 -12 -33 -32 -71 -45 -85 -15 -17 -24 -38
-24 -59 0 -18 -13 -59 -30 -92 -16 -33 -36 -79 -45 -104 -9 -24 -24 -54 -34
-65 -10 -11 -28 -50 -40 -87 -12 -37 -30 -77 -40 -90 -10 -13 -24 -49 -31 -80
-8 -35 -22 -66 -37 -79 -12 -13 -23 -30 -23 -39 0 -39 -33 -137 -54 -160 -13
-14 -27 -43 -31 -65 -3 -22 -19 -62 -34 -90 -15 -27 -34 -70 -41 -95 -8 -25
-22 -57 -31 -71 -10 -14 -24 -53 -32 -87 -8 -34 -26 -77 -40 -95 -14 -19 -33
-64 -41 -100 -8 -36 -27 -82 -41 -102 -14 -21 -25 -45 -25 -55 0 -29 -30 -119
-45 -134 -8 -8 -24 -54 -35 -102 -12 -49 -27 -95 -35 -104 -8 -9 -17 -36 -21
-60 -9 -59 -46 -133 -81 -160 -24 -19 -37 -21 -93 -17 -110 9 -199 26 -241 48
-23 11 -75 27 -117 35 -92 17 -142 32 -162 49 -8 7 -42 17 -74 23 -32 7 -79
23 -105 37 -28 16 -81 32 -141 42 -69 12 -103 22 -123 39 -18 15 -41 24 -63
24 -39 0 -126 31 -148 53 -9 8 -48 23 -87 32 -39 9 -85 23 -102 31 -16 9 -68
27 -115 41 -47 13 -97 33 -110 43 -13 10 -47 24 -76 30 -30 6 -62 20 -71 30
-10 11 -34 23 -54 26 -53 10 -137 43 -151 59 -6 8 -33 17 -58 20 -82 11 -88
14 -124 67 -31 45 -38 69 -52 156 -9 57 -22 115 -30 130 -14 27 -22 67 -47
222 -6 41 -15 82 -20 91 -12 24 -36 187 -49 334 -7 78 -19 148 -30 175 -15 36
-22 105 -35 345 -32 596 -37 1083 -15 1390 6 88 15 247 20 354 6 129 16 226
29 285 11 50 27 161 35 246 11 106 23 177 40 227 14 39 29 114 35 167 6 52 22
128 35 168 13 40 31 117 40 170 9 53 25 117 36 142 10 25 26 81 34 124 8 44
22 97 30 118 9 22 27 88 41 147 14 60 34 125 44 145 10 20 22 57 26 82 4 25
15 60 26 77 10 18 31 75 48 127 16 51 36 104 44 117 8 13 20 49 26 79 7 30 20
69 30 86 10 17 28 56 40 88 12 32 30 74 41 94 11 20 31 65 45 100 63 157 77
189 91 212 8 14 26 49 39 78 13 29 33 64 44 78 11 14 25 42 32 62 6 20 20 48
29 62 10 14 30 56 45 94 15 38 38 85 51 104 13 19 24 40 24 47 0 7 8 19 17 26
9 8 32 46 50 84 42 86 112 210 161 284 40 59 72 114 120 202 16 31 40 67 53
81 29 31 84 109 145 203 25 39 55 81 68 95 23 26 32 39 93 130 20 30 47 63 60
73 13 10 23 23 23 29 0 6 15 29 33 52 18 23 41 55 51 71 11 17 47 58 80 93 34
35 77 87 97 117 20 29 61 78 91 108 29 30 65 72 80 94 14 21 39 53 54 69 34
35 163 174 184 198 27 31 413 409 510 500 52 49 108 97 123 106 15 10 61 48
101 86 40 38 103 92 140 119 36 28 66 53 66 57 0 8 40 37 131 95 28 17 60 42
73 55 31 32 74 69 116 98 19 13 38 29 42 36 4 7 25 21 47 32 41 22 117 76 163
117 15 13 42 32 60 41 18 9 47 28 64 40 17 13 35 24 40 24 5 0 32 16 59 36 28
19 68 43 90 53 22 10 46 25 54 34 7 10 18 17 23 17 9 0 82 50 159 109 14 11
39 26 55 33 16 7 49 25 73 40 24 15 60 33 80 39 20 7 50 24 67 39 42 37 151
96 200 109 23 6 53 20 67 31 14 12 50 32 80 46 30 13 61 31 67 39 7 8 18 15
24 15 6 0 43 15 81 33 39 19 100 44 137 56 36 12 72 29 78 36 7 8 31 20 54 26
36 9 89 32 261 114 28 13 77 31 110 40 33 9 75 25 93 36 19 11 64 28 100 38
78 23 245 85 283 106 15 8 58 21 96 29 39 8 93 24 121 35 28 11 88 30 134 41
46 12 110 32 143 44 33 13 87 26 120 29 33 4 110 22 171 41 60 20 132 40 159
45 28 5 64 15 80 21 17 6 84 18 150 26 66 8 199 30 296 49 96 19 231 39 300
45 68 5 146 17 174 25 48 15 128 23 445 45 85 6 214 17 285 24 72 8 137 14
145 14 8 1 34 -7 57 -18z m888 -10 c88 -6 267 -17 398 -26 134 -9 259 -22 285
-30 26 -8 119 -24 206 -35 88 -11 164 -23 169 -26 17 -10 123 -31 217 -43 52
-6 138 -22 190 -35 52 -13 124 -29 160 -35 36 -7 103 -24 150 -40 47 -16 120
-33 162 -39 42 -6 94 -17 115 -26 21 -8 74 -24 117 -35 44 -11 104 -31 134
-45 31 -14 84 -30 119 -35 35 -5 80 -18 100 -30 19 -11 70 -30 112 -41 42 -12
90 -29 107 -39 17 -10 58 -25 90 -35 33 -9 73 -25 90 -36 18 -11 67 -28 109
-39 42 -11 91 -28 109 -39 17 -10 45 -22 62 -25 18 -4 54 -21 80 -38 27 -17
71 -37 98 -44 26 -7 56 -20 65 -28 10 -9 44 -25 77 -36 79 -27 154 -63 337
-162 59 -32 112 -58 117 -58 12 0 188 -95 270 -146 30 -18 81 -47 114 -63 32
-16 68 -38 80 -49 11 -11 32 -25 45 -32 13 -7 44 -27 68 -46 25 -19 49 -34 55
-34 6 0 26 -11 44 -25 18 -14 43 -29 57 -34 30 -12 144 -83 177 -111 14 -11
41 -31 61 -43 74 -45 145 -95 164 -117 11 -12 33 -29 50 -37 33 -17 66 -41
123 -89 20 -17 52 -39 70 -50 17 -10 32 -22 32 -26 0 -4 24 -23 54 -43 30 -20
77 -57 104 -83 28 -26 77 -67 111 -92 115 -84 199 -156 385 -330 180 -168 213
-200 366 -358 282 -290 345 -358 390 -416 25 -32 59 -73 76 -90 17 -17 52 -60
79 -96 27 -36 68 -86 90 -112 22 -25 48 -57 57 -70 10 -12 32 -43 50 -68 18
-25 42 -58 52 -75 11 -16 27 -36 37 -42 9 -7 29 -33 43 -57 15 -25 32 -49 40
-53 15 -9 56 -69 101 -149 17 -29 38 -61 47 -71 61 -64 168 -216 168 -238 0
-6 17 -33 38 -61 21 -28 44 -65 51 -83 8 -17 17 -31 22 -31 5 0 22 -26 38 -57
74 -147 98 -191 129 -235 17 -26 32 -51 32 -56 0 -5 9 -17 20 -27 10 -9 24
-34 31 -54 6 -20 21 -52 33 -71 12 -19 30 -57 40 -85 10 -27 25 -57 32 -65 21
-25 94 -170 115 -228 10 -29 27 -65 38 -80 11 -16 23 -41 27 -58 3 -16 22 -57
40 -92 18 -35 38 -82 44 -105 6 -23 20 -54 30 -68 10 -15 26 -53 36 -85 9 -33
29 -84 44 -114 15 -30 31 -71 35 -90 4 -19 15 -51 25 -70 10 -19 27 -71 39
-115 12 -44 28 -89 36 -101 7 -11 22 -50 34 -87 11 -36 29 -83 39 -104 11 -21
30 -87 42 -148 12 -60 29 -123 37 -140 9 -16 22 -69 29 -118 7 -49 25 -118 39
-154 15 -36 33 -97 41 -137 8 -39 23 -98 34 -131 10 -33 21 -94 25 -135 3 -41
22 -170 41 -285 18 -116 38 -276 44 -358 7 -105 16 -163 31 -204 29 -80 43
-400 43 -1003 0 -497 -15 -851 -39 -940 -9 -30 -24 -144 -35 -252 -11 -108
-26 -228 -35 -265 -9 -37 -27 -152 -40 -254 -13 -102 -31 -203 -39 -225 -8
-21 -22 -74 -30 -117 -9 -42 -22 -90 -30 -105 -26 -49 -73 -90 -117 -103 -24
-7 -60 -24 -80 -37 -21 -13 -65 -30 -100 -38 -35 -8 -70 -21 -79 -28 -16 -15
-82 -39 -140 -51 -19 -4 -50 -18 -70 -30 -19 -12 -50 -25 -69 -28 -19 -4 -57
-21 -85 -38 -32 -20 -76 -36 -122 -44 -40 -7 -85 -21 -101 -32 -15 -11 -56
-25 -90 -31 -34 -6 -95 -27 -135 -46 -39 -20 -82 -36 -94 -36 -12 0 -36 -11
-52 -25 -22 -19 -51 -27 -130 -39 -72 -11 -113 -23 -142 -41 -24 -15 -65 -29
-106 -34 -40 -6 -75 -17 -88 -29 -28 -25 -46 -31 -147 -48 -47 -7 -102 -20
-122 -29 -48 -20 -107 -19 -133 4 -12 9 -31 35 -43 57 -12 21 -30 53 -40 70
-10 17 -23 53 -29 81 -6 28 -22 68 -36 87 -13 20 -29 60 -36 89 -6 28 -22 80
-35 113 -14 34 -30 86 -36 115 -6 30 -21 65 -34 79 -12 14 -28 50 -35 80 -7
30 -25 78 -40 105 -15 28 -33 74 -40 103 -6 28 -16 52 -21 52 -14 0 -28 34
-44 116 -11 53 -24 87 -40 104 -13 14 -27 39 -31 55 -3 17 -19 50 -35 75 -15
25 -33 67 -40 95 -7 27 -23 64 -35 83 -13 18 -28 57 -34 86 -6 29 -26 78 -45
107 -19 30 -35 61 -35 69 0 9 -12 33 -27 55 -14 21 -32 67 -40 102 -7 35 -22
73 -33 85 -11 12 -27 45 -35 72 -8 27 -22 57 -30 66 -8 9 -26 44 -40 77 -13
34 -35 77 -49 97 -13 19 -27 55 -30 79 -4 25 -16 53 -26 62 -11 10 -30 44 -41
77 -12 32 -25 58 -30 58 -12 0 -36 50 -44 93 -4 21 -17 52 -29 70 -12 18 -32
60 -45 94 -13 34 -31 69 -41 78 -10 9 -21 29 -25 43 -4 15 -18 42 -31 60 -33
42 -54 94 -54 131 0 17 -11 42 -25 59 -14 17 -25 35 -25 40 0 6 -16 32 -37 58
-20 27 -44 75 -54 107 -10 33 -27 69 -37 81 -10 11 -25 43 -32 70 -7 26 -24
61 -37 76 -13 16 -30 45 -39 67 -9 21 -24 47 -35 58 -10 11 -25 40 -33 63 -8
23 -26 57 -40 75 -13 17 -27 48 -31 67 -4 19 -23 57 -41 85 -19 27 -34 55 -34
62 0 7 -13 27 -30 46 -16 19 -33 53 -39 76 -5 26 -22 55 -40 73 -20 19 -33 45
-37 69 -4 21 -17 48 -30 60 -13 12 -31 45 -40 73 -10 28 -25 57 -35 63 -9 7
-25 34 -35 60 -9 27 -25 57 -34 68 -9 11 -24 41 -34 66 -9 25 -28 56 -41 69
-14 13 -30 41 -35 61 -6 21 -26 61 -45 89 -19 29 -35 58 -35 64 0 7 -11 23
-25 36 -13 12 -32 45 -41 72 -9 27 -26 60 -38 72 -12 13 -29 46 -39 74 -10 28
-25 53 -33 56 -8 3 -22 22 -30 42 -9 21 -31 60 -50 88 -19 28 -34 57 -34 65 0
7 -11 24 -24 36 -13 12 -31 46 -39 76 -9 30 -24 59 -35 65 -20 13 -112 166
-112 188 0 8 -15 32 -34 55 -18 22 -37 56 -40 76 -4 20 -14 39 -21 42 -8 3
-28 28 -45 57 -16 29 -38 60 -49 70 -11 10 -23 32 -27 50 -9 41 -79 174 -109
206 -12 14 -32 44 -44 67 -11 23 -25 45 -31 48 -6 4 -24 34 -40 68 -30 62 -59
107 -104 160 -13 15 -29 47 -36 70 -6 23 -20 51 -30 62 -10 11 -26 40 -36 65
-9 25 -32 61 -50 80 -19 20 -34 40 -34 44 0 5 -11 19 -24 31 -13 12 -31 46
-41 75 -10 31 -30 64 -46 78 -16 13 -29 30 -29 37 0 8 -8 22 -19 32 -10 10
-29 43 -42 73 -12 30 -32 64 -44 75 -12 11 -28 35 -35 53 -7 17 -16 32 -21 32
-11 0 -59 83 -59 103 0 9 -11 24 -24 33 -14 8 -33 37 -42 62 -10 26 -25 56
-34 67 -10 11 -26 36 -35 55 -10 19 -24 39 -32 43 -7 5 -27 32 -43 61 -17 29
-39 61 -50 71 -11 10 -20 24 -20 31 0 7 -13 28 -29 46 -15 18 -34 51 -41 73
-8 22 -24 49 -36 60 -12 11 -34 46 -49 78 -14 31 -31 57 -36 57 -6 0 -19 20
-30 45 -11 25 -24 45 -30 45 -6 0 -21 26 -35 58 -14 31 -36 68 -50 82 -60 62
-76 85 -95 133 -11 28 -33 66 -50 84 -16 19 -29 39 -29 46 0 7 -13 25 -30 40
-16 16 -35 47 -42 70 -7 23 -25 54 -40 69 -15 14 -28 32 -28 40 0 8 -11 25
-24 37 -14 13 -36 48 -50 77 -14 30 -30 54 -36 54 -9 0 -80 103 -80 116 0 3
-19 31 -43 62 -23 32 -49 73 -57 92 -7 19 -29 55 -47 79 -18 24 -33 49 -33 56
0 6 -13 21 -30 33 -16 13 -30 27 -30 32 0 6 -16 30 -35 55 -19 25 -37 61 -41
80 -3 20 -14 40 -24 45 -10 5 -32 34 -49 65 -17 30 -40 61 -51 67 -11 7 -20
18 -20 24 0 6 -13 28 -30 49 -16 21 -30 42 -30 48 0 5 -18 36 -40 69 -22 33
-40 64 -40 69 0 4 -18 26 -39 47 -25 24 -42 52 -46 74 -4 20 -18 46 -32 58
-13 11 -29 34 -35 51 -5 16 -14 29 -19 29 -4 0 -20 21 -35 48 -15 26 -40 62
-56 80 -15 18 -28 37 -28 42 0 6 -15 27 -34 47 -18 21 -41 53 -50 71 -9 17
-21 32 -27 32 -5 0 -21 24 -34 54 -13 29 -30 56 -39 59 -8 3 -24 25 -35 49
-24 48 -80 132 -110 163 -10 11 -31 46 -47 78 -15 31 -31 57 -36 57 -5 0 -18
20 -29 45 -11 25 -24 45 -29 45 -5 0 -16 13 -25 30 -9 16 -31 44 -50 61 -22
20 -37 45 -41 68 -4 20 -18 47 -31 61 -34 34 -89 117 -109 163 -10 20 -23 37
-30 37 -8 0 -23 19 -35 43 -12 23 -31 56 -44 72 -12 17 -27 46 -34 66 -6 20
-22 42 -36 49 -13 7 -32 29 -41 49 -9 20 -23 43 -31 52 -12 15 -9 21 28 52 47
41 66 47 129 41 25 -2 117 -8 205 -14z m-537 -1806 c17 -19 32 -40 32 -48 0
-8 13 -24 29 -35 19 -14 32 -35 39 -64 6 -24 25 -58 42 -75 16 -18 30 -38 30
-46 0 -7 15 -33 34 -56 19 -24 37 -58 40 -76 4 -18 13 -38 22 -45 8 -7 27 -37
41 -68 14 -31 37 -69 50 -84 12 -16 23 -34 23 -41 0 -7 18 -36 39 -65 22 -29
43 -66 46 -81 3 -16 13 -35 22 -42 9 -7 26 -34 38 -61 12 -26 34 -58 48 -71
17 -16 28 -39 32 -71 5 -28 16 -55 30 -68 12 -12 35 -44 50 -72 15 -27 33 -57
41 -66 8 -8 14 -24 14 -35 0 -10 8 -31 18 -45 9 -15 30 -46 46 -70 63 -95 75
-115 84 -152 6 -21 24 -50 40 -65 17 -16 35 -45 40 -65 6 -21 22 -51 36 -68
14 -17 26 -37 26 -44 0 -7 11 -26 23 -42 13 -15 36 -55 52 -88 15 -33 36 -70
46 -83 10 -13 23 -40 30 -60 6 -20 25 -52 40 -69 15 -18 33 -50 39 -72 5 -21
16 -41 23 -44 8 -3 26 -31 41 -63 16 -32 36 -70 45 -84 10 -14 23 -40 29 -57
6 -18 25 -53 41 -77 17 -25 31 -49 31 -54 0 -5 13 -29 30 -53 16 -24 34 -60
40 -80 5 -19 23 -50 40 -69 17 -19 36 -54 42 -78 6 -24 17 -46 23 -49 7 -2 23
-28 35 -56 13 -29 30 -63 40 -77 9 -14 25 -50 35 -80 10 -30 25 -64 35 -75 10
-11 27 -42 39 -69 12 -27 31 -56 42 -64 11 -8 29 -33 40 -56 10 -22 28 -55 38
-72 10 -17 29 -58 41 -92 13 -34 26 -62 31 -62 4 0 13 -17 20 -37 7 -21 24
-54 39 -73 15 -19 36 -56 45 -82 10 -27 21 -48 25 -48 9 0 50 -93 50 -113 0
-8 9 -22 20 -32 10 -9 27 -38 36 -64 10 -25 28 -57 40 -71 13 -14 28 -49 34
-77 6 -29 24 -68 40 -88 16 -20 34 -53 41 -73 6 -20 19 -46 29 -57 9 -11 25
-42 35 -70 10 -27 29 -63 41 -78 13 -15 29 -47 35 -70 7 -23 20 -51 30 -62 10
-11 27 -44 39 -74 11 -30 32 -67 45 -83 13 -15 27 -48 31 -73 4 -27 14 -51 25
-58 20 -15 58 -92 59 -119 0 -9 9 -23 21 -31 19 -14 48 -75 49 -106 0 -7 11
-24 24 -36 14 -13 31 -46 40 -73 8 -28 26 -70 39 -94 14 -24 28 -54 32 -68 4
-14 20 -43 36 -65 15 -22 33 -59 38 -81 6 -23 18 -47 26 -54 8 -7 24 -41 35
-76 11 -36 33 -81 49 -102 16 -21 32 -56 36 -80 4 -23 18 -55 31 -71 13 -16
34 -55 46 -87 12 -33 29 -68 39 -79 10 -11 23 -43 29 -70 6 -27 20 -59 31 -71
11 -11 29 -47 40 -80 11 -32 29 -68 38 -79 10 -11 24 -41 31 -67 7 -27 23 -60
35 -74 13 -15 30 -49 39 -77 9 -29 25 -61 35 -72 10 -11 24 -45 31 -75 7 -30
23 -66 35 -80 30 -33 41 -57 50 -105 3 -21 16 -52 26 -67 11 -15 28 -51 38
-80 10 -29 30 -70 44 -92 15 -21 29 -60 33 -88 5 -35 13 -53 29 -64 14 -9 29
-37 39 -72 10 -31 21 -64 27 -72 5 -8 19 -35 30 -60 12 -25 32 -65 44 -90 13
-25 31 -72 40 -105 9 -33 27 -76 40 -95 12 -20 27 -58 33 -86 6 -28 27 -75 47
-105 19 -29 35 -61 35 -70 0 -8 12 -38 26 -65 14 -27 32 -75 40 -108 8 -32 23
-71 34 -86 11 -15 26 -53 34 -84 8 -31 31 -82 50 -114 19 -31 37 -75 41 -96 3
-21 15 -46 26 -55 13 -11 23 -38 30 -81 5 -36 18 -76 28 -90 10 -14 30 -62 45
-107 15 -45 32 -83 37 -85 13 -4 38 -76 39 -110 0 -14 11 -39 24 -55 14 -17
33 -63 44 -107 11 -43 28 -86 37 -96 10 -11 23 -45 31 -76 7 -31 24 -72 38
-92 14 -21 32 -68 41 -106 9 -37 24 -80 35 -95 10 -14 26 -55 35 -90 9 -35 27
-85 40 -110 13 -25 29 -67 35 -93 5 -26 19 -65 30 -86 11 -21 27 -72 36 -113
8 -41 22 -83 30 -94 8 -11 21 -29 29 -40 8 -11 17 -47 21 -80 3 -33 14 -71 23
-85 25 -36 47 -98 55 -152 4 -26 16 -58 27 -71 10 -14 22 -46 26 -72 6 -44 4
-48 -33 -87 -55 -57 -91 -69 -234 -79 -85 -5 -141 -14 -176 -28 -34 -13 -108
-25 -235 -37 -138 -12 -207 -24 -278 -45 -55 -17 -116 -29 -150 -29 -90 0
-230 -19 -254 -34 -47 -31 -324 -49 -370 -24 -41 21 -78 63 -107 118 -16 30
-36 66 -44 80 -8 14 -23 43 -34 65 -31 66 -83 159 -96 175 -7 8 -20 36 -29 62
-9 26 -29 64 -46 85 -16 21 -34 57 -40 79 -6 23 -17 44 -24 47 -11 4 -58 93
-117 220 -13 27 -29 51 -37 54 -7 3 -21 20 -30 37 -9 17 -26 43 -39 58 -12 15
-28 53 -35 83 -7 30 -16 55 -21 55 -5 0 -23 30 -40 68 -18 37 -39 72 -49 79
-9 7 -22 27 -29 45 -7 18 -25 49 -39 68 -25 34 -52 81 -106 188 -15 29 -34 56
-41 59 -8 3 -24 24 -36 47 -11 22 -26 44 -33 49 -8 4 -21 28 -31 55 -10 26
-32 68 -51 93 -18 26 -33 54 -33 62 0 9 -12 29 -26 44 -15 15 -38 52 -51 81
-14 28 -30 52 -35 52 -5 0 -16 16 -24 35 -8 20 -30 56 -49 81 -19 25 -38 56
-41 70 -3 13 -10 24 -16 24 -5 0 -19 21 -30 48 -12 26 -29 52 -38 59 -9 6 -29
39 -44 72 -15 34 -32 61 -37 61 -5 0 -18 19 -28 43 -10 23 -30 56 -44 73 -14
17 -33 49 -42 71 -9 23 -24 43 -34 46 -10 2 -28 26 -40 53 -13 27 -34 62 -47
77 -13 16 -24 35 -24 42 0 7 -11 26 -24 42 -13 16 -34 47 -45 69 -12 23 -33
51 -46 64 -14 13 -25 29 -25 36 0 7 -11 25 -24 41 -13 15 -33 48 -46 73 -13
25 -33 58 -46 73 -13 16 -24 35 -24 43 0 8 -16 31 -35 53 -19 21 -42 55 -50
75 -8 20 -20 36 -25 36 -6 0 -22 26 -36 58 -14 31 -36 68 -48 82 -13 14 -27
35 -30 47 -4 11 -18 28 -31 37 -23 15 -40 41 -100 155 -11 21 -33 53 -48 72
-51 62 -107 143 -107 156 0 7 -13 27 -28 45 -16 18 -41 54 -56 81 -15 26 -31
47 -36 47 -5 0 -16 16 -24 35 -8 19 -29 55 -45 79 -17 25 -31 50 -31 56 0 6
-11 22 -25 36 -14 14 -31 37 -39 53 -8 15 -26 35 -40 44 -14 10 -31 37 -41 67
-9 28 -24 54 -31 57 -8 3 -24 23 -34 44 -11 21 -29 44 -39 51 -11 8 -29 35
-40 61 -11 25 -29 55 -39 65 -11 11 -25 35 -31 54 -6 19 -25 50 -41 68 -16 18
-33 43 -36 54 -7 22 -51 78 -103 131 -16 17 -35 50 -42 74 -7 24 -25 56 -41
71 -15 16 -28 35 -28 43 0 8 -11 22 -25 31 -14 9 -33 35 -43 56 -14 35 -59 70
-87 70 -3 0 -17 -25 -31 -55 -13 -31 -31 -58 -39 -61 -8 -3 -26 -26 -40 -50
-14 -24 -30 -44 -36 -44 -5 0 -14 -12 -20 -27 -6 -16 -26 -51 -45 -80 -19 -28
-34 -56 -34 -61 0 -6 -13 -21 -30 -35 -16 -14 -32 -37 -36 -51 -3 -14 -26 -47
-50 -73 -24 -25 -44 -52 -44 -60 0 -8 -11 -24 -23 -36 -13 -12 -27 -35 -31
-51 -4 -16 -25 -50 -47 -75 -21 -26 -39 -53 -39 -59 0 -6 -11 -19 -25 -28 -14
-9 -25 -22 -25 -29 0 -14 -75 -134 -113 -180 -13 -16 -30 -41 -37 -55 -7 -14
-24 -36 -37 -50 -14 -13 -32 -38 -40 -55 -8 -16 -25 -41 -37 -55 -13 -14 -28
-43 -34 -65 -6 -22 -26 -57 -44 -77 -59 -67 -87 -105 -97 -129 -5 -13 -23 -41
-40 -62 -16 -21 -33 -48 -37 -60 -4 -12 -20 -38 -35 -58 -16 -20 -29 -42 -29
-48 0 -6 -14 -26 -30 -44 -36 -38 -86 -113 -118 -176 -13 -25 -32 -55 -42 -66
-10 -11 -27 -39 -39 -63 -12 -24 -28 -45 -36 -49 -8 -3 -15 -11 -15 -17 0 -7
-14 -25 -31 -42 -17 -16 -40 -49 -51 -74 -11 -25 -28 -54 -38 -65 -11 -11 -31
-43 -46 -70 -14 -28 -29 -52 -34 -55 -4 -3 -17 -24 -29 -48 -12 -24 -28 -45
-36 -48 -15 -6 -55 -73 -106 -176 -16 -31 -35 -60 -42 -65 -8 -4 -26 -30 -40
-58 -14 -27 -35 -58 -46 -67 -12 -10 -21 -24 -21 -32 0 -8 -11 -28 -25 -44
-14 -17 -32 -49 -40 -71 -8 -23 -40 -78 -72 -124 -32 -45 -72 -108 -87 -139
-16 -32 -33 -58 -37 -58 -4 0 -14 -19 -24 -42 -9 -23 -25 -48 -36 -56 -11 -8
-31 -39 -45 -69 -14 -30 -34 -63 -45 -74 -10 -10 -19 -26 -19 -35 0 -8 -13
-27 -29 -42 -15 -15 -36 -48 -46 -74 -9 -25 -28 -56 -41 -67 -13 -11 -24 -28
-24 -37 0 -20 -41 -94 -52 -94 -4 0 -19 -22 -33 -50 -14 -27 -29 -50 -34 -50
-5 0 -15 -16 -21 -35 -7 -20 -27 -55 -45 -79 -18 -24 -36 -54 -40 -67 -4 -13
-19 -44 -33 -69 -26 -44 -47 -84 -97 -177 -14 -26 -37 -59 -50 -73 -14 -14
-25 -31 -25 -37 0 -22 -42 -108 -56 -116 -8 -4 -14 -14 -14 -22 0 -7 -12 -28
-27 -45 -27 -32 -125 -218 -138 -262 -4 -13 -13 -30 -20 -38 -7 -8 -25 -37
-40 -65 -15 -27 -35 -59 -44 -70 -17 -20 -74 -133 -106 -210 -9 -22 -24 -49
-35 -60 -10 -11 -28 -45 -40 -76 -11 -31 -32 -69 -45 -83 -14 -15 -25 -31 -25
-35 0 -5 -17 -17 -37 -26 -32 -16 -55 -17 -183 -11 -167 8 -317 28 -375 49
-22 8 -105 20 -185 27 -107 8 -153 16 -177 30 -19 11 -62 21 -105 25 -344 29
-458 45 -458 65 0 4 -21 11 -47 15 -66 9 -103 45 -103 100 0 22 7 51 16 64 9
13 25 62 36 109 10 47 23 91 28 97 6 7 21 47 36 91 14 43 34 92 44 109 10 16
24 61 31 99 6 38 22 92 34 120 12 28 28 76 34 106 7 30 22 71 35 90 13 20 30
60 39 90 9 30 28 71 41 91 18 26 30 65 41 135 9 54 22 108 30 120 7 12 21 46
30 76 8 31 24 63 34 72 23 21 36 54 50 124 6 29 22 69 35 90 13 20 32 70 41
111 9 41 24 85 34 97 10 13 22 45 26 71 4 27 22 73 40 103 18 30 38 79 45 107
7 29 21 64 31 77 11 13 24 48 29 77 6 29 22 73 36 98 14 25 34 72 44 104 10
32 26 67 34 76 9 10 23 44 32 77 8 32 21 68 29 80 7 12 21 48 31 80 18 65 39
111 60 132 8 7 14 22 14 31 0 27 29 93 51 116 12 13 22 48 29 95 10 70 30 120
49 120 4 0 15 27 24 60 10 36 27 69 41 81 16 14 26 37 31 67 6 46 42 131 110
264 19 37 35 73 35 80 0 15 39 90 50 98 4 3 17 43 29 89 11 46 28 92 36 101 9
10 20 33 26 52 5 20 20 51 34 69 33 45 43 67 50 111 3 21 17 50 30 64 13 14
26 34 29 43 2 9 10 39 16 66 7 28 18 57 25 65 6 8 42 75 78 148 37 73 73 139
81 147 7 8 17 31 20 52 4 21 22 70 40 108 83 171 106 222 106 235 0 7 13 34
30 61 16 26 37 74 46 106 9 32 25 67 36 79 10 12 23 38 29 58 6 20 23 51 39
69 15 18 32 51 35 72 9 46 31 95 44 95 5 0 19 29 31 64 11 35 29 71 39 80 10
9 26 44 35 77 10 33 24 63 31 65 8 3 23 34 35 69 11 34 29 70 40 80 11 10 27
40 36 69 10 28 25 62 35 76 10 14 25 47 34 73 9 27 29 69 46 95 16 25 29 53
29 61 0 9 16 38 35 65 19 28 40 68 46 90 6 22 19 51 30 64 10 14 23 41 29 62
6 21 24 54 40 75 16 21 35 56 41 79 6 22 19 50 29 61 10 11 29 45 43 75 13 30
31 61 40 69 9 7 19 29 23 50 8 43 31 91 44 91 5 0 12 10 16 23 14 49 46 108
59 113 8 3 21 30 30 59 8 30 24 61 36 68 11 8 28 42 39 77 10 34 28 72 38 84
11 11 27 44 36 72 9 29 25 59 35 69 11 9 27 39 36 67 9 28 27 60 41 70 13 11
24 28 24 39 0 25 33 91 54 109 9 7 21 32 27 56 6 24 22 58 35 75 13 18 24 38
24 45 0 7 18 33 39 58 22 25 42 60 46 78 4 18 15 42 26 53 10 11 30 47 45 80
15 33 36 66 46 73 10 7 18 21 18 31 0 11 15 41 33 67 18 27 41 70 50 95 10 26
26 54 37 64 11 10 26 41 34 70 9 28 27 68 41 89 14 20 25 41 25 46 0 5 14 25
30 44 17 18 37 51 46 72 9 21 26 48 39 59 13 11 28 42 35 72 6 29 20 63 30 75
9 13 30 47 45 76 16 30 34 56 41 59 7 2 17 18 23 34 5 16 21 44 34 61 13 18
32 54 42 80 9 26 26 55 37 64 10 10 28 38 39 63 11 25 28 55 38 66 9 11 26 40
36 65 11 25 29 57 41 72 13 16 26 38 29 50 4 13 13 30 20 38 21 24 55 89 55
105 0 7 11 22 23 32 13 10 30 36 37 57 6 21 25 52 40 70 15 17 33 50 39 73 6
23 22 55 35 70 12 15 35 53 50 83 50 101 73 143 90 164 9 12 33 43 53 69 35
46 39 48 72 42 22 -4 49 -20 69 -41z m-135 -7134 c13 -11 28 -32 31 -47 4 -14
16 -37 27 -51 10 -14 24 -42 29 -63 6 -21 22 -51 35 -65 14 -15 25 -32 25 -39
0 -23 40 -103 54 -108 8 -3 22 -30 31 -59 10 -29 28 -65 42 -79 13 -14 30 -48
37 -75 7 -27 24 -66 38 -86 14 -21 29 -54 33 -75 3 -21 19 -51 34 -68 15 -16
34 -46 41 -65 7 -19 22 -47 32 -62 10 -14 18 -30 18 -35 0 -28 24 -86 49 -117
16 -20 35 -60 41 -89 7 -28 20 -59 30 -67 10 -8 25 -40 34 -71 9 -32 29 -71
45 -88 20 -21 32 -47 37 -76 3 -24 15 -52 25 -61 11 -10 27 -42 35 -71 9 -30
28 -69 43 -86 15 -18 33 -53 39 -79 7 -26 23 -63 36 -83 14 -20 30 -53 37 -73
7 -20 22 -53 34 -72 12 -19 28 -53 35 -75 6 -22 23 -56 36 -76 27 -40 44 -90
44 -130 0 -17 9 -32 23 -42 16 -10 30 -36 41 -76 9 -33 22 -63 27 -67 14 -8
49 -90 49 -113 0 -9 11 -32 25 -51 14 -19 34 -58 45 -87 11 -29 31 -70 44 -91
13 -20 29 -60 36 -89 6 -29 18 -57 25 -63 8 -6 21 -37 31 -68 10 -31 30 -74
45 -95 15 -21 30 -57 34 -80 4 -23 20 -61 35 -85 15 -23 36 -74 45 -112 9 -39
21 -70 25 -70 10 0 35 -64 44 -111 4 -21 15 -48 25 -60 10 -13 26 -46 35 -74
10 -27 28 -66 41 -85 13 -19 29 -57 36 -85 6 -27 25 -77 40 -110 16 -33 33
-84 39 -112 5 -29 21 -74 35 -100 14 -26 25 -55 25 -63 0 -8 7 -24 15 -34 13
-17 12 -23 -3 -48 -9 -16 -26 -31 -37 -33 -142 -32 -237 -45 -361 -50 -389
-16 -1681 -24 -2384 -15 -748 10 -1009 21 -1084 47 -21 7 -49 13 -62 13 -34 0
-71 19 -81 43 -12 27 11 150 36 192 10 17 26 55 36 84 9 28 27 64 39 79 12 15
28 52 34 82 7 30 24 75 37 98 14 24 32 72 41 105 8 34 23 73 33 87 10 14 22
41 26 60 4 19 20 63 36 98 16 35 36 91 44 125 8 36 23 69 34 78 11 9 24 36 31
60 12 48 41 109 51 109 8 0 25 42 34 84 3 16 15 48 26 70 11 23 29 68 40 101
12 33 29 69 38 80 10 11 24 43 31 70 7 28 23 61 35 75 13 14 30 54 39 89 9 35
27 76 41 92 13 16 27 46 31 67 7 38 31 93 44 102 5 3 18 34 30 70 12 35 30 70
40 77 12 8 22 36 30 80 7 40 23 87 39 114 16 25 32 55 35 67 4 12 18 30 31 40
14 11 29 39 35 64 7 25 23 57 36 71 16 17 29 51 39 97 8 39 15 73 15 75 0 2
11 16 25 30 13 15 32 50 41 78 9 29 27 66 39 82 13 17 26 44 30 62 3 18 16 47
29 65 12 18 30 56 40 83 10 28 29 61 42 75 12 14 25 41 29 61 7 40 39 99 54
99 4 0 16 26 25 59 9 32 25 66 36 76 10 9 22 31 25 49 10 46 101 228 124 248
12 10 21 26 21 37 0 30 28 89 48 100 11 6 22 31 30 68 8 38 21 68 36 82 12 12
31 46 42 77 20 60 34 76 79 92 43 15 49 14 78 -8z m12757 -3158 c0 -4 16 -25
35 -47 19 -22 44 -66 55 -98 12 -31 45 -106 74 -165 51 -101 137 -336 151
-412 4 -19 22 -100 40 -180 18 -80 39 -197 45 -260 6 -63 18 -168 26 -233 16
-138 18 -383 4 -489 -5 -40 -14 -129 -20 -198 -20 -255 -60 -485 -122 -705
-17 -60 -37 -137 -45 -170 -8 -33 -23 -74 -33 -90 -10 -17 -28 -62 -39 -100
-30 -105 -134 -355 -177 -425 -8 -14 -22 -41 -30 -60 -26 -62 -106 -214 -125
-235 -9 -11 -24 -37 -32 -57 -16 -39 -62 -109 -167 -258 -33 -47 -60 -88 -60
-92 0 -13 -93 -143 -154 -215 -34 -40 -78 -94 -100 -120 -107 -132 -228 -258
-346 -363 -40 -36 -101 -94 -134 -128 -33 -35 -73 -70 -88 -78 -15 -8 -47 -32
-70 -54 -24 -22 -51 -42 -60 -46 -10 -3 -18 -10 -18 -15 0 -5 -20 -19 -45 -31
-25 -12 -45 -25 -45 -30 0 -19 -190 -147 -280 -189 -25 -12 -54 -29 -65 -39
-36 -31 -304 -162 -380 -184 -26 -8 -63 -26 -83 -39 -21 -14 -55 -28 -77 -32
-22 -4 -69 -19 -105 -34 -36 -15 -96 -34 -135 -40 -38 -7 -97 -23 -130 -36
-33 -12 -100 -28 -150 -34 -49 -7 -112 -18 -140 -26 -81 -21 -183 -34 -305
-39 -125 -4 -379 8 -475 23 -185 30 -335 60 -362 74 -17 9 -50 19 -73 23 -23
4 -54 17 -67 28 -22 19 -25 27 -19 62 6 31 20 52 59 91 29 28 63 54 77 58 24
8 382 359 428 420 12 16 59 68 105 115 45 47 99 106 119 130 21 25 61 70 89
100 28 30 64 76 81 103 16 26 33 47 37 47 4 0 32 30 62 68 30 37 66 81 81 97
16 17 28 35 28 42 0 6 6 18 13 25 31 32 205 255 217 278 7 14 39 57 70 95 31
39 63 81 70 95 7 14 21 36 32 50 122 164 267 374 322 470 64 111 78 134 106
175 15 22 39 63 54 90 15 28 35 63 44 80 9 16 37 65 63 110 51 91 92 158 132
220 15 23 34 64 41 90 8 26 21 54 29 63 8 10 42 71 77 137 34 66 66 125 71
131 5 6 20 41 34 77 13 37 49 113 79 169 29 57 62 128 71 158 10 30 43 107 73
170 30 63 62 138 72 166 10 28 23 59 29 70 13 24 79 199 136 364 24 69 55 150
68 180 13 30 32 87 41 125 10 39 28 104 41 145 13 41 29 100 35 130 9 46 19
64 54 98 60 58 99 85 182 125 40 19 75 40 78 46 4 6 31 18 61 26 29 9 59 22
65 30 7 8 17 15 22 15 6 0 40 20 77 43 36 24 81 50 100 57 18 7 46 24 61 37
15 12 48 31 73 42 24 11 48 24 52 30 3 6 27 22 53 35 26 13 57 36 69 50 13 14
29 26 36 26 7 0 28 11 47 25 32 24 110 36 110 17z m-25376 -42 c23 -5 53 -23
74 -44 19 -20 38 -36 43 -36 4 0 18 -11 31 -24 13 -13 39 -29 60 -35 20 -7 48
-23 64 -37 15 -15 45 -32 67 -40 22 -8 64 -30 93 -49 29 -19 110 -65 181 -101
70 -37 148 -80 172 -96 25 -17 68 -41 95 -54 28 -14 67 -33 86 -44 19 -10 59
-24 88 -31 86 -20 120 -70 166 -239 44 -161 75 -258 95 -291 11 -19 27 -60 36
-93 9 -32 28 -74 41 -94 23 -34 54 -120 54 -151 0 -9 11 -38 25 -66 13 -27 25
-56 25 -64 0 -14 53 -135 121 -278 16 -34 29 -65 29 -69 0 -4 15 -39 34 -78
18 -39 39 -89 46 -111 7 -22 17 -45 21 -51 17 -21 112 -206 188 -364 46 -95
93 -182 117 -216 12 -16 29 -53 38 -81 10 -29 22 -55 27 -58 17 -11 79 -113
110 -181 17 -38 66 -120 108 -183 42 -62 102 -164 134 -225 33 -61 67 -118 77
-128 9 -9 28 -34 41 -55 12 -21 26 -40 30 -43 4 -3 20 -26 35 -52 16 -25 54
-79 85 -120 31 -40 83 -113 115 -162 33 -48 74 -111 93 -140 19 -28 56 -77 82
-109 27 -32 49 -63 49 -67 0 -5 25 -38 56 -72 52 -58 100 -121 216 -282 56
-78 136 -174 218 -263 25 -27 83 -94 130 -148 47 -54 137 -152 200 -216 63
-65 147 -150 185 -190 39 -39 93 -87 121 -105 53 -34 79 -65 89 -107 6 -22 1
-29 -37 -53 -47 -31 -151 -68 -219 -79 -24 -4 -62 -15 -84 -25 -83 -37 -558
-78 -782 -66 -193 9 -411 36 -478 57 -33 11 -114 31 -180 45 -66 14 -126 31
-135 38 -18 16 -76 36 -103 36 -25 0 -244 88 -277 111 -14 10 -45 23 -70 29
-25 7 -52 18 -60 25 -8 8 -44 27 -80 43 -36 16 -71 36 -78 45 -8 9 -37 28 -65
42 -100 51 -161 85 -181 103 -12 10 -37 28 -56 39 -19 11 -46 29 -60 41 -67
57 -116 95 -143 108 -31 17 -73 51 -121 100 -17 17 -85 79 -151 137 -66 59
-142 132 -170 163 -27 31 -74 81 -104 112 -30 32 -69 80 -87 107 -18 28 -49
67 -69 89 -67 72 -184 230 -226 306 -16 30 -50 83 -74 117 -24 34 -70 111
-101 170 -31 59 -65 117 -75 128 -10 11 -30 47 -45 80 -15 33 -33 67 -39 75
-7 8 -18 35 -25 60 -6 25 -24 68 -40 95 -15 28 -35 75 -45 105 -10 30 -21 60
-26 66 -15 19 -81 207 -104 295 -13 48 -32 115 -44 150 -11 35 -32 120 -46
189 -14 69 -31 145 -39 170 -7 25 -17 74 -21 110 -3 36 -16 126 -28 200 -19
119 -22 175 -22 480 0 289 3 357 17 420 9 41 22 135 28 209 7 74 19 152 27
175 8 23 25 95 38 162 13 66 32 136 43 155 11 19 27 70 35 114 9 44 31 113 51
155 20 41 36 81 36 90 0 8 8 29 18 45 11 17 26 53 36 81 29 89 78 116 170 94z
m23682 -871 c13 -14 18 -33 16 -66 -2 -48 -37 -158 -58 -183 -8 -9 -20 -47
-28 -85 -19 -88 -22 -98 -57 -166 -16 -31 -29 -63 -29 -71 0 -8 -13 -35 -30
-61 -16 -26 -35 -69 -41 -95 -6 -26 -22 -67 -34 -92 -12 -25 -30 -70 -40 -100
-10 -30 -23 -62 -30 -70 -17 -22 -115 -225 -115 -240 0 -6 -10 -25 -21 -42
-12 -16 -33 -57 -48 -91 -14 -34 -34 -73 -43 -87 -9 -14 -19 -36 -23 -50 -4
-14 -17 -38 -29 -55 -12 -16 -30 -50 -41 -75 -11 -25 -29 -58 -41 -75 -12 -16
-27 -48 -34 -70 -7 -21 -28 -63 -46 -92 -19 -28 -34 -54 -34 -56 0 -9 -83
-142 -100 -162 -10 -11 -30 -47 -45 -80 -14 -32 -30 -62 -34 -65 -5 -3 -20
-29 -35 -57 -14 -29 -31 -53 -37 -53 -5 0 -18 -19 -28 -43 -10 -24 -31 -57
-46 -73 -15 -16 -36 -46 -46 -66 -10 -20 -23 -39 -29 -43 -5 -3 -18 -25 -28
-48 -11 -24 -41 -71 -68 -106 -27 -35 -76 -105 -109 -156 -60 -94 -164 -237
-220 -304 -17 -20 -42 -54 -56 -76 -14 -22 -49 -64 -77 -93 -29 -30 -52 -58
-52 -62 0 -5 -17 -29 -37 -53 -21 -25 -48 -58 -60 -73 -12 -16 -43 -52 -70
-80 -61 -64 -94 -104 -118 -140 -17 -27 -52 -68 -115 -133 -14 -14 -40 -44
-58 -66 -133 -160 -783 -808 -830 -827 -9 -3 -33 -22 -53 -41 -37 -34 -171
-151 -243 -210 -47 -39 -81 -69 -138 -123 -24 -23 -58 -49 -76 -58 -28 -15
-79 -55 -233 -185 -20 -17 -40 -31 -44 -31 -11 0 -120 -79 -196 -143 -38 -32
-91 -69 -117 -82 -27 -14 -55 -32 -62 -40 -7 -8 -18 -15 -24 -15 -7 0 -30 -16
-52 -36 -21 -19 -55 -44 -75 -54 -19 -10 -41 -26 -48 -34 -8 -9 -18 -16 -23
-16 -5 0 -35 -17 -66 -37 -31 -21 -77 -49 -103 -63 -26 -14 -73 -43 -104 -65
-78 -55 -148 -98 -226 -139 -36 -19 -71 -41 -78 -50 -8 -9 -19 -16 -26 -16 -7
0 -36 -16 -65 -36 -29 -20 -66 -40 -84 -46 -17 -6 -40 -18 -51 -27 -11 -10
-74 -44 -140 -76 -66 -33 -133 -70 -148 -82 -16 -13 -33 -23 -40 -23 -12 0
-183 -82 -417 -200 -94 -47 -151 -71 -215 -91 -38 -12 -88 -32 -111 -45 -22
-13 -48 -24 -57 -24 -8 0 -44 -15 -79 -33 -35 -19 -85 -39 -113 -46 -27 -7
-66 -22 -85 -33 -19 -11 -58 -26 -86 -34 -28 -7 -76 -24 -105 -38 -30 -13 -80
-31 -111 -39 -31 -8 -69 -24 -85 -34 -15 -11 -62 -28 -103 -37 -41 -10 -99
-29 -129 -43 -30 -13 -76 -28 -102 -33 -27 -5 -66 -18 -86 -29 -21 -10 -83
-29 -138 -40 -55 -12 -109 -28 -120 -35 -20 -13 -84 -29 -160 -41 -22 -3 -74
-17 -115 -31 -41 -14 -124 -35 -185 -49 -60 -13 -135 -30 -165 -39 -30 -9 -76
-16 -103 -16 -53 0 -181 -24 -242 -46 -22 -8 -109 -24 -194 -35 -85 -11 -169
-26 -188 -34 -19 -8 -105 -24 -191 -35 -87 -11 -193 -27 -237 -35 -94 -17
-268 -31 -565 -45 -118 -6 -233 -16 -255 -22 -60 -16 -1020 -17 -1156 0 -58 7
-220 17 -360 22 -311 12 -499 27 -559 45 -25 7 -117 21 -205 30 -89 9 -197 27
-245 40 -47 13 -137 29 -200 36 -63 6 -149 21 -190 34 -105 32 -119 35 -236
45 -57 5 -117 16 -134 25 -16 8 -78 25 -137 36 -60 12 -135 32 -168 46 -33 13
-95 28 -138 33 -42 5 -97 18 -122 29 -24 11 -86 29 -137 41 -51 12 -121 33
-155 46 -34 13 -68 24 -76 24 -13 0 -49 13 -112 39 -11 5 -56 19 -100 31 -44
12 -98 33 -121 46 -22 13 -49 24 -59 24 -9 0 -52 15 -94 34 -42 19 -98 40
-126 46 -27 7 -72 22 -100 35 -27 13 -70 29 -94 35 -25 7 -74 27 -110 45 -36
18 -80 36 -98 40 -18 3 -43 15 -56 25 -13 11 -55 28 -94 38 -59 17 -169 66
-263 117 -14 7 -106 53 -205 101 -99 49 -187 94 -195 100 -26 21 -234 124
-251 124 -9 0 -22 7 -30 16 -7 9 -40 29 -73 46 -34 17 -74 41 -89 54 -16 13
-34 24 -42 24 -7 0 -19 8 -26 17 -8 9 -45 32 -84 50 -87 43 -150 80 -195 115
-19 15 -55 35 -80 46 -25 11 -51 27 -59 36 -7 9 -19 16 -25 16 -6 0 -27 14
-46 31 -19 16 -48 37 -65 46 -43 23 -159 105 -163 115 -2 5 -21 17 -41 28 -21
10 -43 26 -51 34 -7 9 -27 23 -45 32 -18 8 -51 31 -73 50 -22 19 -44 34 -49
34 -5 0 -20 11 -33 25 -13 14 -28 25 -34 25 -5 0 -36 20 -67 45 -32 25 -61 45
-65 45 -4 0 -26 17 -49 38 -68 59 -213 174 -244 193 -16 10 -57 45 -91 78 -34
34 -66 61 -70 61 -5 0 -15 8 -22 18 -7 9 -26 26 -42 36 -16 10 -39 28 -50 40
-29 30 -165 148 -201 174 -35 26 -269 247 -400 377 -50 50 -111 108 -135 131
-25 22 -62 62 -82 88 -20 26 -65 72 -100 103 -34 31 -75 77 -91 101 -15 24
-63 79 -106 121 -43 42 -88 94 -99 116 -20 38 -98 128 -118 136 -5 2 -32 33
-59 69 -27 36 -80 99 -117 142 -37 42 -68 80 -68 85 0 5 -30 46 -67 91 -87
104 -137 170 -153 202 -7 14 -25 39 -40 55 -15 17 -48 62 -73 100 -61 94 -81
121 -158 223 -36 48 -78 112 -92 142 -27 54 -54 98 -149 237 -26 38 -56 89
-67 114 -11 24 -41 76 -65 114 -25 39 -70 117 -101 175 -30 58 -62 116 -70
130 -8 14 -24 45 -36 69 -12 25 -37 68 -55 97 -19 29 -34 57 -34 61 0 10 -90
186 -118 233 -12 19 -22 41 -22 49 0 8 -15 44 -34 80 -18 36 -37 77 -41 91 -3
14 -33 77 -65 140 -32 63 -65 142 -74 175 -9 33 -28 83 -41 110 -13 28 -31 74
-40 104 -9 29 -25 66 -36 80 -11 15 -27 54 -35 86 -9 33 -25 77 -37 100 -23
45 -27 127 -8 163 17 32 80 30 119 -3 19 -16 52 -29 89 -36 32 -5 70 -18 84
-29 14 -10 45 -24 68 -31 55 -16 117 -89 126 -148 12 -76 27 -126 44 -150 10
-14 22 -37 26 -51 4 -14 22 -54 40 -90 19 -36 38 -82 44 -104 5 -21 16 -46 24
-55 7 -9 37 -70 65 -136 29 -66 62 -136 73 -155 11 -19 31 -60 45 -90 14 -30
36 -78 50 -105 13 -28 24 -55 24 -61 0 -5 12 -30 28 -55 15 -24 36 -64 47 -89
10 -25 26 -54 36 -65 9 -11 30 -44 45 -73 30 -54 78 -142 126 -229 14 -26 38
-63 52 -82 14 -19 26 -40 26 -47 0 -7 11 -26 25 -42 14 -17 36 -55 49 -85 14
-30 31 -61 39 -68 8 -8 22 -30 32 -49 9 -18 34 -55 54 -81 20 -26 47 -66 61
-90 23 -39 51 -81 110 -169 14 -21 41 -62 61 -91 20 -30 46 -63 58 -73 11 -11
21 -25 21 -33 0 -7 15 -30 33 -50 39 -46 86 -108 111 -147 11 -17 45 -62 78
-102 32 -40 58 -77 58 -82 0 -6 33 -45 73 -87 39 -43 76 -84 81 -94 5 -9 26
-36 47 -61 21 -25 51 -60 66 -78 16 -18 60 -66 98 -107 39 -41 87 -96 109
-122 21 -26 72 -83 112 -126 41 -42 74 -81 74 -86 0 -5 28 -35 62 -67 34 -33
164 -159 289 -282 124 -123 240 -232 256 -242 17 -10 60 -47 95 -82 71 -68
188 -171 265 -230 27 -21 67 -55 90 -75 23 -21 67 -56 99 -78 31 -22 68 -52
82 -67 14 -16 30 -28 36 -28 6 0 17 -9 24 -20 7 -11 38 -37 68 -58 31 -20 73
-48 94 -62 57 -38 143 -105 159 -123 7 -10 19 -17 25 -17 6 0 38 -21 70 -45
33 -25 64 -45 68 -45 5 0 26 -14 46 -31 35 -29 76 -55 147 -95 17 -9 44 -29
62 -45 18 -15 70 -46 116 -69 46 -23 95 -52 108 -64 13 -12 42 -32 64 -45 22
-14 49 -33 61 -43 21 -19 64 -44 167 -96 32 -17 66 -37 75 -45 9 -8 34 -22 55
-31 22 -9 52 -27 68 -40 15 -13 50 -32 78 -41 27 -8 57 -25 66 -35 10 -11 25
-20 34 -20 18 0 228 -104 251 -125 8 -7 43 -25 77 -39 35 -14 77 -35 95 -46
18 -11 42 -20 53 -20 19 0 174 -75 245 -118 19 -12 48 -24 65 -28 16 -4 55
-19 85 -34 30 -15 80 -33 110 -41 30 -7 73 -23 95 -35 22 -12 56 -25 75 -29
19 -4 62 -22 95 -40 33 -19 78 -37 100 -40 22 -4 63 -18 90 -31 28 -12 88 -34
135 -47 47 -14 150 -47 230 -74 80 -28 179 -58 220 -68 41 -10 91 -26 111 -36
20 -10 67 -23 105 -30 38 -6 110 -24 159 -39 50 -15 122 -34 160 -40 39 -7 87
-21 108 -32 20 -10 88 -25 150 -34 61 -8 139 -24 172 -34 72 -23 152 -37 260
-46 44 -4 105 -15 136 -25 31 -9 119 -24 195 -33 147 -17 211 -25 447 -56 81
-11 225 -24 320 -30 94 -6 273 -20 397 -31 206 -20 263 -21 665 -15 242 4 463
12 490 17 28 5 147 16 265 24 118 8 235 16 260 20 25 3 83 9 130 15 47 5 114
14 150 20 36 5 142 19 235 29 94 11 190 27 214 35 24 9 96 21 160 27 120 11
194 24 318 58 40 11 106 24 147 30 41 6 97 20 125 31 29 11 62 20 74 20 29 0
147 32 218 58 30 12 91 25 135 31 43 5 104 21 134 35 30 13 91 32 135 41 44 9
96 25 115 35 19 10 64 25 100 34 36 9 74 23 86 31 11 7 66 25 121 39 55 14
116 34 134 45 19 10 49 22 68 26 19 4 66 22 105 40 39 18 91 39 116 45 25 7
61 20 80 30 19 11 61 26 93 35 52 14 151 59 393 176 44 21 89 39 99 39 24 0
202 87 238 117 16 13 33 23 38 23 6 0 40 18 76 40 37 22 82 43 102 46 20 4 50
18 67 31 17 12 36 23 43 23 7 0 38 17 69 37 60 38 100 62 192 110 30 16 73 42
94 56 21 15 45 27 52 27 7 0 25 10 41 23 15 13 48 35 73 48 24 13 54 32 66 42
12 10 35 26 52 35 17 9 59 37 94 61 34 24 84 56 110 72 26 15 55 35 65 44 40
35 113 84 154 103 42 20 78 46 222 157 36 28 78 58 94 67 39 25 120 85 143
108 10 10 32 26 49 34 16 9 34 22 38 29 4 7 22 24 39 37 95 76 184 148 221
179 23 20 65 54 93 76 28 22 68 56 88 75 21 19 69 63 107 97 39 33 97 85 130
114 79 70 208 194 309 296 45 46 98 96 119 112 21 16 62 60 93 98 30 37 58 73
62 78 5 6 32 30 61 55 29 25 60 58 68 75 13 24 61 76 122 130 6 6 34 42 62 80
28 39 76 97 108 130 31 33 65 73 75 89 10 16 42 54 72 85 59 62 88 101 133
178 17 29 58 81 91 115 33 35 60 67 60 72 0 5 12 25 28 45 15 19 36 49 47 67
29 45 86 122 113 151 12 13 22 30 22 38 0 7 15 34 34 58 19 25 42 60 52 79 9
18 23 40 31 48 37 40 78 99 96 140 11 25 30 59 42 75 11 17 32 51 45 78 13 26
26 47 30 47 4 0 15 17 26 38 10 20 31 53 45 72 14 19 40 64 57 100 17 36 47
92 68 125 20 33 45 80 55 104 11 24 31 57 44 73 14 16 25 38 25 48 0 10 18 45
40 78 22 33 40 66 40 73 0 8 7 28 17 44 43 80 115 228 128 265 8 23 23 54 34
69 11 15 29 56 41 91 12 35 30 80 40 99 53 102 88 180 99 216 7 22 23 65 36
95 13 30 30 85 38 121 9 39 29 86 49 115 40 60 44 62 90 70 21 4 48 15 60 26
33 29 68 45 113 54 22 4 42 10 45 13 14 18 98 60 121 61 14 0 34 -9 45 -21z
m-2526 -929 c10 -5 20 -20 24 -33 7 -31 -31 -128 -77 -196 -21 -29 -37 -58
-37 -64 0 -6 -26 -49 -57 -95 -67 -97 -80 -118 -93 -152 -6 -14 -21 -41 -35
-60 -13 -19 -39 -57 -57 -84 -42 -63 -129 -154 -148 -157 -51 -5 -60 1 -89 64
-16 34 -34 96 -41 137 -6 41 -19 86 -29 100 -28 40 -38 79 -52 198 -18 160 -4
185 114 201 31 4 65 15 74 23 10 9 43 21 73 27 30 7 75 16 98 22 24 5 59 21
78 35 25 20 51 28 106 34 108 11 127 11 148 0z m-16735 -69 c61 -16 129 -38
150 -49 25 -12 72 -23 123 -27 123 -10 179 -29 229 -80 39 -40 42 -46 36 -82
-3 -21 -12 -49 -18 -63 -7 -14 -16 -48 -20 -75 -12 -82 -32 -162 -50 -197 -9
-18 -21 -73 -26 -123 -13 -117 -25 -135 -88 -135 -46 0 -50 2 -100 59 -28 33
-51 63 -51 67 0 4 -18 30 -39 58 -22 28 -45 63 -52 79 -7 15 -16 27 -20 27 -5
0 -25 30 -44 68 -48 90 -77 137 -102 164 -36 39 -105 161 -120 211 -8 27 -11
62 -8 78 8 35 42 62 70 55 11 -3 70 -18 130 -35z m14152 -569 c35 -35 42 -53
57 -156 8 -56 23 -110 34 -129 12 -19 26 -73 35 -135 11 -70 23 -116 40 -145
29 -49 34 -71 46 -194 5 -51 17 -102 25 -115 9 -13 23 -69 31 -123 18 -113 39
-201 62 -260 8 -22 19 -84 24 -137 4 -54 14 -110 22 -125 21 -42 37 -115 52
-239 8 -62 22 -124 31 -140 23 -41 12 -92 -31 -144 -19 -23 -35 -45 -35 -48 0
-4 -17 -18 -37 -32 -21 -14 -73 -58 -117 -97 -43 -40 -85 -73 -92 -73 -7 0
-19 -8 -26 -18 -7 -9 -25 -25 -39 -34 -15 -9 -55 -41 -90 -71 -35 -29 -80 -62
-99 -73 -19 -10 -49 -30 -66 -44 -17 -14 -44 -33 -60 -42 -16 -10 -58 -40 -94
-68 -36 -27 -76 -55 -90 -61 -14 -5 -34 -19 -45 -29 -29 -27 -171 -100 -194
-100 -32 0 -90 57 -100 98 -5 21 -13 66 -16 102 -4 36 -20 98 -36 138 -21 52
-33 108 -43 204 -8 72 -19 134 -24 137 -15 10 -41 100 -52 179 -6 43 -20 91
-34 115 -13 23 -27 67 -31 97 -4 30 -18 76 -31 103 -13 26 -31 78 -40 115 -8
37 -25 87 -38 112 -13 25 -29 79 -35 122 -6 42 -19 91 -30 110 -11 18 -30 69
-41 113 -12 44 -30 89 -40 100 -9 11 -25 52 -34 90 -10 39 -26 84 -36 101 -11
17 -26 58 -34 91 -7 33 -23 70 -34 81 -12 12 -23 41 -27 69 -10 75 -26 115
-56 145 -19 19 -29 42 -34 77 -18 132 34 163 301 181 73 5 146 15 165 24 38
16 204 43 326 52 43 4 121 17 173 30 52 13 140 29 195 34 55 6 113 16 128 22
16 6 54 16 85 23 63 13 90 6 129 -33z m-11447 -28 c47 -8 110 -22 140 -29 30
-8 125 -24 210 -36 85 -12 166 -27 180 -34 14 -8 75 -16 135 -20 160 -10 328
-32 366 -49 19 -8 50 -17 70 -21 73 -11 89 -65 46 -151 -13 -27 -32 -78 -40
-113 -9 -35 -25 -74 -36 -85 -10 -12 -24 -41 -31 -66 -17 -66 -42 -130 -50
-130 -11 0 -30 -58 -30 -90 0 -15 -13 -51 -28 -81 -16 -30 -35 -83 -41 -119
-8 -39 -22 -75 -37 -93 -13 -16 -24 -32 -24 -35 0 -40 -34 -182 -50 -209 -11
-19 -29 -75 -41 -125 -11 -50 -28 -103 -38 -117 -10 -14 -22 -46 -26 -71 -4
-25 -18 -69 -32 -99 -13 -30 -31 -95 -39 -145 -9 -50 -27 -116 -40 -146 -14
-32 -28 -91 -34 -144 -6 -56 -17 -101 -30 -123 -12 -21 -28 -82 -40 -156 -23
-144 -71 -279 -106 -298 -30 -16 -112 6 -173 47 -24 16 -58 38 -75 48 -92 57
-164 107 -185 130 -14 14 -30 26 -36 26 -7 0 -20 9 -31 21 -10 12 -44 34 -74
49 -30 15 -64 37 -74 49 -11 12 -25 21 -32 21 -7 0 -19 8 -26 18 -24 32 -123
108 -164 126 -43 19 -106 86 -125 133 -7 15 -12 69 -12 119 -1 77 3 97 21 128
18 31 24 63 32 179 10 139 28 235 49 261 6 7 18 58 26 112 15 100 31 159 58
224 8 19 20 88 26 153 5 65 17 132 25 150 23 52 25 64 36 160 8 65 19 110 39
152 18 37 34 93 41 145 7 47 21 99 31 115 10 17 22 58 28 92 11 69 32 107 70
128 34 19 68 18 171 -1z m3164 -373 c54 -6 115 -15 135 -21 20 -6 243 -14 496
-20 253 -5 615 -15 805 -22 429 -16 1418 -16 1765 0 143 6 503 16 800 23 479
9 550 13 630 31 50 11 123 22 163 25 69 6 74 5 101 -21 16 -15 37 -46 46 -69
10 -23 29 -66 42 -95 14 -30 29 -81 34 -115 5 -34 18 -73 28 -87 10 -14 28
-74 40 -133 13 -65 30 -120 42 -136 24 -33 38 -89 39 -151 0 -28 9 -63 24 -90
31 -60 44 -101 55 -181 5 -36 18 -85 30 -108 11 -24 28 -77 37 -119 9 -43 23
-89 30 -103 18 -35 41 -147 49 -234 3 -38 12 -76 19 -85 21 -24 26 -47 45
-186 10 -72 25 -146 34 -165 21 -47 34 -95 42 -154 3 -27 14 -75 25 -105 10
-30 21 -86 24 -125 18 -188 29 -254 51 -305 43 -101 45 -290 3 -332 -11 -11
-27 -36 -36 -57 -10 -20 -27 -50 -40 -66 -72 -93 -101 -133 -115 -160 -22 -44
-120 -133 -169 -155 -24 -10 -63 -21 -88 -25 -25 -4 -62 -16 -83 -26 -20 -11
-72 -26 -115 -34 -42 -8 -102 -24 -133 -34 -31 -11 -100 -27 -155 -36 -54 -9
-133 -27 -174 -40 -41 -13 -129 -31 -195 -41 -66 -9 -162 -27 -214 -40 -52
-13 -144 -29 -204 -35 -61 -6 -138 -19 -171 -29 -39 -12 -137 -25 -266 -35
-113 -9 -254 -23 -315 -31 -314 -42 -1127 -42 -1525 0 -129 13 -296 30 -370
36 -74 7 -178 21 -230 32 -52 11 -138 24 -190 28 -110 11 -131 15 -223 41 -37
11 -130 28 -206 39 -76 10 -153 26 -171 35 -18 10 -85 24 -147 31 -87 11 -123
20 -151 38 -20 14 -57 30 -82 36 -25 6 -61 16 -80 21 -19 5 -98 23 -175 40
-77 16 -164 42 -194 56 -30 14 -83 29 -117 33 -119 15 -263 125 -336 258 l-35
63 23 57 c16 39 24 77 24 120 0 110 20 255 44 332 14 41 34 137 46 214 12 76
30 157 40 180 10 22 21 77 24 121 9 108 24 181 41 195 7 6 16 42 20 83 11 120
25 188 51 238 15 31 27 79 34 136 5 48 23 129 39 178 16 50 32 115 36 145 8
68 35 169 46 176 5 3 9 17 9 31 0 42 30 154 55 203 13 25 28 79 34 120 7 41
22 93 35 115 13 22 29 72 35 110 7 39 23 94 37 124 13 30 29 84 34 120 8 61
13 69 60 115 l51 49 77 -6 c42 -3 121 -10 176 -16z"/>
<path d="M16413 11025 c-29 -12 -33 -18 -33 -54 0 -33 5 -44 30 -63 16 -12 32
-30 35 -39 8 -23 -11 -59 -30 -59 -14 0 -85 -68 -85 -82 0 -14 61 -96 76 -102
30 -11 209 -7 222 6 7 7 12 30 12 52 0 36 -6 45 -76 112 l-76 72 28 18 c57 36
57 49 1 108 -46 50 -55 53 -104 31z"/>
<path d="M14918 10831 c-15 -5 -36 -15 -47 -23 l-20 -14 21 -41 c29 -58 61
-73 154 -73 65 0 81 3 100 21 19 18 20 25 12 59 -15 58 -35 71 -120 75 -40 3
-85 1 -100 -4z"/>
<path d="M17144 10677 c-71 -74 -71 -73 -70 -349 1 -244 1 -248 24 -270 l23
-23 647 -3 c730 -3 694 -7 731 72 28 58 55 217 48 282 -4 42 -2 58 12 76 10
13 25 44 33 69 13 38 14 51 3 83 -7 21 -15 39 -17 40 -16 12 -100 45 -129 50
-34 6 -37 5 -54 -35 -22 -47 -22 -64 -6 -243 11 -123 11 -131 -7 -155 -19 -26
-19 -26 -176 -26 -146 0 -159 1 -172 20 -18 24 -11 82 17 137 15 30 16 38 5
47 -8 7 -19 25 -26 40 -18 44 -59 56 -185 56 -60 0 -122 -3 -137 -8 -36 -10
-98 -103 -98 -147 0 -22 10 -44 31 -67 27 -31 29 -37 16 -50 -23 -23 -83 -32
-227 -34 -149 -1 -185 7 -200 46 -6 15 -10 106 -11 203 -1 177 -6 223 -24 229
-6 1 -28 -16 -51 -40z"/>
<path d="M18797 10674 c-70 -67 -70 -68 -62 -348 7 -250 13 -290 45 -284 21 4
77 119 89 183 13 70 14 426 1 460 -13 34 -28 32 -73 -11z"/>
<path d="M14055 10598 c-24 -21 -26 -28 -20 -62 4 -20 17 -46 28 -57 28 -26
91 -25 117 1 17 17 18 23 6 57 -23 67 -88 97 -131 61z"/>
<path d="M14975 10500 c-52 -41 -115 -115 -145 -168 -45 -81 -60 -87 -230 -87
-131 0 -150 2 -169 19 -12 11 -21 25 -21 32 0 7 -7 29 -16 48 -12 24 -25 36
-47 40 -49 10 -53 8 -81 -45 -25 -49 -25 -53 -12 -93 8 -22 26 -66 40 -96 14
-30 26 -61 26 -68 0 -7 -22 -35 -48 -62 -48 -49 -48 -49 -128 -55 -43 -4 -97
-3 -119 2 -38 8 -41 12 -59 68 -11 33 -21 66 -22 73 -3 9 -14 8 -43 -8 -32
-16 -41 -27 -47 -55 -9 -50 2 -106 32 -162 37 -70 69 -99 131 -118 67 -21 127
-15 226 23 94 36 144 82 166 152 31 98 -82 89 1248 92 1114 3 1162 4 1181 22
12 10 24 32 28 50 3 17 18 65 31 106 27 84 26 113 -12 189 -23 45 -40 61 -66
61 -11 0 -63 -109 -74 -153 -8 -31 -47 -62 -69 -54 -20 8 -85 109 -92 143 -3
16 -14 41 -25 54 l-19 25 -23 -27 c-59 -73 -67 -87 -67 -125 0 -29 -7 -46 -24
-62 -22 -21 -30 -22 -73 -15 -50 10 -53 13 -148 165 -11 18 -24 33 -30 32 -15
0 -55 -83 -55 -115 0 -15 -10 -39 -22 -53 -31 -35 -101 -45 -256 -35 -138 8
-142 10 -198 98 -19 28 -38 52 -43 52 -5 0 -20 -19 -34 -42 -14 -24 -39 -56
-57 -73 -31 -30 -33 -30 -160 -33 -119 -3 -130 -2 -149 17 -19 19 -20 29 -15
93 l6 73 -43 53 c-40 49 -45 52 -89 52 -37 0 -55 -6 -85 -30z"/>
<path d="M15479 9867 c-19 -7 -30 -22 -39 -51 -11 -38 -11 -41 11 -58 13 -9
36 -26 51 -38 21 -16 41 -20 96 -20 66 0 72 2 96 31 14 17 26 38 26 47 0 24
-41 79 -68 91 -29 14 -138 12 -173 -2z"/>
<path d="M25435 8099 c-55 -8 -120 -32 -130 -50 -4 -6 -28 -19 -53 -30 -25
-11 -61 -33 -81 -50 -278 -231 -301 -256 -301 -323 0 -49 34 -114 66 -126 14
-6 62 -11 107 -13 92 -3 147 -28 220 -96 37 -35 127 -153 127 -166 0 -4 9 -20
21 -36 34 -48 43 -94 23 -124 -33 -51 -72 -65 -180 -65 -55 1 -119 5 -144 10
-56 12 -311 36 -530 50 -91 6 -212 18 -270 26 -158 23 -280 8 -378 -46 -123
-68 -372 -286 -372 -325 0 -4 -9 -18 -20 -32 -41 -52 -15 -136 57 -185 24 -16
40 -18 103 -14 48 4 94 1 125 -7 48 -12 176 -88 184 -109 2 -5 17 -24 35 -42
31 -32 74 -83 118 -141 12 -16 25 -32 28 -35 4 -3 18 -23 33 -45 15 -22 36
-51 47 -65 65 -79 79 -99 102 -141 14 -25 37 -57 49 -71 22 -23 43 -53 114
-158 12 -19 47 -82 76 -138 48 -94 53 -110 52 -165 -1 -34 -8 -82 -17 -106 -9
-24 -16 -60 -16 -81 0 -76 98 -124 203 -100 63 14 145 47 176 71 14 11 53 41
86 65 147 110 202 159 222 198 8 16 23 38 34 49 25 27 35 99 19 138 -7 17 -29
41 -49 55 -29 20 -48 24 -106 24 -145 0 -196 36 -345 241 -116 159 -115 157
-115 238 l0 75 44 25 43 24 182 -12 c99 -7 222 -16 271 -21 50 -5 196 -21 325
-34 129 -14 291 -28 360 -31 69 -4 157 -13 195 -21 93 -19 125 -18 193 6 80
28 95 46 96 117 0 50 -6 69 -44 138 -24 44 -54 93 -67 108 -13 16 -23 34 -23
40 0 14 -97 156 -155 227 -25 30 -54 73 -65 95 -11 22 -32 54 -47 72 -16 17
-44 52 -63 78 -19 26 -45 58 -57 71 -12 13 -35 45 -49 72 -15 26 -39 61 -53
78 -14 17 -44 55 -66 84 -22 30 -49 64 -61 76 -12 12 -29 41 -38 65 -10 24
-28 58 -40 74 -13 17 -33 58 -46 93 -13 34 -26 65 -31 67 -11 7 1 75 17 101
24 36 35 121 23 170 -16 64 -79 95 -164 83z"/>
<path d="M8413 7561 c-42 -11 -110 -71 -139 -121 -41 -71 -227 -258 -299 -300
-24 -14 -77 -47 -117 -74 -40 -27 -88 -55 -105 -61 -18 -6 -43 -21 -55 -33
-13 -11 -46 -31 -73 -44 -28 -13 -64 -33 -79 -46 -16 -12 -33 -22 -39 -22 -5
0 -43 -20 -84 -45 -40 -25 -78 -45 -82 -45 -5 0 -11 -7 -14 -15 -4 -8 -25 -24
-49 -36 -24 -12 -56 -31 -73 -44 -16 -12 -48 -28 -70 -35 -22 -6 -56 -22 -75
-35 -19 -13 -71 -35 -115 -50 -74 -25 -84 -26 -147 -16 -37 6 -90 11 -117 11
-48 0 -52 -2 -78 -41 -19 -28 -26 -52 -25 -76 5 -61 26 -90 142 -193 46 -41
156 -120 167 -120 6 0 16 -7 24 -16 11 -14 38 -30 167 -99 26 -13 63 -20 123
-23 80 -4 88 -3 108 19 31 33 28 94 -6 144 -21 30 -28 52 -28 88 0 43 4 52 37
83 34 30 44 34 94 34 48 0 68 -6 131 -42 41 -24 100 -64 131 -89 32 -25 82
-61 112 -81 98 -64 193 -156 213 -206 16 -40 17 -53 6 -90 -17 -60 -43 -74
-137 -77 -42 -2 -89 -8 -104 -13 -56 -23 -77 -98 -44 -159 8 -16 39 -48 68
-73 29 -25 80 -71 114 -102 33 -32 79 -68 101 -80 56 -32 113 -72 150 -105 30
-27 116 -87 193 -136 19 -13 51 -29 70 -36 19 -7 59 -25 89 -39 29 -14 77 -28
107 -30 44 -4 61 0 98 22 25 15 51 36 56 47 15 27 3 78 -24 109 -23 25 -39 62
-51 114 -10 46 24 313 50 396 13 41 31 138 40 215 8 77 29 212 45 300 16 88
32 207 35 265 3 58 15 143 25 190 34 153 42 475 15 551 -9 24 -27 77 -40 117
-53 156 -164 240 -325 247 -47 2 -99 0 -117 -4z m-219 -716 c21 -23 42 -83 38
-110 -1 -5 -8 -74 -16 -152 -20 -187 -39 -223 -119 -223 -24 0 -56 14 -109 49
-40 27 -80 56 -87 65 -7 9 -19 16 -26 16 -19 0 -95 91 -95 113 0 36 59 117 85
117 7 0 20 9 31 21 10 12 32 28 49 36 16 9 47 29 68 46 66 51 145 61 181 22z"/>
<path d="M9700 6636 c-81 -29 -81 -128 1 -210 21 -22 39 -45 39 -52 0 -6 7
-17 15 -24 19 -16 20 -108 1 -135 -7 -11 -23 -47 -35 -80 -12 -33 -30 -71 -40
-85 -10 -14 -26 -46 -36 -72 -10 -26 -24 -53 -31 -59 -7 -6 -25 -42 -39 -80
-15 -38 -33 -75 -40 -82 -7 -7 -22 -42 -35 -77 -13 -36 -29 -74 -36 -85 -7
-11 -20 -40 -30 -65 -10 -25 -29 -63 -44 -85 -14 -22 -32 -56 -40 -75 -7 -19
-22 -47 -32 -62 -10 -15 -30 -51 -43 -80 -24 -50 -41 -82 -75 -136 -21 -33
-131 -81 -223 -97 -107 -19 -127 -33 -127 -90 0 -38 5 -51 38 -83 20 -21 62
-51 92 -66 30 -15 62 -34 70 -41 8 -7 38 -20 65 -30 28 -9 57 -22 65 -29 8 -7
33 -21 55 -31 22 -10 51 -26 65 -35 14 -9 52 -27 85 -39 33 -13 67 -29 75 -36
13 -12 91 -53 190 -101 19 -9 85 -42 145 -72 61 -31 128 -64 150 -75 22 -10
50 -29 63 -41 13 -11 43 -32 66 -46 24 -14 75 -44 114 -67 49 -30 82 -43 108
-43 37 0 135 43 224 99 51 32 140 114 140 128 0 5 12 20 26 34 43 40 89 146
88 204 0 56 -32 128 -63 145 -37 19 -98 12 -128 -15 -104 -94 -210 -156 -289
-169 -114 -19 -326 79 -398 183 -22 31 -27 50 -27 102 -1 64 11 112 30 123 5
3 17 30 27 59 9 28 28 68 40 87 13 19 31 57 40 84 9 27 27 65 40 84 13 19 24
39 24 44 0 5 16 33 35 62 19 29 42 72 50 96 9 24 21 51 29 60 7 8 23 42 35 75
12 33 35 80 51 104 17 24 30 50 30 56 0 7 8 19 17 26 9 8 31 46 50 84 18 39
50 89 70 112 l38 42 103 11 c57 6 109 13 115 16 21 8 60 77 59 106 0 15 -8 42
-17 60 -20 39 -157 162 -212 190 -21 10 -69 36 -108 58 -38 22 -90 49 -115 60
-25 12 -54 26 -65 32 -60 35 -131 68 -144 68 -9 0 -31 9 -50 21 -67 41 -268
61 -341 35z"/>
<path d="M23128 6585 c-48 -14 -117 -40 -153 -60 -37 -19 -72 -35 -79 -35 -8
0 -24 -9 -38 -19 -13 -11 -52 -31 -86 -45 -35 -14 -77 -36 -93 -50 -17 -15
-36 -26 -44 -26 -7 0 -29 -15 -48 -32 -20 -18 -57 -49 -83 -68 -147 -111 -192
-183 -158 -255 8 -18 23 -40 32 -47 21 -18 89 -38 129 -38 55 0 176 -99 217
-178 9 -17 19 -32 23 -34 10 -4 113 -182 113 -194 0 -5 14 -29 30 -54 16 -25
37 -67 46 -95 10 -27 28 -63 40 -78 13 -16 24 -36 24 -45 0 -14 81 -184 117
-247 7 -11 30 -61 52 -110 65 -145 71 -243 23 -374 -23 -63 -21 -78 24 -126
l34 -38 68 6 c37 3 91 15 120 26 29 12 72 25 95 31 40 9 315 148 347 175 8 7
34 22 57 34 23 11 55 32 70 46 15 14 52 46 82 71 74 63 121 135 121 186 0 32
-6 44 -32 66 -43 37 -73 48 -162 62 -41 7 -88 20 -104 30 -26 16 -122 163
-122 187 0 5 -11 23 -25 39 -14 16 -28 38 -31 48 -4 11 -23 47 -44 81 -21 34
-41 72 -45 85 -4 14 -16 36 -26 50 -10 14 -26 48 -35 75 -9 28 -26 64 -39 81
-26 34 -109 196 -120 234 -4 14 -16 39 -26 56 -22 37 -59 207 -59 273 0 44 18
111 42 155 7 12 15 39 18 62 6 38 4 42 -36 73 -58 44 -120 49 -236 16z"/>
<path d="M21545 5809 c-239 -34 -304 -48 -383 -84 -29 -14 -59 -25 -66 -25 -7
0 -24 -8 -37 -18 -13 -10 -46 -31 -74 -47 -27 -15 -77 -51 -110 -79 -33 -29
-72 -61 -86 -72 -15 -11 -45 -42 -68 -69 -23 -28 -52 -61 -65 -75 -50 -55 -93
-117 -106 -150 -7 -19 -23 -49 -35 -65 -13 -17 -30 -64 -40 -105 -9 -41 -26
-107 -36 -146 -23 -86 -25 -221 -5 -319 9 -38 23 -109 32 -156 9 -48 22 -97
30 -110 7 -13 27 -52 44 -86 16 -34 34 -65 40 -68 6 -4 35 -44 65 -90 79 -121
225 -247 373 -320 119 -60 123 -64 125 -121 l2 -48 -65 -43 c-36 -23 -75 -49
-88 -58 -53 -37 -82 -156 -46 -186 38 -32 65 -35 133 -18 36 9 78 22 94 28 73
29 161 32 571 20 467 -13 536 -9 731 46 66 18 134 36 152 40 42 8 248 141 310
200 17 16 36 35 42 40 25 24 89 104 120 153 61 95 53 190 -20 231 l-41 23 -26
-24 c-70 -64 -112 -85 -332 -164 -84 -30 -217 -35 -274 -10 -37 16 -38 17 -33
56 3 26 17 54 39 79 18 21 42 51 53 65 11 15 41 52 68 82 26 30 47 58 47 64 0
5 11 25 24 45 14 20 30 53 37 73 6 20 22 60 35 88 13 28 28 88 33 134 16 125
14 343 -5 420 -21 93 -90 286 -109 307 -9 10 -40 50 -69 89 -29 39 -58 77 -64
85 -58 71 -80 93 -123 121 -27 17 -49 35 -49 39 0 16 -137 110 -175 120 -22 6
-51 19 -66 30 -34 24 -150 56 -273 74 -108 16 -140 17 -231 4z m-175 -514
c126 -24 160 -37 204 -78 13 -12 59 -53 102 -92 100 -90 118 -109 165 -172 21
-28 43 -55 49 -58 16 -10 139 -196 161 -245 7 -14 25 -52 40 -86 33 -73 46
-171 30 -231 -26 -94 -113 -194 -187 -212 -87 -22 -233 -4 -293 36 -118 78
-298 256 -373 368 -18 28 -54 72 -80 98 -36 38 -57 75 -96 170 -67 164 -77
210 -62 284 27 138 75 189 202 217 34 8 63 14 63 15 0 1 34 -6 75 -14z"/>
<path d="M12405 5505 c-56 -19 -79 -34 -113 -72 -23 -26 -45 -59 -48 -73 -4
-14 -17 -46 -30 -72 -32 -63 -31 -127 1 -196 14 -30 25 -59 25 -66 0 -6 9 -29
20 -51 35 -68 41 -99 31 -145 -5 -24 -14 -46 -19 -49 -5 -3 -16 -20 -25 -37
-9 -17 -34 -43 -56 -59 -23 -15 -41 -30 -41 -34 0 -3 -27 -19 -59 -35 -46 -23
-63 -38 -76 -67 -17 -36 -16 -38 5 -68 26 -34 84 -61 134 -61 38 0 154 49 201
84 16 13 51 32 76 43 83 37 242 194 301 298 22 38 50 85 63 103 34 47 66 153
66 215 0 157 -95 302 -225 345 -85 28 -144 28 -231 -3z"/>
<path d="M19900 5330 c-30 -3 -73 -14 -95 -22 -22 -9 -80 -21 -130 -28 -87
-11 -190 -48 -310 -112 -135 -72 -113 -67 -320 -67 -112 0 -204 -4 -225 -11
-19 -6 -98 -19 -175 -29 -195 -26 -265 -62 -290 -149 -12 -42 0 -83 48 -163
37 -63 37 -101 -3 -187 -45 -98 -103 -152 -162 -152 -40 0 -48 5 -125 81 -105
102 -114 128 -88 237 32 129 17 173 -74 213 -61 27 -240 26 -371 -2 -52 -11
-163 -24 -245 -29 -113 -7 -168 -16 -220 -33 -39 -13 -104 -32 -145 -42 -41
-10 -84 -25 -95 -35 -31 -28 -61 -40 -95 -40 -31 0 -85 22 -92 38 -1 4 -32 27
-67 50 l-64 43 -106 -3 c-115 -3 -229 16 -311 54 -36 16 -79 22 -210 29 -188
11 -269 2 -351 -36 -30 -14 -63 -25 -74 -25 -11 0 -40 -11 -65 -25 -25 -13
-65 -35 -90 -47 -60 -31 -181 -154 -236 -240 -62 -96 -108 -263 -93 -338 21
-110 55 -212 89 -270 38 -64 183 -230 201 -230 5 0 30 -15 56 -34 27 -18 64
-42 83 -52 19 -10 46 -27 59 -37 13 -9 31 -17 40 -17 9 0 41 -13 71 -28 30
-15 87 -39 125 -52 39 -13 82 -32 97 -42 14 -10 30 -18 36 -18 19 0 110 -81
120 -107 23 -60 24 -90 3 -131 -24 -47 -81 -75 -189 -94 -62 -10 -83 -9 -175
9 -58 11 -121 29 -140 39 -112 60 -197 137 -232 210 -8 18 -20 36 -26 39 -5 4
-18 25 -29 48 -11 23 -44 68 -72 100 -41 45 -61 59 -90 64 -33 5 -41 1 -76
-34 -32 -31 -42 -50 -47 -87 -10 -63 2 -209 21 -260 9 -23 24 -74 35 -114 21
-84 21 -83 66 -139 39 -48 114 -87 255 -134 51 -17 99 -36 106 -42 31 -25 156
-38 412 -44 312 -7 414 3 506 48 33 16 65 29 71 29 14 0 141 83 178 115 70 63
145 138 145 146 0 4 12 22 27 39 25 31 51 125 72 270 7 47 -6 147 -32 261 -18
74 -71 163 -114 189 -16 9 -56 43 -90 74 -33 31 -65 56 -69 56 -5 0 -36 16
-69 36 -32 20 -93 44 -133 55 -41 10 -80 23 -87 29 -7 6 -36 17 -65 26 -79 23
-226 99 -265 135 -71 67 -77 190 -12 245 52 44 93 56 172 52 56 -2 85 -10 140
-38 74 -37 130 -76 180 -125 204 -201 269 -234 365 -187 44 22 88 109 97 194
9 83 29 102 104 94 93 -9 224 -93 389 -250 30 -29 95 -87 143 -129 86 -75 140
-134 175 -191 9 -15 28 -44 40 -64 41 -61 64 -231 65 -482 2 -211 2 -216 -22
-258 -15 -25 -42 -53 -68 -68 -24 -14 -55 -43 -69 -64 -22 -33 -25 -46 -20
-82 8 -51 27 -76 80 -108 34 -20 56 -24 185 -29 179 -7 400 4 463 24 25 8 95
24 154 36 59 11 121 27 138 36 16 8 53 24 83 34 105 36 148 86 137 158 -5 34
-15 46 -61 81 -30 22 -75 50 -99 61 -81 39 -118 156 -159 504 -25 221 -17 308
42 416 16 27 39 71 53 97 44 81 102 165 220 315 151 194 181 219 314 269 93
35 142 36 203 6 68 -34 119 -94 146 -173 14 -38 32 -89 41 -113 9 -23 23 -86
31 -140 8 -53 23 -122 33 -153 11 -30 25 -95 31 -145 7 -49 22 -132 36 -184
26 -103 65 -354 65 -416 0 -61 -18 -109 -56 -155 -92 -111 -86 -182 20 -236
48 -24 56 -25 156 -20 128 8 452 70 500 96 19 11 53 22 75 26 73 13 227 93
263 137 73 91 22 192 -119 237 -20 7 -43 19 -52 29 -33 38 -78 137 -93 205 -8
39 -26 105 -39 147 -37 117 -76 283 -96 419 -11 67 -26 151 -35 184 -41 160
-56 334 -34 393 6 15 33 53 61 85 28 33 59 80 69 106 l18 48 -27 37 c-42 60
-69 68 -228 67 -76 -1 -163 -5 -193 -9z"/>
<path d="M13575 5247 c-57 -23 -146 -80 -160 -101 -19 -30 -52 -131 -81 -252
-25 -103 -89 -249 -121 -275 -9 -8 -27 -36 -40 -64 -33 -69 -77 -139 -135
-213 -27 -35 -63 -86 -80 -115 -17 -29 -34 -54 -38 -57 -4 -3 -14 -19 -23 -36
-9 -17 -45 -71 -81 -120 -36 -49 -79 -107 -95 -129 -16 -22 -38 -58 -49 -80
-11 -22 -51 -72 -88 -111 -74 -77 -145 -120 -260 -157 -62 -20 -69 -25 -77
-57 -11 -45 -1 -114 21 -133 46 -40 162 -86 258 -102 54 -9 122 -23 149 -32
36 -12 86 -16 177 -16 123 1 128 1 181 32 60 34 67 44 67 101 0 34 -6 43 -52
81 -77 63 -88 78 -88 130 0 76 49 122 146 134 59 8 239 -12 274 -30 14 -7 68
-20 120 -29 68 -11 119 -28 177 -56 75 -37 83 -44 99 -85 16 -42 16 -48 0 -89
-17 -45 -18 -45 -110 -78 -52 -18 -80 -66 -71 -122 3 -23 11 -48 18 -57 13
-16 115 -89 126 -89 29 0 234 -41 251 -50 11 -6 80 -18 153 -26 73 -8 161 -22
197 -30 36 -9 117 -18 181 -21 114 -6 118 -5 173 23 70 35 93 59 101 104 5 30
1 40 -27 71 -18 20 -54 50 -79 67 -56 37 -73 76 -134 295 -14 49 -29 96 -34
105 -5 10 -21 78 -35 152 -15 74 -35 155 -45 180 -11 25 -25 74 -31 110 -6 36
-24 99 -40 140 -15 41 -33 104 -40 140 -6 36 -17 74 -25 85 -7 12 -23 61 -35
110 -12 50 -31 106 -41 127 -10 20 -23 58 -29 85 -6 26 -45 117 -88 202 -66
133 -86 163 -139 214 -34 33 -90 76 -125 95 -57 32 -71 36 -153 39 -55 1 -102
-2 -120 -10z m-15 -835 c45 -22 82 -93 128 -247 46 -157 46 -156 5 -192 -42
-38 -72 -41 -162 -19 -31 8 -88 19 -126 26 -59 9 -78 17 -109 46 -36 33 -38
38 -32 77 4 23 15 51 25 62 10 11 24 31 31 45 52 104 107 183 139 200 44 23
57 24 101 2z"/>
<path d="M11222 4827 c-44 -14 -176 -143 -236 -232 -42 -61 -47 -75 -43 -108
7 -52 29 -73 89 -88 78 -18 349 -139 418 -185 43 -29 97 -31 149 -5 88 45 281
275 281 335 0 18 -6 40 -12 49 -13 17 -126 67 -210 93 -25 8 -77 32 -114 54
-38 22 -72 40 -77 40 -4 0 -20 8 -34 17 -63 41 -142 53 -211 30z"/>
<path d="M16640 2234 c-58 -8 -105 -21 -120 -32 -14 -10 -47 -26 -73 -35 -62
-21 -198 -140 -256 -224 -23 -34 -48 -84 -56 -110 -7 -26 -22 -68 -33 -93 -31
-69 -46 -195 -39 -339 7 -134 20 -204 60 -315 24 -64 101 -196 120 -205 5 -2
23 -19 40 -38 18 -20 47 -42 65 -50 18 -7 41 -22 51 -32 27 -27 48 -36 110
-51 30 -7 71 -22 90 -34 33 -19 51 -21 228 -21 184 0 192 1 222 23 18 13 59
28 92 34 32 5 74 21 92 34 17 13 46 31 62 40 32 18 127 102 134 119 2 5 21 37
41 70 52 86 98 224 111 335 15 126 -1 355 -29 420 -11 25 -23 61 -27 80 -11
54 -100 201 -148 245 -69 63 -99 85 -147 107 -25 11 -63 29 -85 41 -28 14 -78
24 -175 33 -164 16 -208 16 -330 -2z m242 -298 c44 -19 113 -96 129 -144 6
-20 21 -57 31 -82 28 -61 40 -170 34 -314 -3 -101 -8 -132 -29 -181 -14 -33
-28 -74 -31 -91 -8 -35 -96 -131 -133 -145 -94 -35 -194 29 -259 167 -48 100
-57 161 -52 364 4 172 4 176 35 235 17 33 36 74 42 91 13 33 80 94 116 106 35
11 81 8 117 -6z"/>
<path d="M20020 2223 c-14 -3 -32 -11 -40 -18 -8 -7 -40 -23 -71 -34 -30 -12
-68 -35 -84 -51 -16 -17 -33 -30 -38 -30 -25 0 -159 -170 -177 -224 -7 -22
-21 -54 -31 -71 -61 -103 -83 -394 -45 -583 19 -92 67 -206 117 -272 36 -49
131 -139 154 -146 11 -3 31 -17 45 -29 24 -22 105 -55 135 -55 8 0 43 -10 76
-21 47 -17 76 -20 123 -16 82 7 243 61 274 92 18 18 36 25 64 25 32 0 47 -8
88 -46 l49 -45 169 3 c150 3 172 5 191 22 20 18 21 28 21 245 l0 225 34 36
c19 19 38 51 43 70 12 44 5 116 -12 130 -9 7 -118 11 -336 10 -366 0 -359 1
-359 -75 0 -54 35 -109 73 -113 43 -5 70 -48 64 -101 -4 -38 -12 -51 -53 -87
-40 -35 -59 -44 -102 -50 -71 -9 -161 2 -191 24 -13 9 -34 24 -47 33 -33 22
-100 114 -116 158 -9 24 -13 94 -13 216 1 175 1 181 28 231 54 105 165 191
261 201 96 11 213 -59 236 -141 7 -25 30 -63 53 -90 l42 -46 120 -1 c140 -2
172 8 180 55 9 55 14 468 5 490 -4 12 -19 33 -33 49 -25 25 -31 27 -113 27
l-88 0 -62 -65 c-34 -36 -67 -65 -72 -65 -5 0 -17 10 -28 21 -10 12 -59 42
-109 67 l-90 46 -155 2 c-85 1 -166 0 -180 -3z"/>
<path d="M8199 2188 c-19 -26 -25 -49 -28 -111 -3 -84 7 -109 53 -123 11 -3
31 -16 44 -27 l22 -20 0 -438 c0 -488 0 -486 -68 -531 -31 -21 -40 -35 -45
-65 -14 -79 -8 -115 20 -145 l27 -28 297 0 c352 0 329 -9 329 125 0 44 -4 85
-8 91 -4 6 -26 21 -50 33 -68 35 -80 64 -81 198 -1 111 8 153 30 153 6 0 24 9
40 21 21 15 39 20 62 16 27 -4 260 23 335 39 12 2 32 14 44 26 12 12 36 27 54
33 18 6 56 33 84 59 44 41 57 62 82 134 28 78 30 93 24 164 -8 98 -45 217 -80
258 -51 61 -122 101 -215 120 -47 10 -99 24 -116 31 -23 10 -125 14 -431 17
l-402 3 -23 -33z m810 -292 c47 -46 50 -53 57 -113 10 -98 -13 -153 -82 -199
-30 -20 -163 -56 -183 -49 -22 8 -66 48 -80 73 -12 23 -14 250 -2 292 11 40
45 51 148 48 l92 -3 50 -49z"/>
<path d="M9628 2191 c-32 -29 -33 -31 -33 -116 0 -97 6 -106 76 -125 20 -6 42
-16 47 -23 8 -9 12 -158 13 -458 2 -508 4 -493 -78 -532 -53 -25 -60 -41 -62
-129 -1 -53 1 -59 32 -82 l34 -26 595 0 595 0 22 24 c22 24 23 33 27 210 l4
185 -26 20 c-24 19 -41 21 -149 21 -114 0 -123 -1 -143 -23 -17 -18 -21 -31
-16 -55 7 -35 -9 -68 -54 -109 -23 -22 -33 -23 -155 -23 l-130 0 -33 36 -34
35 0 130 c0 199 12 209 238 209 185 0 182 -2 182 127 0 125 3 123 -184 123
-220 0 -236 12 -236 186 0 110 1 113 26 133 24 19 40 21 166 21 180 0 203 -9
210 -81 3 -28 14 -62 25 -77 19 -26 26 -27 129 -33 170 -8 175 -2 175 214 0
84 0 160 0 169 -1 9 -13 30 -27 47 l-26 31 -589 0 -589 0 -32 -29z"/>
<path d="M11075 2178 c-34 -39 -36 -47 -33 -93 6 -67 26 -107 65 -126 68 -34
63 3 63 -491 0 -504 2 -487 -73 -532 -49 -28 -57 -45 -57 -121 0 -56 3 -61 44
-93 28 -21 35 -22 295 -22 233 0 270 2 301 18 l35 17 3 87 3 87 -51 33 c-66
44 -86 91 -76 185 6 58 13 75 46 118 27 34 53 56 85 69 l46 18 39 -26 c24 -16
49 -45 64 -75 14 -27 32 -56 40 -64 35 -35 76 -119 76 -156 0 -35 -4 -40 -45
-62 -53 -28 -65 -55 -65 -144 0 -51 4 -65 23 -83 23 -22 27 -22 387 -22 360 0
364 0 396 22 45 31 56 81 34 159 -8 30 -18 39 -53 53 -56 21 -116 72 -133 112
-8 18 -22 41 -32 51 -11 10 -27 34 -38 53 -10 19 -26 44 -36 55 -9 11 -27 38
-40 61 -42 74 -63 106 -95 150 -17 23 -39 57 -48 75 -10 18 -30 50 -46 72 -23
32 -29 51 -29 91 l0 51 126 110 c70 61 133 114 140 118 8 4 40 12 71 17 31 5
63 16 71 24 8 8 16 44 19 92 5 95 -14 137 -67 148 -18 3 -165 6 -327 6 l-294
0 -16 -37 c-11 -28 -14 -60 -11 -122 5 -90 17 -111 64 -111 12 0 32 -8 45 -19
l23 -19 -54 -53 c-31 -30 -77 -72 -104 -94 -26 -22 -68 -59 -93 -82 -25 -23
-65 -50 -90 -59 -67 -26 -76 -13 -81 128 -5 149 3 178 54 198 60 23 61 24 69
113 7 93 -2 128 -42 146 -16 7 -117 11 -293 11 l-268 0 -37 -42z"/>
<path d="M13203 2194 c-19 -30 -29 -132 -19 -189 5 -26 17 -41 42 -58 l35 -22
-5 -65 c-4 -43 -16 -84 -36 -122 -16 -31 -35 -88 -41 -125 -7 -37 -22 -86 -35
-108 -12 -22 -27 -73 -33 -113 -6 -41 -23 -96 -36 -123 -14 -27 -32 -83 -40
-125 -20 -103 -67 -174 -136 -203 -26 -12 -50 -25 -53 -29 -3 -5 -8 -39 -12
-76 -8 -79 4 -110 49 -126 18 -6 137 -10 297 -10 l267 0 22 24 c20 21 22 32
19 107 l-3 84 -61 29 c-52 24 -63 35 -72 64 -13 41 -7 54 42 102 l36 34 180
-2 c173 -1 181 -2 219 -26 61 -39 72 -60 57 -109 -10 -34 -18 -44 -46 -54 -19
-7 -51 -12 -71 -12 -56 -1 -66 -16 -72 -107 -6 -78 -5 -82 19 -105 l26 -24
386 -3 c458 -3 422 -14 422 123 0 96 -8 109 -70 119 -40 6 -73 32 -106 82 -8
11 -23 61 -34 110 -11 49 -28 107 -40 129 -11 21 -20 47 -20 57 0 16 -31 116
-64 205 -8 23 -22 74 -30 113 -9 40 -19 77 -24 84 -5 6 -22 54 -36 106 -15 52
-37 122 -50 155 -13 33 -27 80 -31 105 -10 64 -29 95 -69 114 -29 14 -82 16
-395 16 l-361 0 -17 -26z m487 -501 c7 -37 26 -95 42 -128 19 -42 28 -76 28
-112 0 -76 -20 -87 -149 -81 -62 2 -105 9 -115 17 -25 21 -20 95 14 196 17 50
37 116 45 147 15 55 16 57 53 60 50 5 67 -15 82 -99z"/>
<path d="M14760 2202 c-45 -22 -60 -54 -59 -122 1 -86 9 -102 58 -126 25 -12
50 -30 58 -40 10 -14 13 -107 13 -457 l0 -439 -38 -37 c-21 -20 -51 -46 -65
-58 -25 -20 -27 -27 -27 -96 0 -66 3 -76 26 -98 l26 -24 565 0 565 0 19 24
c17 21 19 41 19 240 0 172 -3 221 -14 237 -13 16 -30 19 -133 22 -91 3 -128 0
-156 -11 l-37 -16 0 -78 c0 -55 -6 -90 -19 -120 -23 -50 -42 -56 -176 -51
l-90 3 -18 35 c-16 32 -17 70 -15 476 3 418 4 443 22 463 11 12 24 21 31 21
41 0 69 121 45 196 -25 77 -12 74 -304 74 -229 0 -265 -2 -296 -18z"/>
<path d="M17782 2213 c-34 -7 -52 -52 -52 -130 0 -86 14 -114 65 -131 74 -24
70 5 73 -473 1 -265 -1 -444 -8 -467 -8 -32 -18 -42 -67 -67 l-58 -30 -3 -83
c-3 -76 -1 -84 22 -107 l25 -25 285 0 c336 0 316 -8 316 120 0 94 -15 120 -68
120 -45 0 -76 20 -99 63 -14 27 -16 63 -16 226 1 192 2 195 25 213 13 9 30 18
39 18 19 0 59 -36 59 -54 0 -8 6 -16 14 -19 7 -3 30 -34 50 -69 40 -69 70
-116 129 -199 20 -30 57 -83 82 -119 25 -36 60 -87 80 -115 19 -27 49 -71 65
-97 54 -82 74 -88 276 -88 100 0 184 4 194 10 11 6 24 27 29 48 5 21 9 283 9
601 -1 629 -6 582 70 595 60 10 65 17 70 103 6 101 -11 147 -58 157 -18 3
-134 6 -258 6 -218 0 -227 -1 -259 -22 -43 -30 -57 -73 -48 -149 6 -54 11 -63
39 -80 17 -10 38 -19 47 -19 8 0 25 -11 38 -23 20 -23 22 -32 22 -205 0 -142
-3 -187 -15 -210 -18 -35 -46 -49 -61 -29 -5 7 -26 33 -46 58 -20 24 -46 63
-58 87 -12 23 -25 42 -30 42 -5 0 -15 14 -22 32 -7 17 -27 50 -44 72 -16 23
-35 53 -42 67 -6 15 -37 60 -68 100 -32 41 -64 90 -72 111 -8 20 -21 39 -28
42 -8 3 -26 24 -40 46 -47 74 -73 80 -345 78 -129 0 -245 -3 -258 -5z"/>
<path d="M21624 2201 c-44 -27 -58 -68 -51 -148 6 -56 11 -72 37 -98 39 -41
40 -86 1 -197 -16 -46 -37 -112 -46 -148 -14 -58 -40 -148 -89 -305 -8 -27
-24 -75 -35 -105 -11 -30 -25 -81 -31 -113 -14 -73 -66 -130 -132 -147 -65
-18 -68 -23 -68 -115 0 -126 -18 -119 327 -123 l285 -3 34 26 c33 25 34 28 34
98 0 40 -4 77 -8 84 -4 6 -37 23 -74 38 -55 22 -68 32 -77 57 -16 46 -15 50
31 96 l41 42 189 0 c181 0 190 -1 226 -24 53 -33 68 -66 53 -115 -12 -42 -13
-43 -104 -62 -31 -7 -63 -19 -69 -27 -7 -8 -12 -43 -11 -85 1 -67 3 -73 32
-99 l31 -28 374 0 375 0 22 31 c19 27 21 40 16 97 -8 91 -13 100 -61 113 -22
6 -48 14 -56 18 -23 10 -89 154 -107 230 -8 36 -27 100 -43 141 -15 41 -33
104 -40 140 -6 36 -20 79 -30 95 -10 17 -25 62 -34 101 -8 40 -26 94 -39 120
-14 27 -28 76 -32 108 -4 32 -19 79 -32 104 -14 26 -29 71 -34 100 -4 30 -15
65 -23 77 -26 39 -83 45 -428 45 -298 0 -325 -2 -354 -19z m425 -418 c6 -16
15 -46 20 -68 5 -22 18 -62 29 -90 56 -140 65 -214 27 -239 -34 -23 -221 -23
-253 0 -32 22 -29 78 8 147 17 32 34 84 39 119 12 82 24 111 57 137 36 29 59
27 73 -6z"/>
<path d="M23128 2205 c-37 -21 -52 -73 -44 -153 4 -37 12 -72 17 -78 6 -7 27
-15 49 -19 74 -13 71 12 68 -503 -3 -514 1 -484 -75 -511 -21 -8 -41 -19 -45
-25 -4 -6 -8 -47 -8 -92 0 -127 -22 -118 315 -122 l286 -3 19 23 c15 18 19 39
20 98 0 80 -16 120 -48 120 -9 0 -33 5 -53 10 -61 17 -69 49 -69 274 0 188 1
193 23 214 13 12 28 22 34 22 15 0 113 -108 113 -124 0 -7 11 -23 26 -36 14
-14 34 -44 44 -68 11 -24 33 -60 50 -78 16 -19 30 -38 30 -42 0 -5 8 -17 19
-28 10 -11 24 -31 31 -45 7 -13 30 -47 51 -75 22 -28 39 -55 39 -61 0 -5 9
-18 21 -29 12 -10 32 -40 45 -65 13 -26 42 -60 66 -78 l42 -31 182 0 183 0 20
29 c21 29 21 39 21 609 l0 581 22 15 c12 9 34 16 49 16 50 0 69 27 75 112 6
67 4 80 -15 112 -16 25 -32 37 -54 41 -18 3 -138 5 -267 3 l-235 -3 -24 -48
c-22 -44 -23 -54 -15 -120 8 -62 12 -73 34 -83 102 -47 97 -42 104 -97 3 -29
6 -116 6 -194 0 -141 0 -142 -26 -162 -41 -32 -69 -27 -95 17 -12 20 -29 44
-36 52 -19 21 -76 105 -108 160 -14 25 -46 72 -70 105 -25 33 -58 85 -74 116
-16 30 -37 61 -46 69 -9 7 -25 30 -35 49 -11 20 -39 59 -64 86 l-44 50 -263 2
c-218 2 -269 0 -291 -12z"/>
</g>
</svg>
